<svg width="155" height="62" viewBox="0 0 155 62" fill="none" xmlns="http://www.w3.org/2000/svg">
<g clip-path="url(#clip0_371_927)">
<path d="M44.1081 38.8604C44.1921 38.9324 44.2005 40.1257 44.1711 40.3204C43.936 42.0512 39.0145 46.1222 37.5448 47.2859C33.9377 50.1551 30.1123 52.7576 26.207 55.1952C21.5796 52.3175 17.0864 49.2029 12.9209 45.6779L8.21777 49.2114C6.88663 48.0561 5.59749 46.6935 4.5267 45.2843C4.33773 45.0346 3.74985 44.0359 3.60288 43.9259C3.4853 43.8413 2.82603 43.8328 2.55308 43.7651C-0.739071 42.9822 -0.902839 38.0987 2.33473 37.0154C6.13918 35.7416 8.72167 40.8198 5.5513 43.1515L5.5387 43.2446C6.27355 44.4887 7.29395 45.5255 8.30596 46.5369L13.0048 43.0753C14.0378 43.9174 15.033 44.8019 16.0702 45.6355C19.2994 48.2212 22.7175 50.5656 26.2028 52.783C29.8939 50.4386 33.585 47.9122 36.9737 45.1404C37.7128 44.5353 42.1135 40.6886 42.1135 40.0369V38.8562H44.0997L44.1081 38.8604ZM3.12417 38.8774C2.28434 39.0255 1.78883 40.0284 2.02819 40.8028C2.33053 41.7888 3.5063 42.1951 4.34193 41.6026C5.65208 40.6759 4.87943 38.5684 3.12417 38.8731" fill="#E31522"/>
<path d="M44.108 34.4298H49.8483V41.1795C49.8483 41.3699 49.5543 42.047 49.5795 42.1697C49.5921 42.2332 50.117 42.8891 50.2136 43.0965C52.0276 46.922 47.0348 50.0959 44.3893 47.0363C42.1554 44.4507 44.4691 40.4813 47.7865 41.2176C47.7529 41.1287 47.8578 41.006 47.8578 40.9679V36.5034H42.1176V20.3591L35.3485 16.9313C35.2393 16.779 36.6041 15.6745 36.7342 15.4629L44.1038 19.1065V34.4298H44.108ZM46.997 43.1642C46.5309 43.1811 45.8338 43.4901 45.6533 43.9513C45.2292 45.0347 46.09 46.1645 47.1104 46.4862C48.0804 46.0926 48.8656 44.9119 48.3995 43.8582C48.2148 43.4393 47.4295 43.1473 47.0012 43.1642" fill="#E31522"/>
<path d="M9.80495 50.7142C9.77555 50.5957 9.84274 50.5704 9.90993 50.5026C10.0359 50.3757 11.3167 49.4532 11.409 49.4447L11.556 49.4828C16.1625 53.266 21.0965 56.6472 26.2153 59.6941C31.7876 56.279 37.2004 52.5593 42.1512 48.2725C42.2562 48.209 42.3192 48.2725 42.4074 48.3317C42.5585 48.4291 43.7385 49.3939 43.7553 49.4828C43.7511 49.6055 43.6293 49.6817 43.5495 49.7579C42.7055 50.5746 41.5381 51.476 40.6059 52.2208C36.1002 55.8305 31.1872 59.089 26.2153 62.0089L25.9928 61.9539C21.1889 59.0509 16.448 55.9997 12.0473 52.5043C11.3041 51.9118 10.5818 51.2559 9.81335 50.7185" fill="#E31522"/>
<path d="M16.8218 17.1429L10.2417 20.5495L10.2669 40.0707L11.3671 41.4672L9.83859 42.7156C9.67902 42.7156 8.2219 40.7817 8.2429 40.3966L8.2555 19.1911L15.2429 15.6533C15.3017 15.6321 15.3479 15.6533 15.3983 15.6745C15.4403 15.6956 16.0114 16.2246 16.1122 16.3177C16.2213 16.4193 16.889 17.0456 16.8218 17.1387" fill="#E31522"/>
<path d="M2.50273 15.4294L11.7871 11.46C11.9215 11.6462 11.9887 11.8704 12.1104 12.0651C12.228 12.2471 12.8537 13.0257 12.7739 13.14L4.48475 16.8216V34.5021H2.49854V15.4294H2.50273Z" fill="#E31522"/>
<path d="M27.3113 13.2162L21.5962 15.2855L21.3862 15.2178L19.9375 13.7494L25.3124 11.8451L25.2957 5.56087L26.2615 5.15039L32.3923 7.84181C32.64 7.88413 32.6988 7.59214 32.8416 7.46941C34.4289 6.07292 36.7846 6.1237 38.0695 7.87567C37.7336 8.59507 37.3389 9.29755 36.7678 9.85191C36.2471 7.2409 32.5392 8.84051 34.1517 11.058L34.8908 11.5277L33.2153 12.8438C32.3377 12.3741 31.9094 11.3288 31.775 10.3851C31.7498 10.1905 31.8422 9.87307 31.7036 9.74189L27.3071 7.85027V13.2077L27.3113 13.2162Z" fill="#E31522"/>
<path d="M49.8524 32.3566H47.8662V16.6439L39.2915 12.8565L40.2867 11.1426L49.8524 15.3955V32.3566Z" fill="#E31522"/>
<path d="M23.2004 6.5V8.71323L16.9898 11.43C16.6917 11.447 15.4445 10.2705 15.2598 9.92775L23.2004 6.5Z" fill="#E31522"/>
<path d="M5.21967 35.8347C4.86274 35.5047 5.0517 34.7387 5.51361 34.5737L5.564 28.9115L7.1093 27.3966L7.12189 18.3744L14.4998 14.8027L14.693 14.972L7.40324 18.696L7.39064 27.6124C7.17648 28.0863 5.96292 28.7169 5.89993 29.1824V34.4721C5.93773 34.6625 6.24007 34.7345 6.35765 34.9418C6.77756 35.6739 5.77816 36.3595 5.21547 35.8432M5.67318 34.8699C5.17768 34.9461 5.27426 35.7967 5.79496 35.7163C6.29046 35.6443 6.20228 34.7895 5.67318 34.8699Z" fill="#E31522"/>
<path d="M1.65436 19.7163V35.7886H4.4888L4.4804 36.0637C4.39222 36.1737 3.01909 36.0764 2.75454 36.0721C2.62437 36.0721 2.4774 36.1483 2.33042 36.1483C2.02388 36.1483 1.64176 36.0002 1.30163 36.0721V19.7163C1.30163 19.6951 1.06647 19.6697 0.957293 19.4581C0.642355 18.8445 1.34362 18.2309 1.86851 18.6118C2.25484 18.8911 2.14146 19.6359 1.65856 19.7163M1.70475 18.8741C1.38561 18.5525 0.961492 19.1873 1.29743 19.3947C1.63756 19.602 1.97349 19.1492 1.70475 18.8741Z" fill="#E31522"/>
<path d="M12.4801 46.6597C12.963 46.5581 13.4039 46.8501 13.4627 47.358C13.4879 47.5695 13.3452 47.7473 13.4921 47.8954L23.0243 54.7636C23.4232 54.4547 24.0111 54.5266 24.2294 55.0048C24.7879 56.2024 22.9613 56.7356 22.7471 55.5634C22.7093 55.356 22.8143 55.1191 22.7429 55.0048C22.7135 54.9582 22.197 54.5985 22.0878 54.5181C19.1652 52.3176 16.1166 50.261 13.173 48.1027C12.056 48.9068 11.2834 46.9136 12.4801 46.6639M12.4759 47.0152C12.1106 47.1252 12.1106 47.8065 12.4759 47.9123C13.3452 48.1705 13.3745 46.7486 12.4759 47.0152ZM23.3938 54.9456C22.8353 55.0725 22.9865 56.0628 23.7171 55.8427C24.1496 55.7115 24.1034 54.7847 23.3938 54.9456Z" fill="#E31522"/>
<path d="M5.91679 24.0615C5.91679 24.0615 6.13935 24.1419 6.22333 24.2139C7.01698 24.8825 6.24013 26.0378 5.3877 25.6273C4.66544 25.2803 4.83341 24.2731 5.55147 24.0234L5.58506 17.57L11.7453 14.4934C12.4717 13.025 13.5383 15.1536 11.909 14.8024L5.93779 17.7858L5.91259 24.0615H5.91679ZM5.67324 24.3704C5.09795 24.4635 5.12315 25.4242 5.79502 25.3565C6.47948 25.2887 6.31572 24.2689 5.67324 24.3704Z" fill="#E31522"/>
<path d="M37.5741 48.6997C37.5027 48.0776 37.7043 47.3413 38.4685 47.4302C39.4134 47.5444 39.3588 49.089 38.3342 49.0764C38.1116 49.0764 37.9562 48.8436 37.7379 48.9663C35.3989 50.7394 32.9928 52.4195 30.6539 54.1884C30.4145 54.3703 29.4697 55.0136 29.3605 55.1786C29.2429 55.3563 29.5579 55.9784 28.97 56.2789C27.5087 57.0237 27.2903 54.0995 29.0624 54.9162L37.5741 48.704V48.6997ZM38.7079 47.8745C38.4265 47.591 37.6707 47.8999 37.91 48.4289C38.246 49.1737 39.2076 48.3823 38.7079 47.8745ZM28.4997 55.0855C27.9076 55.1913 28.0294 56.1096 28.6173 56.0715C29.222 56.0334 29.1758 54.9628 28.4997 55.0855Z" fill="#E31522"/>
<path d="M46.7327 19.2889V32.289L46.4429 32.2594L46.3715 32.0436V19.3355C45.116 18.8785 46.023 17.0757 47.0476 17.8586C47.6061 18.286 47.3961 19.1493 46.7285 19.2889M46.4303 18.0152C45.9054 18.1717 46.0314 19.0393 46.6109 18.9885C47.2744 18.9335 47.1106 17.812 46.4303 18.0152Z" fill="#E31522"/>
<path d="M42.525 46.6553L44.8555 48.4284C44.9395 48.5596 44.7673 48.7754 44.57 48.6484C43.9569 48.2634 43.327 47.5016 42.7139 47.1546C42.6384 47.1123 42.5754 47.0531 42.483 47.1081L30.9227 55.614L30.6455 55.4659L42.5292 46.6595L42.525 46.6553Z" fill="#E31522"/>
<path d="M45.032 26.7877C44.9732 26.6904 44.5155 26.6438 44.5659 26.1402C44.6457 25.3277 45.7794 25.3785 45.8172 26.1826C45.8382 26.6396 45.3847 26.775 45.3847 26.8216V33.2496L45.4897 33.3554H50.0248C50.0752 33.3554 50.2516 32.8307 50.7303 32.8519C51.4357 32.8815 51.5575 33.9564 50.8688 34.0664C50.2558 34.1637 50.1256 33.6432 50.0206 33.6432H45.0236V26.7877H45.032ZM45.4393 26.4111C45.75 26.0979 45.1496 25.6282 44.9228 26.0006C44.7171 26.3434 45.1664 26.6819 45.4393 26.4111ZM50.6799 33.1608C50.176 33.2031 50.4657 34.096 50.9192 33.6813C51.1544 33.4655 50.9318 33.1354 50.6799 33.1608Z" fill="#E31522"/>
<path d="M7.088 30.731C8.17559 30.4771 8.54091 32.0302 7.49532 32.356V42.9313C8.01182 43.126 8.1126 43.875 7.5877 44.0908C6.77726 44.4251 6.35314 43.2783 7.14679 42.9313V32.3603C6.38254 32.1529 6.32375 30.913 7.0922 30.7353M7.65909 31.9075C8.15879 31.5012 7.46173 30.6845 6.99142 31.1627C6.54631 31.6155 7.16778 32.3095 7.65909 31.9075ZM7.29796 43.2318C6.90324 43.2656 6.96622 43.8961 7.35255 43.8623C7.71368 43.8284 7.69688 43.1979 7.29796 43.2318Z" fill="#E31522"/>
<path d="M45.3133 23.2872H44.9606V18.1074L37.6582 14.5697L37.8472 14.2988L45.3133 17.9636V23.2872Z" fill="#E31522"/>
<path d="M24.4055 6.14453V10.5033L20.979 11.9971C20.9202 12.3695 20.7186 12.8138 20.2777 12.7758C19.4085 12.6996 19.589 11.4258 20.3239 11.502C20.4877 11.5189 20.5968 11.6543 20.7186 11.6882C20.9874 11.7559 23.5363 10.444 24.015 10.2917L24.1158 6.17839L24.4055 6.14876V6.14453ZM20.2021 11.8701C19.9418 11.9506 19.946 12.3399 20.2021 12.416C20.7396 12.5769 20.7396 11.7093 20.2021 11.8701Z" fill="#E31522"/>
<path d="M20.576 55.0007L20.3241 54.9372L14.4578 50.807C13.2569 51.3656 13.1813 49.4147 14.2899 49.6601C14.861 49.7871 14.5922 50.3076 14.7602 50.5446L20.639 54.7637L20.576 55.0049V55.0007ZM14.1051 49.9479C13.7818 49.9733 13.7188 50.5277 14.0253 50.5784C14.5292 50.6631 14.546 49.9098 14.1051 49.9479Z" fill="#E31522"/>
<path d="M45.5991 37.6464C45.7964 36.7238 47.1108 36.8042 47.1654 37.7521C47.199 38.3615 46.8504 38.6281 46.2709 38.5816C45.6914 38.535 45.767 38.0568 45.4941 38.0061L39.9596 37.9383L39.9302 37.6464H45.5991ZM46.2877 37.2993C45.7334 37.384 45.8006 38.3234 46.4095 38.2854C47.0688 38.243 46.968 37.1935 46.2877 37.2993Z" fill="#E31522"/>
<path d="M12.4717 41.8653C12.5641 41.8484 12.7741 42.0388 12.6775 42.1488L8.21797 45.492L8.0332 45.3227L12.4717 41.8653Z" fill="#E31522"/>
<path d="M35.605 9.78418L35.8527 9.5726C36.3146 10.1566 36.1089 10.9352 35.3236 10.9987C35.2942 10.9775 35.7351 10.6094 35.5924 10.3724C35.5798 10.347 35.458 10.3216 35.3992 10.2454C35.3362 10.165 35.2984 9.79688 35.164 10.0931C35.0885 10.2539 35.1808 10.4105 34.8995 10.3597C34.8827 10.6221 35.0339 10.8125 35.1808 10.9987C34.5342 10.931 34.383 10.5121 34.488 9.90691C34.4922 9.87305 34.6014 9.58106 34.614 9.56836C34.7903 9.39909 34.7105 9.8265 34.8239 9.78418C34.9079 9.4541 35.1556 9.22136 35.0381 8.85742C35.416 8.97591 35.6763 9.37793 35.605 9.78418Z" fill="#E31522"/>
<path d="M44.6706 40.6335C44.7168 40.5531 44.3683 39.8802 44.9351 39.512C45.8716 38.9027 46.6904 40.3288 45.838 40.8493C45.3005 41.1751 45.0737 40.8154 44.8722 40.8704C44.7 40.9128 44.49 41.3698 44.2297 41.3486L44.0449 41.1836C44.0995 41.0228 44.6538 40.6758 44.6748 40.6377M45.7204 40.5531C46.1067 40.1891 45.649 39.4697 45.1325 39.7829C44.4816 40.1764 45.2627 40.9932 45.7204 40.5531Z" fill="#E31522"/>
<path d="M11.3632 47.9297L11.4262 48.1709L8.6673 50.2529L8.57072 50.2826C8.42375 50.1852 8.29358 50.0625 8.49094 49.9313L11.359 47.9297H11.3632Z" fill="#E31522"/>
<path d="M2.64544 40.181C2.66224 40.1302 2.82181 40.0963 2.8428 40.0582C2.91419 39.9313 2.81761 39.6054 3.02337 39.3812C3.31311 39.0638 4.01437 39.2119 4.11515 39.6266C4.14875 39.7705 4.10256 39.9736 4.14875 40.0625C4.16974 40.0963 4.34611 40.1386 4.34611 40.181V41.2516C4.34611 41.2516 4.12355 41.4293 4.09836 41.4293H2.82181C2.79661 41.4293 2.71263 41.3362 2.64544 41.3574C2.64544 41.1162 2.59505 40.3291 2.64544 40.1767M3.85061 40.0709L3.74983 39.5631C3.30051 39.3388 3.09475 39.6266 3.14095 40.0709H3.85061ZM3.56506 41.1458C3.81701 40.0794 3.11155 40.0582 3.3509 41.1458H3.56506Z" fill="#E31522"/>
<path d="M46.1027 44.0107L47.0517 43.5791L47.9797 43.998C48.1813 44.6201 47.8159 45.6865 47.2112 45.9489C46.8081 46.1266 46.1614 45.2634 46.1027 44.891C46.0859 44.7767 46.0775 44.0573 46.1069 44.0107" fill="#E31522"/>
<path d="M40.7066 5.92895V7.74862L40.5638 7.82479C40.0893 7.44816 39.5225 7.35083 38.9346 7.46086L39.2159 6.03051C39.6778 5.79776 40.2111 5.81892 40.7066 5.92472M40.4253 7.35929V6.25056C40.3329 6.04744 39.4889 6.1617 39.4427 6.22094L39.2915 7.13924C39.682 7.11808 40.0809 7.15194 40.4253 7.35506" fill="#E31522"/>
<path d="M24.3341 20.9306C24.3341 21.248 24.6071 21.5654 24.5315 21.8743C24.4601 22.1705 23.6119 22.9788 23.3347 23.1734C22.4991 23.7574 21.7139 23.749 20.727 23.7786L20.4331 22.7164C21.4619 22.6699 22.5201 22.2932 23.3599 21.7008C23.6581 21.4934 23.9058 21.1676 24.1536 20.9983C24.2124 20.956 24.225 20.901 24.3299 20.9264" fill="#E31522"/>
<path d="M31.4936 22.7162L31.1661 23.7783C29.7971 23.8333 28.7389 23.4906 27.8445 22.4326C27.3364 21.8317 27.2734 21.6624 27.7059 20.9346C28.676 22.0179 30.0575 22.6188 31.4978 22.7204" fill="#E31522"/>
<path d="M31.6322 22.5003C30.2213 22.3056 28.8229 21.7047 27.8403 20.6425L28.7264 18.7467C28.8397 18.6747 30.385 19.4915 30.6202 19.6311C30.8091 19.7411 32.0479 20.5621 32.0983 20.6425C32.2327 20.8626 31.6196 22.1406 31.6322 22.496M29.5788 19.4322L28.8691 19.1741C28.7432 19.4872 28.1343 20.359 28.2686 20.6425C28.298 20.706 28.7516 21.0615 28.8481 21.1334C29.1967 21.3831 30.364 21.984 30.7588 22.0009C31.2123 22.0221 30.9897 20.943 31.4936 21.0022C31.6238 21.1249 30.9099 22.1279 31.4222 22.1448L31.7456 20.7906C31.5062 20.6087 29.8727 19.4407 29.7216 19.5761L29.4486 20.3294C29.8517 20.6129 30.2885 20.8414 30.7798 20.871C30.8385 21.1122 30.7672 21.3831 30.4774 21.2857C30.385 21.2519 30.3472 21.0868 30.2465 21.0191C30.0029 20.8541 29.6544 20.7652 29.4024 20.5875L29.1925 20.8668L29.0161 20.7568L29.583 19.4364L29.5788 19.4322Z" fill="#E31522"/>
<path d="M19.8076 20.6556C20.8742 19.9235 21.9576 19.2083 23.167 18.7344C23.3265 18.7471 24.053 20.3425 24.1286 20.6091C23.188 21.6416 21.8022 22.2933 20.4081 22.4922L19.8118 20.6556H19.8076ZM21.0086 21.9971C22.029 21.8998 22.9864 21.2523 23.7338 20.571C23.7716 20.4736 23.2299 19.2422 23.1292 19.1745C22.9822 19.0772 22.5623 19.3395 22.4363 19.4622L22.915 20.8587C22.6673 20.9137 22.6631 20.7149 22.5287 20.5794L21.3529 21.2523C21.1933 21.193 21.0884 21.1084 21.1807 20.9264C21.2857 20.7191 21.4537 20.863 21.5755 20.8206C21.8988 20.7064 22.1634 20.4398 22.4951 20.3509L22.1718 19.5638L20.1855 20.7826L20.5467 22.0648L20.7944 22.1029C20.7524 21.7643 20.5677 21.447 20.4879 21.1211C20.4669 21.0365 20.3997 20.8799 20.5467 20.8503C20.7524 20.808 20.9582 21.8109 21.0128 21.9886" fill="#E31522"/>
<path d="M21.2856 16.0723C20.1266 16.4235 19.1818 17.1725 18.5561 18.2178L17.0444 16.3854C17.4476 15.3444 18.3798 14.5827 19.4212 14.2314C20.1476 14.7308 20.6893 15.4375 21.2856 16.0723ZM19.0894 15.429C19.2196 15.2809 19.8831 16.2627 19.9839 16.2796L20.7187 15.8945L19.396 14.5827C19.144 14.5192 17.9221 15.3656 17.9599 15.5983C18.0648 15.8014 18.2412 15.7803 18.4428 15.7972L18.6023 16.3516C18.9047 16.3516 19.102 16.3304 19.1608 16.6817C18.7451 17.0329 18.5477 16.0511 18.0354 16.2119L17.8507 15.721C16.8723 16.3516 18.2412 17.0117 18.5603 17.6465L19.7235 16.4574C19.6227 16.0384 19.0432 15.8818 19.0936 15.4333" fill="#E31522"/>
<path d="M32.5225 14.2441C33.5681 14.5446 34.4751 15.3359 34.9496 16.3262L33.4379 18.1416C33.06 17.8496 32.829 17.4138 32.4511 17.0752C31.9388 16.6182 31.3215 16.3431 30.7168 16.0384C30.7084 15.9115 32.3755 14.2568 32.5225 14.2441ZM33.3371 17.7142L34.5087 16.3558C34.6179 16.1146 33.9334 15.391 33.7234 15.2175C33.5639 15.0863 32.7534 14.5658 32.6023 14.5869C32.3839 14.6842 31.1577 15.8353 31.2795 16.0003L31.943 16.2754L32.8752 15.3571C33.2573 15.5052 33.4421 15.8734 33.8746 15.848C34.072 16.085 34.03 16.4151 33.6605 16.36C33.4421 16.3262 33.2531 15.6999 32.8752 15.6618L32.1319 16.3981L32.9466 17.1429L33.3371 17.7142Z" fill="#E31522"/>
<path d="M28.9408 18.501C28.8694 18.4248 29.6294 17.333 29.7344 17.1933C29.873 17.0071 30.2803 16.3766 30.4651 16.3597C30.7716 16.33 31.5946 16.8252 31.8676 17.0156C32.3841 17.3795 32.8838 17.8916 33.2533 18.4079L32.2371 20.4307C31.2125 19.6774 30.1879 18.8395 28.9408 18.501ZM31.7038 19.5716C31.75 19.3981 32.0314 18.6787 32.2371 18.7168C32.3967 18.7464 32.2959 18.8776 32.2581 18.9495C32.1363 19.195 31.9558 19.4277 31.8592 19.6943L31.9516 19.8636L32.1321 19.8975L32.8796 18.4248C32.6318 17.9466 31.0026 16.6051 30.5532 16.7278C30.4063 16.7702 29.4405 18.1497 29.4489 18.2555L31.708 19.5758L31.7038 19.5716Z" fill="#E31522"/>
<path d="M35.1095 16.1443C34.6853 15.1794 33.8791 14.3373 32.8419 14.0707C32.8125 13.9607 32.8713 13.9522 32.9133 13.893C33.0141 13.7491 34.5216 12.5896 34.656 12.5727C35.437 12.4669 36.6758 13.7279 36.8647 14.4685L35.1137 16.1443H35.1095ZM34.6644 12.9408C34.5678 12.962 33.4088 13.8126 33.4088 13.893L34.0093 14.2696C34.173 14.1807 34.7315 13.4402 34.8953 13.5375C35.1137 13.7279 34.656 13.8549 34.6895 14.0284L35.3866 14.7605L34.9793 15.2599L35.2144 15.6407C35.4076 15.3529 36.491 14.6462 36.4448 14.3373C36.3608 13.7745 35.2354 12.8181 34.6644 12.9408ZM34.446 14.2188L34.2654 14.4558L34.8533 14.9975L35.0339 14.7647L34.446 14.2231V14.2188Z" fill="#E31522"/>
<path d="M12.7824 5.78486C12.2575 5.69599 11.8334 5.56904 11.2959 5.71292C11.4345 3.46584 12.8202 1.53614 14.3445 0C13.4837 1.80698 12.669 3.72821 12.7866 5.78486M12.4255 5.42939C12.4801 4.15139 12.753 2.97495 13.2065 1.78582L12.7236 2.4756C12.2407 3.37697 11.7494 4.31643 11.6444 5.35322L12.4255 5.42516V5.42939Z" fill="#E31522"/>
<path d="M40.6355 5.78454C40.161 5.50947 39.7033 5.69567 39.2204 5.78454C39.2876 3.77867 38.4939 1.93783 37.7339 0.143555C39.2582 1.59506 40.5641 3.60939 40.6397 5.78454M40.3542 5.35712C40.0644 4.07489 39.5773 2.80112 38.7249 1.78549C39.17 2.945 39.5437 4.17222 39.5059 5.42906L40.3542 5.35712Z" fill="#E31522"/>
<path d="M16.8891 16.1442C16.7799 16.1739 16.7715 16.1146 16.7127 16.0723C16.4482 15.8903 15.6377 15.0609 15.369 14.7858C14.9449 14.35 15.2556 13.9945 15.5873 13.5798C15.9023 13.1862 16.7757 12.5515 17.2838 12.5811C17.4014 12.5853 19.1566 13.8506 19.1566 13.9691C18.1824 14.4007 17.2586 15.1117 16.8891 16.1485M18.5226 13.9987C18.6233 13.8633 17.7457 13.2328 17.6239 13.1566C17.5315 13.0974 17.414 12.9916 17.3216 12.9619C16.6875 12.763 15.5579 13.8125 15.4823 14.4558L16.7169 15.6449L17.1074 15.0355L16.6833 14.5362C16.9311 14.1976 17.141 14.7562 17.2964 14.7774L17.6029 14.642C17.6407 14.5912 17.246 14.0876 17.183 14.0326C16.9857 13.8548 16.7295 13.9649 16.8219 13.5036C17.3594 13.4359 17.1242 13.639 17.2418 13.8252C17.2754 13.8802 17.7541 14.3415 17.7961 14.3542L18.5267 14.003L18.5226 13.9987Z" fill="#E31522"/>
<path d="M22.9865 18.5014C21.7351 18.8484 20.7357 19.7075 19.6901 20.4311L18.7285 18.3999C19.1904 17.6932 19.8749 17.0457 20.6307 16.6648C20.9205 16.521 21.3656 16.2501 21.6427 16.4617C21.8275 16.6056 22.8521 18.0571 22.9487 18.2898C22.9781 18.3618 23.0033 18.421 22.9865 18.5014ZM19.7993 19.9276L22.491 18.2433C22.512 18.1544 21.5378 16.7495 21.4538 16.7199C20.9625 16.559 19.3458 17.9132 19.098 18.4041L19.7993 19.9233V19.9276Z" fill="#E31522"/>
<path d="M37.0239 14.2861C36.709 13.3086 35.9489 12.6146 34.9663 12.3565L36.5746 11.0107C37.5026 11.1208 38.3047 11.6413 38.649 12.5384C38.6406 12.805 37.2885 14.028 37.0197 14.2861M37.8721 11.8571C37.5614 11.7048 37.0113 11.3027 36.6502 11.3662C36.5914 11.3789 35.739 12.0306 35.676 12.1025C35.6214 12.166 35.5836 12.1829 35.6088 12.2803L36.1295 12.4834C36.3814 12.2887 36.5788 12.0179 36.8349 11.8275C36.8979 11.7809 36.8853 11.6709 37.0617 11.709C37.1961 11.7386 37.1415 11.8994 37.0743 11.9714C36.9147 12.1449 36.5242 12.4538 36.3184 12.5638L36.6712 13.0293L37.2045 13.7783L38.2879 12.5173L38.0527 12.1406C37.8931 12.2591 37.2885 13.0505 37.0953 12.8516L37.1079 12.5765C37.3011 12.6104 37.9435 11.9502 37.8763 11.8529" fill="#E31522"/>
<path d="M15.1212 10.8584C14.2645 10.9642 13.5003 11.4381 13.1433 12.2422L12.9964 12.2845L12.0054 10.4606C12.0054 10.2829 12.6982 9.71157 12.8788 9.62693C13.1643 9.49574 13.895 9.31801 14.1344 9.5296L15.1254 10.8542L15.1212 10.8584ZM14.6257 10.6426C14.4577 10.5114 13.9874 9.76235 13.8698 9.72426C13.7564 9.68618 13.1601 9.79197 13.1391 9.89777L13.4331 10.4944L14.021 10.2829L14.2855 10.706L14.6299 10.6426H14.6257ZM14.126 10.8542L13.9412 10.5749L13.3911 10.778C13.2777 10.7314 12.8284 9.63963 12.7066 10.1094C12.673 10.2363 13.2861 11.2646 13.3869 11.2816L14.1218 10.8542H14.126ZM12.5681 10.359L12.3917 10.431C12.3245 10.5325 12.8032 11.3535 12.9082 11.4847C13.0972 11.7132 13.2651 11.6497 13.1979 11.4085C13.1391 11.1969 12.6017 10.668 12.5681 10.359Z" fill="#E31522"/>
<path d="M37.889 9.4455C37.9645 9.40319 38.3551 9.42011 38.4726 9.43704C38.9052 9.50052 40.0347 10.0464 39.9004 10.5754C39.8458 10.7954 38.9513 12.2893 38.8338 12.2893C38.544 11.7772 38.1871 11.3202 37.6412 11.062C37.5068 10.9986 36.814 10.8293 36.814 10.7531C37.1499 10.6219 37.742 9.53437 37.889 9.4455ZM38.7918 9.86022C37.9645 9.45397 37.8428 10.0803 37.3767 10.6092C37.7798 10.8505 38.2501 10.9605 38.544 11.3583L39.2579 10.1438L39.0773 10.0337L38.607 10.7912L37.805 10.4654C37.9855 10.2622 38.2753 10.6177 38.4978 10.4865C38.5482 10.4569 38.8506 9.97448 38.796 9.86022M39.5728 10.3596C39.4133 10.1734 38.8884 11.5106 38.6532 11.4344L38.8296 11.7137C38.922 11.7561 39.0983 11.4048 39.1487 11.3244C39.2411 11.1763 39.6736 10.4781 39.5728 10.3596Z" fill="#E31522"/>
<path d="M14.907 14.2861C14.6592 14.0618 13.2693 12.7669 13.2903 12.5511C13.4876 11.8105 14.6214 10.9303 15.3689 11.0742C15.6334 11.125 16.6538 12.1279 16.9646 12.3226C16.0197 12.7204 15.2345 13.2578 14.9112 14.2861M16.3977 12.2845L15.2345 11.3619C14.781 11.3408 13.6556 12.0729 13.7018 12.5342C13.7228 12.7161 14.6886 13.7444 14.802 13.7148C15.2093 13.1351 15.6964 12.5003 16.3977 12.2845Z" fill="#E31522"/>
<path d="M17.8127 19.0726L17.7707 19.2926L17.46 19.4281C17.7245 19.4661 17.8589 19.8089 18.0688 19.9189C18.3082 20.0417 18.6693 19.9359 18.6693 20.321C18.6693 20.5368 18.5265 20.6849 18.3082 20.613C18.0142 20.5199 18.115 20.0628 17.7455 19.9994L17.7119 20.7145C18.1738 21.2774 19.8577 22.5173 20.0634 23.1266C20.1264 23.3171 20.2776 24.0873 19.9417 23.808L19.8367 23.2832L17.3844 20.8034C17.1828 20.486 17.8295 19.6185 17.1072 19.5677L16.9728 20.5241L16.6831 20.5664L16.8973 19.0684H17.8169L17.8127 19.0726Z" fill="#E31522"/>
<path d="M34.9579 19.0811L35.2519 20.5706L35.0041 20.4987L34.7942 19.5677C34.7018 19.4196 34.4834 19.7201 34.475 19.8216C34.4498 20.0882 34.727 20.4945 34.58 20.7822L32.2747 23.0335C32.1109 23.2578 32.0395 23.5414 32.0647 23.8164C31.586 24.0069 31.8547 23.1774 31.9933 22.9616C32.2705 22.5511 34.2567 20.8711 34.3239 20.5918C34.3616 20.431 34.1979 20.1729 34.1937 19.9994C33.9207 20.0713 33.9543 20.4056 33.8409 20.5368C33.6058 20.8034 33.1397 20.4183 33.337 20.1221C33.463 19.9782 33.6772 20.0374 33.8367 19.9613C33.9879 19.8893 34.2777 19.4915 34.4792 19.3942L34.1223 19.3265L34.1307 19.0811H34.9663H34.9579Z" fill="#E31522"/>
<path d="M36.722 38.8017C36.9907 38.7467 37.2217 38.9075 37.2385 39.1868C37.2511 39.4365 36.9991 39.4577 36.9572 39.682C36.8606 40.1982 37.0831 42.1533 36.9194 42.4284L33.5894 44.7855C33.4466 44.6839 33.434 44.5104 33.5558 44.3919L36.638 42.2126C36.7052 42.0729 36.701 39.7327 36.638 39.5719C36.5708 39.4027 36.3105 39.2461 36.4994 38.9245C36.5582 38.861 36.6464 38.8144 36.7304 38.7975" fill="#E31522"/>
<path d="M16.9648 37.0028V40.3248C17.1873 40.6845 17.9432 40.8834 17.7416 41.3616L16.6792 40.4687V37.0748C16.4063 37.0875 16.0409 37.7688 15.7932 37.718C15.7176 37.7011 15.6714 37.5995 15.7218 37.5022C15.7848 37.3795 16.7464 36.4188 16.8472 36.4358C17.0613 36.7278 17.7836 37.2313 17.9222 37.5022C17.9852 37.6291 17.9348 37.6376 17.8466 37.718C17.6072 37.7815 17.1957 37.1002 16.9606 37.0028" fill="#E31522"/>
<path d="M35.3193 37.0029V40.4688C35.1472 40.6042 34.4543 41.3236 34.2947 41.2897C34.2191 41.2728 34.1729 41.1712 34.2191 41.0739C34.3241 40.8708 34.8448 40.4942 35.038 40.3249V37.0749C34.7482 37.0791 34.4207 37.7858 34.152 37.7181L34.0806 37.5023L35.1556 36.4443C35.2689 36.4443 36.1927 37.3796 36.2557 37.5277C36.2935 37.6165 36.3187 37.6927 36.2053 37.7181C35.9534 37.7731 35.5587 37.1045 35.3193 37.0029Z" fill="#E31522"/>
<path d="M13.8445 9.2125C13.0424 9.15326 12.3622 9.5045 11.896 10.1393C11.7911 10.1393 11.2788 8.25189 11.3292 8.13763C11.6861 7.79062 12.7149 7.48593 13.1348 7.7483C13.2524 7.82024 13.6723 9.00938 13.8445 9.2125ZM13.349 8.92897C13.0046 8.23073 12.9878 7.64251 12.0304 8.06992L12.3538 9.21673L13.3448 8.92897H13.349ZM11.8583 8.2138C11.7407 8.19687 11.6609 8.25612 11.6567 8.37884C11.6567 8.53118 11.8625 9.1321 11.9212 9.33099C11.9506 9.42409 11.8709 9.52989 12.0304 9.49603C12.085 9.48334 12.253 9.41986 12.211 9.32253L11.8541 8.2138H11.8583Z" fill="#E31522"/>
<path d="M15.348 39.5167C15.2178 39.7283 15.4026 41.8527 15.348 42.2716L17.7835 43.9982L17.7457 44.214L17.4938 44.1463L15.0877 42.4282C14.8987 42.0389 15.1632 40.2658 15.0499 39.6776C15.0079 39.4533 14.7559 39.4363 14.7685 39.1824C14.7937 38.7 15.5202 38.6281 15.558 39.174C15.579 39.5125 15.4026 39.4363 15.3564 39.5125" fill="#E31522"/>
<path d="M21.9953 30.5703L20.219 30.3249L19.585 29.0003C19.9461 29.0553 20.3744 28.8184 20.7187 28.9665C20.8153 29.0088 21.3864 29.6816 21.4956 29.8255C21.5712 29.9186 22.0583 30.5111 21.9953 30.5745" fill="#E31522"/>
<path d="M32.342 29.0003L31.7037 30.3207L29.9316 30.5703C30.2046 30.2022 30.4733 29.8044 30.7841 29.4658C31.3594 28.8395 31.4601 28.8522 32.342 29.0003Z" fill="#E31522"/>
<path d="M40.6314 8.07817L40.1401 10.1433C40.0561 10.2195 39.7202 9.7328 39.6068 9.64394C39.1869 9.30539 38.6116 9.17421 38.0825 9.21229L38.809 7.73116C39.4808 7.49842 40.0477 7.76925 40.6314 8.07817ZM40.2745 8.22205C39.8672 8.03585 39.4682 7.85389 39.0231 8.01469L38.6536 9.0007C39.1911 8.91183 39.5438 9.33078 40.0015 9.50005L40.2787 8.22205H40.2745Z" fill="#E31522"/>
<path d="M11.22 6.0346C11.3082 5.76376 12.4756 5.82724 12.7107 6.0346L13.0635 7.46494C12.6183 7.44802 12.2404 7.36761 11.8079 7.55804C11.6357 7.63422 11.514 7.80772 11.325 7.8585C11.2956 7.8585 11.2158 7.68923 11.2158 7.67653V6.0346H11.22ZM11.5056 6.25042V7.35915L12.6393 7.10947L12.4252 6.25465L11.6231 6.15732L11.5056 6.25465V6.25042Z" fill="#E31522"/>
<path d="M25.1823 32.9992C25.3461 33.3081 25.1487 33.617 25.2369 33.9048C25.4301 34.5438 26.6436 34.5268 26.7402 33.8878C26.7612 33.7355 26.6562 33.0838 26.9208 33.143C27.0216 33.215 27.03 33.2658 27.0258 33.3843C27.0174 33.5197 26.9544 34.1417 26.9208 34.2137C26.6898 34.7342 25.4385 34.7088 25.1151 34.2518C24.9094 33.964 24.901 32.796 25.1865 32.9992" fill="#E31522"/>
<path d="M27.0259 34.7174C26.9545 35.5257 25.1698 35.5045 24.9725 34.8232C24.8759 34.4931 25.4428 34.9883 25.5058 35.001C25.6695 35.0306 26.2532 35.0306 26.4296 35.0052C26.7319 34.9671 26.7277 34.6878 27.0301 34.7174" fill="#E31522"/>
<path d="M26.8873 35.5723C26.9839 36.2451 25.1069 35.9574 25.0439 35.75C25.0355 35.7161 25.0229 35.5723 25.0817 35.5723C25.678 35.7669 26.2994 35.7966 26.8873 35.5723Z" fill="#E31522"/>
<path d="M25.115 31.2858C25.199 31.2562 25.3964 31.3196 25.3964 31.3916V32.4622L25.22 32.568L25.1108 32.4622V31.2815L25.115 31.2858Z" fill="#E31522"/>
<path d="M26.6016 31.3962L26.7443 31.3242C26.8157 31.375 26.8577 32.2298 26.8619 32.4118C26.8619 32.6191 26.8115 32.6869 26.6058 32.6488V31.4004L26.6016 31.3962Z" fill="#E31522"/>
<path d="M23.1376 37.0661C22.978 36.8164 23.3853 36.5414 23.5239 36.8588C23.6121 37.0577 23.2383 37.2312 23.1376 37.0661Z" fill="#E31522"/>
<path d="M25.115 44.1465V47.113C25.115 47.1553 25.3838 47.2992 25.4006 47.4727C25.4384 47.8281 24.989 48.0905 24.7287 47.7901C24.4264 47.4431 24.8547 47.2907 24.9009 47.041C24.9555 46.7575 24.9555 44.8278 24.9009 44.5443C24.8841 44.4639 24.8757 44.4004 24.7833 44.375L24.334 44.3665V46.0804C24.25 46.11 24.0484 46.0508 24.0484 45.9746V44.3665H23.6957V45.653C23.6117 45.6826 23.4102 45.6191 23.4102 45.5472V44.1549H25.1108L25.115 44.1465Z" fill="#E31522"/>
<path d="M22.7008 41.7891C22.7596 42.1699 23.1585 42.6693 23.2383 42.9994C23.2719 43.1263 23.2719 43.1305 23.1627 43.2152C22.9527 43.2617 22.5622 42.0768 22.4194 41.8949L22.6966 41.7891H22.7008Z" fill="#E31522"/>
<path d="M19.0895 42.3226C19.1063 42.2761 19.2533 42.2465 19.2826 42.1957C19.3834 42.0391 19.3162 41.6879 19.5136 41.4636C19.7572 41.1885 20.3156 41.2224 20.5466 41.4974C20.7734 41.764 20.6558 42.0603 20.7356 42.2042C20.7566 42.2422 20.9329 42.2846 20.9329 42.3269V43.4695C20.9329 43.4695 20.7692 43.6472 20.7566 43.6472H19.1987L19.0937 43.5414C19.0937 43.296 19.0433 42.4792 19.0937 42.3269M20.3492 41.6625C19.8579 41.4001 19.5346 41.6921 19.585 42.2168H20.4374L20.3492 41.6625ZM20.1519 43.3594C20.1141 43.1225 20.408 42.4157 19.9125 42.5808C19.8369 42.6062 19.7991 42.6739 19.7949 42.7501L19.8705 43.3594H20.1519Z" fill="#E31522"/>
<path d="M20.0089 40.2145H20.8613V40.4303L20.1265 40.4388L20.0005 40.7054L19.7275 40.7139V39.11L19.9039 39L20.0089 39.11V40.2145Z" fill="#E31522"/>
<path d="M28.5167 45.7163H28.3025V44.3579L27.9582 44.3706C27.9624 44.4468 27.8784 44.5738 27.8784 44.6118V46.076H27.6642V44.468L27.5467 44.3706L27.0973 44.3579C27.1813 45.1704 26.9882 46.1861 27.0973 46.969C27.1309 47.2102 27.3073 47.2398 27.3199 47.4641C27.3493 47.9973 26.6354 48.01 26.606 47.5318C26.5934 47.3075 26.7908 47.2059 26.8202 46.969C26.8706 46.5542 26.7152 44.2394 26.8202 44.1421C27.3535 44.1421 28.0338 43.9178 28.5209 44.176V45.7121L28.5167 45.7163Z" fill="#E31522"/>
<path d="M29.4027 41.7168C29.5371 41.7126 29.4993 41.975 29.4741 42.0723C29.4279 42.267 29.1634 42.8213 29.05 43.0033C28.9996 43.0837 28.9702 43.2361 28.8358 43.2149C28.6637 43.1895 28.8107 42.9398 28.8358 42.8594C28.8946 42.6902 29.302 41.7211 29.3985 41.7168" fill="#E31522"/>
<path d="M30.7841 42.5381C30.8009 42.4788 31.6324 41.7171 31.708 41.6748C31.7751 41.641 31.7793 41.641 31.8507 41.6748C31.9431 41.7214 32.7326 42.5296 32.7535 42.627C32.8081 42.847 32.7787 44.0742 32.5226 44.0742H30.9647C30.9647 44.0742 30.7883 43.9092 30.7883 43.8965C30.7883 43.596 30.7295 42.7539 30.7883 42.5381M32.2706 42.9316C32.3504 42.8343 31.7457 42.1191 31.7038 42.1445L31.2083 42.8936L31.561 42.8555V43.7865H31.9851V42.8555L32.2664 42.9274L32.2706 42.9316Z" fill="#E31522"/>
<path d="M32.2748 39.2884V40.8246C32.2748 40.9684 33.2239 41.4551 32.7452 41.5651C32.6696 41.5567 32.1027 41.1208 32.0565 41.0404C31.9683 40.8796 32.0019 40.6595 31.9893 40.6426C31.9221 40.5664 31.0151 40.8246 31.2461 40.3548H31.9893V39.2842H32.2748V39.2884Z" fill="#E31522"/>
<path d="M23.7464 40.0837C24.3049 39.9187 24.3385 40.7269 23.864 40.7693C23.4818 40.8073 23.4398 40.1768 23.7464 40.0837Z" fill="#E31522"/>
<path d="M27.8617 41.268C27.6601 41.4754 27.2192 41.1623 27.2528 40.9126C27.446 40.2524 28.206 40.9126 27.8617 41.268Z" fill="#E31522"/>
<path d="M27.9286 40.0834C28.2981 39.9819 28.6634 40.4981 28.3023 40.6801C27.853 40.9044 27.5255 40.1934 27.9286 40.0834Z" fill="#E31522"/>
<path d="M24.2416 40.6553C24.7875 40.4733 24.8799 41.3705 24.3046 41.2901C23.9518 41.2393 24.0106 40.7315 24.2416 40.6553Z" fill="#E31522"/>
<path d="M23.8763 25.1458C23.977 25.1246 25.4216 26.428 25.4006 26.538C25.3922 26.5888 25.2494 26.7031 25.1864 26.61C24.8421 26.246 24.4138 25.954 24.0526 25.6113C23.9896 25.552 23.5907 25.205 23.8763 25.1458Z" fill="#E31522"/>
<path d="M25.1865 23.1436H25.4007C25.4049 23.4144 25.3923 23.6895 25.4007 23.9645C25.4049 24.155 25.577 24.3581 25.3629 24.502L25.1865 24.3962V23.1478V23.1436Z" fill="#E31522"/>
<path d="M28.2313 25.2173C28.2943 25.2935 28.1053 25.4543 28.0549 25.5051C27.8953 25.6617 26.9085 26.5377 26.791 26.5884C26.7028 26.6265 26.6272 26.6519 26.602 26.5377C26.581 26.4192 26.6398 26.3642 26.7028 26.2838C26.77 26.2034 27.9079 25.247 27.9835 25.2131C28.0633 25.175 28.2019 25.1877 28.2313 25.2173Z" fill="#E31522"/>
<path d="M26.5306 23.1436C26.6649 23.0928 26.8119 23.1901 26.8119 23.3213V24.392L26.7027 24.4978L26.5264 24.392V23.1436H26.5306Z" fill="#E31522"/>
<path d="M28.6593 28.7168H28.3779C28.4367 28.5687 28.4115 28.1794 28.4661 28.0905C28.4871 28.0524 28.9826 27.7012 29.0918 27.5404C29.2178 27.3542 29.1296 27.0664 29.4781 27.0664C29.8308 27.0664 29.919 27.6038 29.6041 27.7012C29.4907 27.735 29.3605 27.7012 29.2304 27.752C29.033 27.8366 28.5165 28.4375 28.6635 28.7168" fill="#E31522"/>
<path d="M30.4396 26.6349C30.2045 26.254 30.9268 25.9239 30.931 26.4656C30.9351 26.8211 30.4984 26.728 30.4396 26.6349Z" fill="#E31522"/>
<path d="M23.553 28.7129L23.3389 28.6664C23.3557 28.3998 22.9483 27.9004 22.7426 27.7819C22.5074 27.6465 22.0791 27.765 22.1505 27.3376C22.1883 27.1006 22.3731 27.0245 22.5956 27.0668C22.8476 27.1176 22.7258 27.3334 22.8392 27.5365C22.9483 27.7312 23.3725 27.9089 23.4438 28.0697C23.5152 28.2263 23.5026 28.5267 23.553 28.7087" fill="#E31522"/>
<path d="M21.1931 26.1528C21.5626 26.0301 21.7306 26.6056 21.3778 26.7072C20.9873 26.8172 20.9159 26.2459 21.1931 26.1528Z" fill="#E31522"/>
<path d="M30.3054 33.1605C30.6414 32.8261 31.1789 33.4313 30.8261 33.7233C30.507 33.9857 30.0241 33.444 30.3054 33.1605Z" fill="#E31522"/>
<path d="M30.9057 32.4405C31.4264 32.3136 31.544 33.3503 30.9477 33.0922C30.637 32.961 30.6328 32.5082 30.9057 32.4405Z" fill="#E31522"/>
<path d="M29.6294 34.3709C30.0283 34.2524 30.3769 34.7729 29.9107 34.9506C29.5202 35.0987 29.2179 34.4936 29.6294 34.3709Z" fill="#E31522"/>
<path d="M29.9821 33.7232C30.2508 33.6343 30.7211 34.1463 30.36 34.3241C29.9359 34.5357 29.5999 33.8501 29.9821 33.7232Z" fill="#E31522"/>
<path d="M21.8272 33.6598C22.1421 33.6301 22.2681 34.0279 21.9909 34.248C21.4702 34.6627 21.2771 33.7106 21.8272 33.6598Z" fill="#E31522"/>
<path d="M21.6217 33.16L21.7015 33.452C20.9918 34.3618 20.6349 32.9738 21.6217 33.16Z" fill="#E31522"/>
<path d="M22.4826 34.3704C22.68 34.4974 22.5456 34.9925 22.1719 34.9756C21.5378 34.946 22.0417 34.0912 22.4826 34.3704Z" fill="#E31522"/>
<path d="M21.1975 32.5212C21.4453 32.7793 21.0841 33.2618 20.7902 33.1137C20.4123 32.919 20.8406 32.2461 21.1975 32.5212Z" fill="#E31522"/>
<path d="M27.1687 42.7158C27.1099 42.8216 27.1351 42.9189 26.9966 42.9359C26.6984 42.974 25.3505 42.9824 25.0817 42.9274C24.9684 42.9063 24.8676 42.8258 24.834 42.7158H27.1729H27.1687Z" fill="#E31522"/>
<path d="M30.9772 17.4431C31.1661 17.3838 31.5651 17.3923 31.6281 17.625C31.6659 17.7647 31.5861 17.8832 31.5987 17.9678C31.6365 18.2259 31.8002 18.3952 31.6239 18.738C31.4643 19.0469 30.847 18.8819 30.7462 18.5772C30.6622 18.3233 30.6496 17.5446 30.9772 17.4431ZM31.1871 17.5869L30.9604 17.7139V18.0059L31.4265 18.0397L31.4601 17.7139L31.1871 17.5869Z" fill="#E31522"/>
<path d="M20.9327 17.93H21.571C21.6801 18.3532 21.1594 18.2728 20.9327 18.5394L21.0713 18.7171C20.7521 18.8864 20.3406 18.971 20.0467 18.7171C19.6225 17.9639 20.5254 17.6126 21.109 17.5068L20.9327 17.9342V17.93Z" fill="#E31522"/>
<path d="M15.0499 11.6416C15.1801 11.8066 14.5796 12.2764 14.4452 12.3568C14.357 12.4076 14.294 12.4499 14.2688 12.3229C14.2352 12.1536 14.8861 11.7051 15.0457 11.6458" fill="#E31522"/>
<path d="M15.239 12.1532C15.7051 12.1109 14.8023 12.8007 14.7351 12.788C14.4033 12.6611 15.1718 12.1617 15.239 12.1532Z" fill="#E31522"/>
<path d="M39.4804 8.16275C40.1355 8.13313 40.1061 9.14452 39.3418 8.91178C39.0647 8.82714 39.0017 8.18391 39.4804 8.16275ZM39.4804 8.36587C39.1655 8.45051 39.3292 8.8483 39.5938 8.78059C39.9087 8.69595 39.7449 8.29817 39.4804 8.36587Z" fill="#E31522"/>
<path d="M11.7158 6.99903L11.7494 6.4235L12.2197 6.38965L12.2533 6.93132L11.7158 6.99903Z" fill="#E31522"/>
<path d="M22.7047 31.5354C22.6921 31.4888 22.4906 31.2138 22.457 31.2138C22.3394 31.3746 21.7599 31.7935 21.8187 31.9966L23.0575 33.8205L23.406 32.4537C23.217 31.6581 23.5572 30.8837 23.0533 30.1812C22.4234 29.301 21.2224 28.3404 20.6849 27.4982C20.5338 27.2655 20.5044 26.9777 20.433 26.7154C20.3238 26.6857 20.3154 26.745 20.2566 26.7873C20.1516 26.8592 19.6519 27.3755 19.5932 27.4771C19.3874 27.8495 19.5134 28.2727 19.379 28.6197C19.3496 28.6916 19.4126 28.7466 19.2656 28.7212C19.0095 28.6789 18.304 27.8283 17.9765 27.6633C17.271 27.3121 16.1582 27.2528 15.436 26.8635C14.3232 26.2668 13.4582 25.175 12.8871 24.079C12.2992 22.9491 11.9087 21.7853 11.6609 20.5285C11.6357 20.41 11.6399 20.4312 11.7575 20.4312C12.169 20.4312 13.9453 21.0363 14.4702 21.2013C15.2554 21.4468 16.0448 21.7049 16.8217 21.9758L19.4252 24.7137C19.4924 24.7264 20.1726 24.2567 20.4246 24.2355C20.5632 24.2228 20.6891 24.3032 20.8319 24.2948C22.1672 24.2059 23.0113 24.189 24.0611 23.258C24.3592 22.9956 24.7413 22.3609 24.9429 22.217C25.1697 22.0477 26.5974 22.1747 26.9669 22.1873C27.8193 23.1987 28.655 24.1043 30.0533 24.2186C30.5026 24.2567 31.0275 24.1636 31.4642 24.2271C31.7372 24.2652 32.451 24.6756 32.5896 24.6418C33.526 23.7912 34.2819 22.6909 35.2855 21.925L40.3665 20.4396C40.1397 21.3198 39.9466 22.2212 39.598 23.0591C39.0185 24.4471 37.8806 26.2583 36.4822 26.9185C35.7558 27.2613 34.5422 27.3459 33.8913 27.7352C33.5764 27.9214 33.0011 28.7001 32.6736 28.7974C32.5308 28.8143 32.5812 28.7932 32.5686 28.6916C32.5224 28.3023 32.5686 27.8749 32.3964 27.5067C32.3251 27.3586 31.6826 26.6477 31.5776 26.7238C31.4894 26.9777 31.439 27.3247 31.2921 27.5448C30.9645 28.0526 30.0029 28.8905 29.5536 29.4364C29.3478 29.6861 28.739 30.3674 28.6844 30.634C28.6088 31.0149 28.5668 32.077 28.5962 32.4748C28.6298 32.898 28.7977 33.3762 28.8775 33.7952C28.9615 33.8629 30.0911 32.1532 30.1247 32.0093C30.1667 31.8358 29.6796 31.3957 29.5452 31.2265C29.4486 31.1926 29.3016 31.4423 29.3016 31.4761V32.6187L29.1925 32.7245L29.0161 32.6187V31.4042C29.0161 31.3619 29.4864 30.8456 29.604 30.8752C29.793 30.926 30.1709 31.6793 30.4648 31.7216L32.2033 30.9726C32.4006 30.4817 32.0605 29.7792 32.6274 29.4364V31.9713C32.6274 32.149 31.8841 33.2112 31.8673 33.5286L34.1685 42.9189V43.3167L26.0011 50.8662L17.7539 43.2405L20.0761 33.6724C20.2104 33.2873 19.3706 32.2421 19.3706 32.039V29.4322C19.7359 29.7496 19.7695 30.452 19.6645 30.8921L21.5374 31.7131L22.457 30.8752C22.5242 30.9429 22.9189 31.2942 22.9189 31.328V32.6483H22.7047C22.6586 32.3267 22.7677 31.8401 22.7047 31.5396M39.0059 21.1421L35.2519 22.3228L32.7996 24.9253L33.1229 25.7124C33.2405 25.7378 33.2657 25.6743 33.3329 25.6024C33.9753 24.938 34.5128 23.7362 35.1805 23.0379L39.0017 21.1421H39.0059ZM16.5865 23.3088L12.2152 21.214C12.1774 21.2521 12.4336 22.1281 12.4797 22.2678C13.0004 23.8843 14.1048 25.7801 15.6627 26.563C15.9357 26.7027 17.6783 27.274 17.9303 27.2824C18.178 27.2909 18.241 27.0708 18.241 26.855C17.5062 26.6096 16.5739 26.3811 15.8811 26.0552C14.7599 25.5262 13.5715 23.148 13.1348 22.0011C13.9579 22.4032 14.8229 22.7375 15.6417 23.1564C15.8517 23.2622 16.175 23.3892 16.3472 23.5161C16.6873 23.7616 17.7287 25.2596 18.0101 25.6955C18.1192 25.8648 18.2284 26.0298 18.3082 26.216C18.2074 26.2287 18.115 26.2076 18.0227 26.1864C17.6951 26.1102 16.4438 25.687 16.1876 25.5347C15.8601 25.34 15.5074 24.646 15.2218 24.5783C15.1462 24.5614 14.8397 24.5233 14.9069 24.6841C15.2932 24.9719 15.5493 25.5474 15.9693 25.759C16.6285 26.0891 17.5943 26.2456 18.283 26.5799C18.4468 26.6307 18.6147 26.3599 18.6315 26.2287C18.6567 26.051 16.7797 23.7023 16.5865 23.3172M13.1348 21.286L16.7839 23.0718C17.4936 23.842 18.0227 24.938 18.6987 25.7124C18.7701 25.7928 18.7617 25.814 18.8373 25.7124C18.9591 25.5601 18.9801 25.2385 19.127 25.0692V24.9295L16.6411 22.2804C15.5787 21.9631 14.4366 21.4637 13.3616 21.2267C13.2902 21.2098 13.1138 21.1548 13.1306 21.2817M39.787 21.214L35.3863 23.3172L33.3497 26.1906L33.5218 26.5799C34.0761 26.4107 34.6346 26.2372 35.1763 26.034C35.4366 25.9367 36.0077 25.7759 36.1967 25.6363C36.457 25.4374 36.8476 24.8703 37.0911 24.6079C36.4948 24.4217 36.2933 25.2258 35.7936 25.5178C35.1973 25.8648 34.2525 25.9748 33.6184 26.288C33.5722 26.2372 33.9921 25.649 34.0551 25.5516C34.3701 25.0946 35.1511 23.9012 35.4996 23.5796C35.6802 23.4146 38.4139 22.145 38.7372 22.0562C38.8002 22.0392 38.9178 21.9334 38.859 22.1069C38.6868 22.6148 38.0569 23.7277 37.7546 24.2101C37.4816 24.646 36.5914 25.8225 36.1673 26.0383C35.4828 26.3811 34.4246 26.5673 33.6856 26.8592L33.8368 27.274C33.9165 27.3247 34.0887 27.274 34.1853 27.2528C36.8518 26.6688 38.1703 25.4881 39.2285 22.9745C39.4679 22.4032 39.6148 21.8065 39.7828 21.214M25.8247 22.5005C25.6526 22.5344 25.2536 22.4413 25.1319 22.5174C25.0941 22.5386 24.6322 23.131 24.6238 23.1818C24.5608 23.5246 24.5734 24.6079 24.7959 24.8618C24.8757 24.9507 25.514 25.3612 25.4006 25.5008C25.3838 25.522 25.2284 25.5559 25.1529 25.5093C25.0773 25.4628 24.3382 24.8068 24.3382 24.7518V23.4315L23.217 24.2271V25.5939L25.2998 27.4263L25.4006 27.786L22.9903 25.7505V24.4641C22.9357 24.3963 22.9315 24.3794 22.8433 24.3836C22.7467 24.3836 21.7641 24.5741 21.7137 24.6079C21.6214 24.6672 21.4912 25.0353 21.5332 25.1411L25.5728 28.5774L25.8247 28.6451V22.5005ZM26.1775 22.5005V28.7128L30.469 25.1411C30.3598 24.3286 29.5998 24.5868 29.0119 24.354V25.6743C28.3232 26.2753 27.6136 27.0666 26.8871 27.6083C26.7905 27.6802 26.7444 27.7437 26.6016 27.7098L26.6688 27.384L28.7138 25.5897L28.6928 24.2101L27.5926 23.4273V24.7476C27.5926 24.8111 26.7318 25.6363 26.6016 25.4966C26.547 25.0988 27.2105 24.9507 27.2944 24.6587L27.307 23.1734C27.0005 22.6994 26.8073 22.3609 26.1733 22.492M20.3658 24.8915C20.3112 25.2427 20.4036 25.704 20.3658 26.0721C20.7731 25.6828 21.0587 25.1157 21.2896 24.6079C20.9789 24.5445 20.4288 24.4852 20.3658 24.8915ZM31.6364 26.1441V25.1073C31.6364 25.0184 31.5188 24.6545 31.4264 24.6079H30.6454C30.8973 25.1623 31.2249 25.704 31.6364 26.1441ZM20.0089 26.4657V24.7857L19.4798 25.1454L18.388 27.5236L19.0851 28.0695C19.0935 27.8114 19.1564 27.5321 19.2824 27.3036C19.4042 27.0878 19.9627 26.6138 20.0047 26.4615M31.9891 24.9634C32.0143 25.4755 31.9891 26.0171 31.9891 26.5334C31.9891 26.5842 32.5644 27.092 32.6862 27.3332C32.808 27.5744 32.8709 27.7987 32.8416 28.0695C32.9255 28.1669 33.547 27.6294 33.547 27.4644C33.1397 26.8085 32.7534 25.0819 32.0227 24.7857C31.8128 24.701 31.9891 24.9507 31.9891 24.9634ZM23.6286 30.5028L25.5392 29.0386L21.3232 25.4331C21.2686 25.4331 20.7479 26.2922 20.7353 26.343C20.7059 26.4615 20.8445 27.0201 20.8991 27.147C21.0041 27.3967 22.4486 28.9751 22.7425 29.2883C22.8139 29.3645 22.9903 29.5845 23.0869 29.5676C23.3388 29.3687 23.5824 29.1613 23.8343 28.9582C23.8931 28.9117 23.9141 28.8228 23.9519 28.7889C24.2164 28.5731 24.4012 28.7889 24.2206 29.0048C24.1073 29.1444 23.217 29.6607 23.217 29.8215L23.6328 30.5028H23.6286ZM28.0083 28.7297C28.0293 28.7424 28.0755 28.899 28.1553 28.9709C28.2771 29.0767 28.8439 29.5845 28.9405 29.5422L30.9939 27.2528C31.0779 27.1089 31.2879 26.5419 31.2753 26.398C31.2543 26.1779 30.721 25.6616 30.6034 25.4331L26.3874 29.0386L28.3694 30.5028L28.7306 29.758L27.664 28.8947C27.6304 28.7382 27.8907 28.662 28.0083 28.7297ZM25.8247 29.356C25.3628 29.5337 24.9639 29.9612 24.5608 30.2616L24.5524 36.093L23.8049 36.6432C23.469 36.4612 24.1954 36.0761 24.1954 35.9661V30.5748L23.7125 30.981L23.7251 32.5637L22.5662 38.2174L24.5482 36.677C24.9261 36.5585 25.5434 36.9478 26.0053 36.9394C26.4798 36.9309 27.1433 36.5077 27.5548 36.7278L29.4402 38.2174L28.2435 32.6018C28.1217 32.2294 28.4156 31.1291 28.2435 30.8879C28.1805 30.799 27.9117 30.6763 27.8151 30.5705C27.7941 31.9882 27.8403 33.4058 27.8151 34.8235C27.8109 35.1832 27.6262 35.6614 27.8151 36.0168C27.8739 36.1269 28.3442 36.3596 28.3106 36.5374C28.2938 36.6135 28.1931 36.6601 28.0965 36.6093C28.0629 36.5924 27.5044 36.1523 27.4792 36.1226C27.2483 35.8306 27.4582 35.0478 27.4624 34.6838C27.4834 33.3508 27.3994 32.0178 27.3868 30.6763C27.3868 30.5578 27.4372 30.4478 27.4456 30.3293L26.1859 29.356V33.7401L25.8289 33.8544V29.356H25.8247ZM22.3478 37.2144C22.3772 36.5077 23.0827 34.8193 22.8769 34.2183C22.8307 34.0872 21.5962 32.204 21.4954 32.1151C21.403 32.0347 19.7905 31.2899 19.7275 31.3619L19.7821 32.0559L22.3478 37.2187V37.2144ZM32.2747 31.3576C32.1739 31.3365 32.1025 31.383 32.0101 31.4127C31.733 31.5142 30.6748 31.9501 30.4984 32.1024C30.0323 32.4918 29.5032 33.7825 29.0455 34.2818L29.0161 34.523L29.5788 37.2102L32.2159 31.9755L32.2705 31.3534L32.2747 31.3576ZM25.8247 50.1426V43.5706L24.2836 43.4098C24.0947 43.0501 23.8637 42.7115 23.6622 42.3561C23.5236 42.1106 23.4438 41.7848 23.3052 41.5732C23.1079 41.2685 22.457 40.8453 22.3352 40.5533C22.2596 40.3714 22.1421 39.1568 22.1379 38.8945C22.1295 38.5136 22.2176 38.2174 22.2512 37.8534L20.5464 34.4257L20.5086 34.5357C21.3022 37.4641 21.4744 40.968 22.352 43.8245C22.8811 45.5468 24.0065 47.3496 24.5608 49.0973C24.67 49.2073 25.7449 50.2399 25.8247 50.1426ZM26.1775 43.5748V50.2187C26.5008 49.8463 27.1349 49.4401 27.3952 49.055C28.319 47.6754 28.7558 45.2379 29.6544 43.761L31.4936 34.4722C31.3634 34.3199 31.3844 34.4511 31.3424 34.5357C31.0233 35.234 29.8307 37.3075 29.73 37.845C29.6754 38.1285 29.8643 38.3993 29.8643 38.6829C29.8643 38.9368 29.688 40.4687 29.6082 40.6464C29.4948 40.9003 28.8439 41.2431 28.6508 41.5393C28.5206 41.7425 28.4702 42.0472 28.3358 42.2926C28.2477 42.4534 27.769 43.3125 27.7018 43.3675C27.4162 43.5833 26.5554 43.4902 26.1733 43.5791M23.8385 48.3568L21.9615 43.7864L20.1558 35.0012L18.178 43.1643L20.5422 45.3564L21.4576 44.3535L21.7809 44.2858C21.9867 44.4847 20.7227 45.3141 20.7941 45.5934L23.8343 48.3568H23.8385ZM28.1637 48.289L33.8242 43.0966L31.8505 35.0055C31.7372 34.997 31.7414 35.1832 31.7204 35.2636C31.0233 38.0058 30.7294 40.9596 30.0449 43.7187L28.1679 48.289H28.1637ZM26.1775 42.0006H27.6304L29.2555 40.4941C29.3352 40.3587 29.5116 39.1018 29.5116 38.886C29.5116 38.7802 29.499 38.7548 29.436 38.6786C29.352 38.5729 28.0713 37.6419 27.9831 37.6419C27.3616 38.1454 26.442 38.8437 25.6148 38.6025C24.9975 38.4247 24.46 38.0269 23.9561 37.6461C23.6957 37.9677 22.7551 38.3993 22.5578 38.6702C22.3856 38.9114 22.6879 40.0624 22.6711 40.4221L24.4096 42.026L24.5146 41.9921H25.7533L25.6442 40.9977C25.2075 40.7057 24.8379 40.2402 24.4432 39.9228C24.2542 39.7704 23.448 39.36 23.427 39.3007C23.3934 39.2034 23.3934 38.7083 23.427 38.6109C23.469 38.4882 23.9057 38.2639 24.0191 38.1497C24.5188 38.5602 25.5518 39.1399 26.1985 39.0468C26.715 38.9706 27.496 38.4713 27.9159 38.1539L28.5038 38.5051V39.3346C27.5926 39.6308 27.0257 40.4348 26.2866 40.9934L26.1775 41.9921V42.0006ZM27.7731 42.3603C26.5596 42.4153 25.3334 42.318 24.1241 42.3603C24.3382 43.1982 24.8211 43.1897 25.5728 43.2194C26.1985 43.249 26.8199 43.177 27.4372 43.0966C27.496 43.0712 27.8529 42.4746 27.8781 42.3942C27.9411 42.1868 27.7773 42.3603 27.7731 42.3603Z" fill="#E31522"/>
<path d="M57.3018 30.0795V16.0342H59.0948L68.5513 26.5671V16.0342H70.7223V30.0795H68.9293L59.4727 19.5466V30.0795H57.3018Z" fill="white"/>
<path d="M72.7129 27.8708V18.2393L74.9007 16.0303H83.9415L86.1335 18.2393V27.8708L83.9415 30.0798H74.9007L72.7129 27.8708ZM75.6397 28.1924H83.2066L83.9625 27.4307V18.6836L83.2066 17.9219H75.6397L74.8839 18.6836V27.4307L75.6397 28.1924Z" fill="white"/>
<path d="M88.124 30.0795V16.0342H90.2152L96.409 26.3471H96.43L102.641 16.0342H104.732V30.0795H102.561V19.7455L96.5266 29.6775H96.3082L90.295 19.7455V30.0795H88.124Z" fill="white"/>
<path d="M110.023 16.0342H117.132L120.936 30.0795H118.807L117.753 26.127H109.41L108.356 30.0795H106.227L110.031 16.0342H110.023ZM117.329 24.4004L115.519 17.9216H111.635L109.825 24.4004H117.333H117.329Z" fill="white"/>
<path d="M122.427 16.0342H133.655L135.847 18.2432V27.8747L133.655 30.0837H122.427V16.0384V16.0342ZM132.916 28.1921L133.672 27.4304V18.6833L132.916 17.9216H124.594V28.1964H132.916V28.1921Z" fill="white"/>
<path d="M57.3021 34.9121H59.473V41.0736H64.0123L68.5097 34.9121H70.8192L65.9398 41.8142L71.4155 48.9574H69.1059L64.1887 42.7959H59.4688V48.9574H57.2979V34.9121H57.3021Z" fill="white"/>
<path d="M73.0908 34.9121H75.2618V48.9574H73.0908V34.9121Z" fill="white"/>
<path d="M77.252 48.9574V34.9121H79.045L88.5015 45.445V34.9121H90.6725V48.9574H88.8795L79.4229 38.4245V48.9574H77.252Z" fill="white"/>
<path d="M92.6631 37.1211L94.8509 34.9121H105.382V36.2959L104.904 36.7995H95.5857L94.8299 37.5612V46.3083L95.5857 47.0701H103.77V42.7959H99.7303V41.0694H105.781V48.9532H94.8509L92.6631 46.7442V37.1126V37.1211Z" fill="white"/>
<path d="M107.771 34.9121H119L121.192 37.1211V46.7527L119 48.9617H107.771V34.9163V34.9121ZM118.265 47.0743L119.021 46.3126V37.5654L118.265 36.8037H109.942V47.0785H118.265V47.0743Z" fill="white"/>
<path d="M122.985 46.7527V37.1211L125.173 34.9121H134.214L136.406 37.1211V46.7527L134.214 48.9617H125.173L122.985 46.7527ZM125.912 47.0743H133.479L134.235 46.3126V37.5654L133.479 36.8037H125.912L125.156 37.5654V46.3126L125.912 47.0743Z" fill="white"/>
<path d="M138.393 48.9574V34.9121H140.484L146.678 45.225H146.699L152.909 34.9121H155V48.9574H152.829V38.6234L146.795 48.5554H146.577L140.564 38.6234V48.9574H138.393Z" fill="white"/>
</g>
<defs>
<clipPath id="clip0_371_927">
<rect width="155" height="62" fill="white"/>
</clipPath>
</defs>
</svg>