<svg width="228" height="274" viewBox="0 0 228 274" fill="none" xmlns="http://www.w3.org/2000/svg">
<g clip-path="url(#clip0_375_933)">
<path d="M195.903 171.739C196.276 172.057 196.313 177.33 196.183 178.191C195.138 185.84 173.28 203.831 166.752 208.974C150.732 221.654 133.741 233.155 116.397 243.928C95.8439 231.21 75.8881 217.446 57.387 201.867L36.4987 217.483C30.5865 212.378 24.8609 206.356 20.105 200.128C19.2658 199.025 16.6547 194.611 16.002 194.125C15.4798 193.751 12.5517 193.713 11.3394 193.414C-3.28244 189.954 -4.0098 168.372 10.3696 163.585C27.2668 157.955 38.7367 180.398 24.6557 190.702L24.5998 191.114C27.8636 196.612 32.3956 201.194 36.8903 205.664L57.76 190.366C62.348 194.087 66.7681 197.996 71.3747 201.68C85.7168 213.107 100.898 223.468 116.378 233.268C132.772 222.907 149.165 211.742 164.216 199.492C167.498 196.818 187.044 179.818 187.044 176.938V171.72H195.866L195.903 171.739ZM13.8758 171.813C10.1458 172.468 7.94505 176.9 9.00811 180.323C10.3509 184.68 15.573 186.476 19.2844 183.857C25.1033 179.762 21.6717 170.448 13.8758 171.795" fill="#E31522"/>
<path d="M195.903 152.157H221.398V181.987C221.398 182.828 220.092 185.821 220.204 186.363C220.26 186.644 222.591 189.542 223.02 190.459C231.077 207.365 208.902 221.391 197.152 207.87C187.23 196.443 197.507 178.901 212.24 182.155C212.091 181.762 212.558 181.22 212.558 181.052V161.321H187.063V89.9739L156.998 74.8255C156.513 74.1522 162.575 69.271 163.153 68.3359L195.884 84.4382V152.157H195.903ZM208.734 190.758C206.664 190.833 203.568 192.198 202.766 194.236C200.882 199.024 204.706 204.017 209.238 205.439C213.546 203.7 217.034 198.482 214.963 193.825C214.143 191.974 210.655 190.683 208.753 190.758" fill="#E31522"/>
<path d="M43.5481 224.122C43.4176 223.599 43.716 223.487 44.0144 223.187C44.5739 222.626 50.2622 218.549 50.6725 218.512L51.3253 218.68C71.7847 235.4 93.6988 250.342 116.434 263.808C141.182 248.715 165.223 232.276 187.211 213.332C187.678 213.051 187.957 213.332 188.349 213.593C189.021 214.023 194.261 218.287 194.336 218.68C194.317 219.223 193.776 219.559 193.422 219.896C189.673 223.505 184.488 227.489 180.348 230.78C160.336 246.733 138.515 261.133 116.434 274.038L115.445 273.794C94.1091 260.965 73.0529 247.481 53.5074 232.033C50.2063 229.415 46.9984 226.516 43.5854 224.141" fill="#E31522"/>
<path d="M74.713 75.7614L45.4879 90.8164L45.5998 177.088L50.4862 183.259L43.6975 188.776C42.9888 188.776 36.5171 180.23 36.6104 178.528L36.6663 84.8131L67.7004 69.1784C67.9615 69.0849 68.1667 69.1784 68.3905 69.2719C68.577 69.3654 71.1134 71.7031 71.5611 72.1146C72.046 72.5634 75.0114 75.3313 74.713 75.7427" fill="#E31522"/>
<path d="M11.1153 68.1868L52.3512 50.6445C52.948 51.4674 53.2464 52.4586 53.7872 53.3189C54.3094 54.1231 57.0883 57.5642 56.734 58.0691L19.9183 74.3397V152.476H11.0967V68.1868H11.1153Z" fill="#E31522"/>
<path d="M121.302 58.4054L95.9186 67.5506L94.9861 67.2513L88.5518 60.7618L112.424 52.346L112.35 24.5738L116.639 22.7598L143.869 34.6541C144.969 34.8411 145.23 33.5507 145.864 33.0083C152.914 26.8368 163.377 27.0612 169.084 34.8037C167.592 37.983 165.839 41.0875 163.302 43.5375C160.99 31.9985 144.521 39.0677 151.683 48.8675L154.965 50.9434L147.524 56.7596C143.626 54.6837 141.724 50.0644 141.127 45.8939C141.015 45.0336 141.425 43.631 140.81 43.0512L121.283 34.6915V58.368L121.302 58.4054Z" fill="#E31522"/>
<path d="M221.416 142.994H212.595V73.5545L174.511 56.8164L178.931 49.2422L221.416 68.0375V142.994Z" fill="#E31522"/>
<path d="M103.043 28.7256V38.5066L75.4593 50.5132C74.1351 50.588 68.596 45.3889 67.7754 43.874L103.043 28.7256Z" fill="#E31522"/>
<path d="M23.1824 158.367C21.5972 156.908 22.4364 153.523 24.488 152.794L24.7118 127.771L31.5751 121.075L31.631 81.2033L64.3996 65.4189L65.2575 66.167L32.8806 82.6246L32.8247 122.029C31.8735 124.124 26.4836 126.91 26.2038 128.968V152.345C26.3716 153.186 27.7145 153.504 28.2367 154.421C30.1017 157.656 25.6629 160.686 23.1638 158.404M25.1967 154.103C22.9959 154.439 23.4249 158.199 25.7375 157.843C27.9383 157.525 27.5466 153.748 25.1967 154.103Z" fill="#E31522"/>
<path d="M7.3484 87.1315V158.161H19.9374L19.9001 159.377C19.5084 159.863 13.4097 159.433 12.2348 159.414C11.6566 159.414 11.0039 159.751 10.3511 159.751C8.98962 159.751 7.29245 159.096 5.78177 159.414V87.1315C5.78177 87.038 4.73735 86.9258 4.25245 85.9907C2.85367 83.2789 5.96827 80.5672 8.29956 82.2503C10.0154 83.4846 9.51183 86.7762 7.36705 87.1315M7.5722 83.4098C6.15478 81.9885 4.2711 84.7938 5.76312 85.7102C7.2738 86.6265 8.76582 84.6254 7.5722 83.4098Z" fill="#E31522"/>
<path d="M55.4287 206.206C57.5735 205.757 59.5318 207.047 59.7929 209.292C59.9048 210.227 59.2707 211.012 59.9234 211.667L102.26 242.02C104.031 240.655 106.642 240.972 107.612 243.086C110.093 248.378 101.98 250.735 101.029 245.554C100.861 244.638 101.327 243.591 101.01 243.086C100.879 242.88 98.5855 241.29 98.1006 240.935C85.12 231.21 71.5799 222.121 58.506 212.583C53.545 216.136 50.1134 207.328 55.4287 206.225M55.4101 207.777C53.7875 208.263 53.7875 211.274 55.4101 211.742C59.2707 212.882 59.4012 206.599 55.4101 207.777ZM103.901 242.824C101.42 243.385 102.092 247.761 105.337 246.789C107.258 246.209 107.053 242.113 103.901 242.824Z" fill="#E31522"/>
<path d="M26.278 106.338C26.278 106.338 27.2665 106.693 27.6395 107.011C31.1644 109.966 27.7141 115.072 23.9281 113.258C20.7202 111.724 21.4662 107.273 24.6554 106.17L24.8046 77.6495L52.1646 64.0533C55.3911 57.5638 60.1283 66.9708 52.892 65.4186L26.3713 78.6033L26.2594 106.338H26.278ZM25.1963 107.703C22.6412 108.115 22.7531 112.36 25.7372 112.061C28.7772 111.762 28.0498 107.254 25.1963 107.703Z" fill="#E31522"/>
<path d="M166.883 215.22C166.566 212.471 167.461 209.217 170.855 209.61C175.052 210.114 174.809 216.941 170.259 216.885C169.27 216.885 168.58 215.856 167.61 216.398C157.222 224.234 146.535 231.659 136.147 239.476C135.084 240.28 130.888 243.123 130.403 243.853C129.881 244.638 131.28 247.387 128.668 248.715C122.178 252.007 121.208 239.084 129.079 242.693L166.883 215.239V215.22ZM171.919 211.573C170.669 210.32 167.312 211.685 168.375 214.023C169.867 217.315 174.138 213.817 171.919 211.573ZM126.58 243.441C123.95 243.909 124.491 247.967 127.102 247.799C129.788 247.63 129.582 242.899 126.58 243.441Z" fill="#E31522"/>
<path d="M207.559 85.2424V142.694L206.272 142.563L205.955 141.61V85.4481C200.379 83.4283 204.407 75.4614 208.958 78.9212C211.438 80.8101 210.506 84.6253 207.541 85.2424M206.216 79.6132C203.885 80.3051 204.445 84.139 207.018 83.9146C209.965 83.6715 209.238 78.7155 206.216 79.6132Z" fill="#E31522"/>
<path d="M188.872 206.188L199.223 214.024C199.596 214.603 198.831 215.557 197.955 214.996C195.232 213.294 192.434 209.928 189.711 208.394C189.376 208.207 189.096 207.945 188.686 208.189L137.341 245.779L136.11 245.125L188.891 206.206L188.872 206.188Z" fill="#E31522"/>
<path d="M200.006 118.383C199.745 117.953 197.712 117.747 197.936 115.521C198.29 111.931 203.326 112.155 203.494 115.708C203.587 117.728 201.573 118.327 201.573 118.532V146.94L202.039 147.408H222.182C222.405 147.408 223.189 145.089 225.315 145.182C228.448 145.313 228.989 150.064 225.93 150.55C223.207 150.98 222.629 148.68 222.163 148.68H199.969V118.383H200.006ZM201.815 116.718C203.196 115.334 200.529 113.258 199.521 114.904C198.608 116.419 200.603 117.915 201.815 116.718ZM225.091 146.548C222.853 146.735 224.14 150.681 226.154 148.848C227.198 147.894 226.21 146.435 225.091 146.548Z" fill="#E31522"/>
<path d="M31.4818 135.813C36.3122 134.691 37.9348 141.554 33.2909 142.994V189.73C35.5849 190.59 36.0325 193.901 33.7012 194.854C30.1017 196.332 28.218 191.264 31.7429 189.73V143.013C28.3486 142.097 28.0874 136.617 31.5005 135.832M34.0182 141.012C36.2376 139.217 33.1417 135.607 31.0528 137.72C29.0759 139.721 31.8362 142.789 34.0182 141.012ZM32.4143 191.058C30.6612 191.208 30.9409 193.994 32.6568 193.844C34.2607 193.695 34.1861 190.908 32.4143 191.058Z" fill="#E31522"/>
<path d="M201.255 102.916H199.689V80.025L167.256 64.3903L168.095 63.1934L201.255 79.3891V102.916Z" fill="#E31522"/>
<path d="M108.396 27.1553V46.4181L93.1774 53.0199C92.9163 54.6656 92.0211 56.6293 90.0628 56.461C86.2022 56.1244 87.0042 50.4951 90.268 50.8317C90.9953 50.9066 91.4802 51.505 92.0211 51.6546C93.2147 51.9539 104.535 46.1563 106.662 45.483L107.109 27.3049L108.396 27.174V27.1553ZM89.7271 52.4588C88.5708 52.8141 88.5894 54.5347 89.7271 54.8713C92.1143 55.582 92.1143 51.7481 89.7271 52.4588Z" fill="#E31522"/>
<path d="M91.3862 243.068L90.2672 242.787L64.2127 224.534C58.8788 227.003 58.543 218.381 63.4667 219.466C66.0032 220.027 64.8096 222.327 65.5556 223.375L91.666 242.02L91.3862 243.086V243.068ZM62.6461 220.738C61.21 220.85 60.9303 223.3 62.2918 223.524C64.5298 223.898 64.6044 220.569 62.6461 220.738Z" fill="#E31522"/>
<path d="M202.524 166.371C203.4 162.294 209.238 162.649 209.48 166.838C209.629 169.531 208.081 170.71 205.508 170.504C202.934 170.298 203.27 168.185 202.057 167.96L177.476 167.661L177.346 166.371H202.524ZM205.582 164.837C203.12 165.211 203.419 169.363 206.123 169.195C209.051 169.008 208.604 164.37 205.582 164.837Z" fill="#E31522"/>
<path d="M55.3911 185.016C55.8014 184.942 56.7339 185.783 56.305 186.269L36.4983 201.044L35.6777 200.296L55.3911 185.016Z" fill="#E31522"/>
<path d="M158.136 43.2383L159.237 42.3032C161.288 44.884 160.374 48.3252 156.887 48.6057C156.756 48.5122 158.714 46.8851 158.08 45.8378C158.024 45.7256 157.484 45.6134 157.222 45.2768C156.943 44.9214 156.775 43.2944 156.178 44.6035C155.842 45.3142 156.253 46.0061 155.003 45.7817C154.928 46.9412 155.6 47.7828 156.253 48.6057C153.38 48.3065 152.709 46.455 153.175 43.7806C153.194 43.631 153.679 42.3406 153.735 42.2845C154.518 41.5364 154.164 43.4253 154.667 43.2383C155.04 41.7795 156.141 40.7509 155.619 39.1426C157.297 39.6662 158.453 41.4429 158.136 43.2383Z" fill="#E31522"/>
<path d="M198.402 179.574C198.607 179.219 197.059 176.245 199.577 174.618C203.736 171.925 207.373 178.228 203.587 180.528C201.199 181.968 200.192 180.379 199.297 180.622C198.532 180.809 197.6 182.828 196.444 182.735L195.623 182.006C195.866 181.295 198.327 179.761 198.421 179.593M203.065 179.219C204.78 177.611 202.747 174.431 200.453 175.815C197.563 177.555 201.032 181.164 203.065 179.219Z" fill="#E31522"/>
<path d="M50.468 211.816L50.7477 212.882L38.4945 222.084L38.0655 222.215C37.4128 221.784 36.8346 221.242 37.7112 220.662L50.4493 211.816H50.468Z" fill="#E31522"/>
<path d="M11.7499 177.573C11.8245 177.349 12.5332 177.199 12.6264 177.031C12.9435 176.47 12.5145 175.03 13.4284 174.039C14.7153 172.636 17.8299 173.291 18.2775 175.123C18.4267 175.759 18.2215 176.657 18.4267 177.05C18.5199 177.199 19.3032 177.386 19.3032 177.573V182.305C19.3032 182.305 18.3148 183.09 18.2029 183.09H12.5332C12.4213 183.09 12.0483 182.679 11.7499 182.773C11.7499 181.707 11.5261 178.228 11.7499 177.555M17.1025 177.087L16.6549 174.843C14.6593 173.852 13.7454 175.123 13.9506 177.087H17.1025ZM15.8343 181.837C16.9533 177.125 13.82 177.031 14.8831 181.837H15.8343Z" fill="#E31522"/>
<path d="M204.762 194.498L208.977 192.591L213.099 194.442C213.994 197.191 212.371 201.904 209.686 203.064C207.895 203.849 205.023 200.034 204.762 198.388C204.687 197.883 204.65 194.704 204.781 194.498" fill="#E31522"/>
<path d="M180.796 26.2016V34.2434L180.162 34.58C178.055 32.9156 175.537 32.4854 172.926 32.9717L174.175 26.6505C176.227 25.6219 178.595 25.7154 180.796 26.1829M179.547 32.5228V27.623C179.136 26.7253 175.388 27.2302 175.182 27.492L174.511 31.5503C176.246 31.4568 178.017 31.6064 179.547 32.5041" fill="#E31522"/>
<path d="M108.078 92.4993C108.078 93.902 109.29 95.3046 108.955 96.6698C108.638 97.9789 104.87 101.551 103.639 102.411C99.9279 104.992 96.4403 104.955 92.0575 105.086L90.752 100.391C95.3213 100.186 100.021 98.5213 103.751 95.903C105.075 94.9867 106.176 93.5466 107.276 92.7985C107.537 92.6115 107.593 92.3684 108.059 92.4806" fill="#E31522"/>
<path d="M139.878 100.391L138.423 105.085C132.343 105.328 127.643 103.813 123.671 99.138C121.414 96.4824 121.134 95.7343 123.055 92.5176C127.363 97.3052 133.499 99.9609 139.896 100.41" fill="#E31522"/>
<path d="M140.493 99.4374C134.226 98.5771 128.016 95.9214 123.651 91.2273L127.587 82.8489C128.09 82.531 134.953 86.1404 135.998 86.7576C136.837 87.2438 142.339 90.872 142.563 91.2273C143.16 92.1998 140.437 97.8477 140.493 99.4187M131.373 85.8786L128.221 84.7378C127.661 86.1217 124.957 89.9743 125.554 91.2273C125.684 91.5078 127.698 93.0788 128.127 93.3967C129.675 94.5001 134.86 97.1558 136.613 97.2306C138.628 97.3241 137.639 92.5551 139.877 92.817C140.455 93.3593 137.285 97.7916 139.56 97.8664L140.996 91.8819C139.933 91.0777 132.678 85.916 132.007 86.5144L130.794 89.8434C132.585 91.0964 134.524 92.1063 136.707 92.2372C136.968 93.3032 136.651 94.5001 135.364 94.07C134.953 93.9204 134.786 93.191 134.338 92.8918C133.256 92.1624 131.708 91.7697 130.589 90.9842L129.657 92.2185L128.873 91.7322L131.391 85.8973L131.373 85.8786Z" fill="#E31522"/>
<path d="M87.9736 91.2836C92.7108 88.0482 97.5226 84.8876 102.894 82.793C103.603 82.8491 106.829 89.8997 107.165 91.0779C102.987 95.6411 96.8325 98.5212 90.6406 99.4002L87.9923 91.2836H87.9736ZM93.3076 97.2121C97.8396 96.7819 102.092 93.9205 105.412 90.9095C105.58 90.4794 103.174 85.0372 102.726 84.738C102.073 84.3078 100.208 85.4673 99.6487 86.0097L101.775 92.1813C100.674 92.4244 100.656 91.5454 100.059 90.947L94.8369 93.9205C94.1282 93.6587 93.662 93.2847 94.0723 92.4805C94.5385 91.5641 95.2846 92.2 95.8254 92.013C97.2615 91.508 98.4365 90.3298 99.9098 89.9371L98.4738 86.4585L89.6522 91.8446L91.2561 97.5113L92.3565 97.6796C92.17 96.1835 91.3493 94.7808 90.995 93.3408C90.9017 92.9667 90.6033 92.2748 91.2561 92.1439C92.17 91.9568 93.0838 96.3892 93.3263 97.1746" fill="#E31522"/>
<path d="M94.538 71.0298C89.3905 72.5821 85.1942 75.8923 82.4153 80.5116L75.7012 72.4137C77.4916 67.8131 81.632 64.4468 86.2572 62.8945C89.4837 65.1013 91.8896 68.2245 94.538 71.0298ZM84.7839 68.1871C85.362 67.5326 88.3088 71.8714 88.7564 71.9462L92.0202 70.2443L86.1453 64.4468C85.0263 64.1662 79.5991 67.9066 79.7669 68.9352C80.2332 69.8329 81.0165 69.7394 81.9117 69.8142L82.6204 72.2641C83.9633 72.2641 84.8398 72.1706 85.1009 73.7229C83.2545 75.2751 82.378 70.9363 80.1026 71.647L79.282 69.4776C74.9365 72.2641 81.0165 75.1816 82.4339 77.9869L87.6001 72.7317C87.1525 70.8802 84.5787 70.1882 84.8025 68.2058" fill="#E31522"/>
<path d="M144.447 62.9502C149.09 64.278 153.119 67.7753 155.226 72.1515L148.512 80.1745C146.834 78.8841 145.808 76.9578 144.129 75.4617C141.854 73.4419 139.113 72.2263 136.427 70.8798C136.39 70.3187 143.794 63.0063 144.447 62.9502ZM148.065 78.2857L153.268 72.2824C153.753 71.2164 150.713 68.0184 149.781 67.2516C149.072 66.6719 145.472 64.3715 144.801 64.465C143.831 64.8952 138.385 69.9821 138.926 70.7114L141.873 71.9271L146.013 67.8688C147.71 68.5233 148.531 70.1504 150.452 70.0382C151.328 71.0855 151.142 72.5442 149.501 72.3011C148.531 72.1515 147.692 69.3836 146.013 69.2153L142.712 72.4694L146.33 75.7609L148.065 78.2857Z" fill="#E31522"/>
<path d="M128.538 81.7646C128.221 81.428 131.596 76.6029 132.062 75.9858C132.678 75.1629 134.487 72.3763 135.308 72.3015C136.669 72.1706 140.325 74.3587 141.537 75.2003C143.831 76.8087 146.05 79.0716 147.691 81.3532L143.178 90.2927C138.627 86.9637 134.077 83.2608 128.538 81.7646ZM140.809 86.4962C141.015 85.7294 142.264 82.5501 143.178 82.7184C143.887 82.8493 143.439 83.4291 143.271 83.747C142.73 84.8317 141.929 85.8603 141.5 87.0385L141.91 87.7866L142.712 87.9362L146.032 81.428C144.931 79.3147 137.695 73.3862 135.699 73.9286C135.047 74.1156 130.757 80.2124 130.794 80.6799L140.828 86.5149L140.809 86.4962Z" fill="#E31522"/>
<path d="M155.935 71.3471C154.052 67.0831 150.471 63.3615 145.864 62.1832C145.734 61.697 145.995 61.6596 146.181 61.3978C146.629 60.7619 153.324 55.6376 153.921 55.5628C157.39 55.0953 162.892 60.6684 163.731 63.9412L155.954 71.3471H155.935ZM153.959 57.1899C153.53 57.2834 148.382 61.0424 148.382 61.3978L151.049 63.0622C151.776 62.6695 154.257 59.3967 154.984 59.8268C155.954 60.6684 153.921 61.2294 154.07 61.9962L157.166 65.2316L155.357 67.4384L156.402 69.1216C157.26 67.8499 162.071 64.7267 161.866 63.3615C161.493 60.8741 156.495 56.6475 153.959 57.1899ZM152.989 62.8378L152.187 63.8851L154.798 66.2789L155.6 65.2503L152.989 62.8565V62.8378Z" fill="#E31522"/>
<path d="M56.7712 25.5654C54.4399 25.1726 52.5562 24.6116 50.1689 25.2474C50.7844 15.3168 56.939 6.78875 63.7091 0C59.8858 7.98567 56.2676 16.4763 56.7898 25.5654M55.1859 23.9944C55.4283 18.3465 56.6406 13.1474 58.6548 7.89216L56.51 10.9406C54.3653 14.924 52.1832 19.0758 51.7169 23.6578L55.1859 23.9757V23.9944Z" fill="#E31522"/>
<path d="M180.479 25.5652C178.372 24.3496 176.339 25.1725 174.194 25.5652C174.492 16.7006 170.968 8.5653 167.592 0.635742C174.362 7.05046 180.162 15.9525 180.498 25.5652M179.23 23.6764C177.943 18.0097 175.779 12.3805 171.993 7.89204C173.97 13.0163 175.63 18.4399 175.462 23.9943L179.23 23.6764Z" fill="#E31522"/>
<path d="M75.0115 71.347C74.5266 71.478 74.4893 71.2161 74.2282 71.0291C73.0532 70.2249 69.4537 66.5594 68.2601 65.3438C66.3764 63.4175 67.7566 61.8465 69.2299 60.0138C70.6287 58.2745 74.508 55.4692 76.7647 55.6001C77.2869 55.6188 85.0827 61.2107 85.0827 61.7343C80.7558 63.6419 76.6528 66.7838 75.0115 71.3657M82.2665 61.8652C82.7141 61.2668 78.8162 58.4802 78.2753 58.1436C77.865 57.8817 77.3428 57.4142 76.9325 57.2833C74.1163 56.4043 69.0994 61.0423 68.7637 63.885L74.2469 69.1402L75.9813 66.4472L74.0977 64.2404C75.198 62.7442 76.1305 65.2128 76.8206 65.3064L78.1821 64.7079C78.3499 64.4835 76.5968 62.258 76.317 62.0148C75.4405 61.2294 74.3028 61.7156 74.7131 59.6771C77.1004 59.3779 76.0559 60.2756 76.5782 61.0985C76.7274 61.3416 78.8535 63.3801 79.04 63.4362L82.2851 61.8839L82.2665 61.8652Z" fill="#E31522"/>
<path d="M102.092 81.7639C96.5343 83.2975 92.0955 87.0939 87.4516 90.2919L83.1807 81.3151C85.2322 78.1919 88.2722 75.3305 91.6293 73.6473C92.9161 73.0115 94.8931 71.8146 96.124 72.7496C96.9446 73.3855 101.495 79.8002 101.924 80.8288C102.055 81.1468 102.167 81.4086 102.092 81.7639ZM87.9365 88.0664L99.8913 80.6231C99.9846 80.2304 95.6577 74.0214 95.2847 73.8904C93.1026 73.1798 85.9223 79.1644 84.8219 81.3338L87.9365 88.0477V88.0664Z" fill="#E31522"/>
<path d="M164.439 63.1373C163.041 58.8172 159.665 55.7501 155.301 54.6093L162.444 48.6621C166.566 49.1484 170.128 51.4487 171.657 55.4135C171.62 56.5917 165.614 61.9965 164.421 63.1373M168.207 52.4025C166.827 51.7292 164.383 49.9525 162.78 50.2331C162.518 50.2892 158.732 53.1692 158.453 53.4872C158.21 53.7677 158.042 53.8425 158.154 54.2726L160.467 55.1703C161.586 54.3101 162.463 53.1131 163.6 52.2716C163.88 52.0658 163.824 51.5796 164.607 51.7479C165.204 51.8788 164.962 52.5895 164.663 52.9074C163.955 53.6742 162.22 55.0394 161.306 55.5257L162.873 57.5829L165.241 60.8931L170.053 55.3199L169.009 53.6555C168.3 54.1791 165.614 57.6764 164.756 56.7974L164.812 55.5818C165.67 55.7314 168.524 52.8139 168.225 52.3838" fill="#E31522"/>
<path d="M67.1598 47.9889C63.3552 48.4564 59.9608 50.551 58.3755 54.1044L57.7228 54.2914L53.3213 46.2309C53.3213 45.4454 56.3986 42.9207 57.2006 42.5466C58.4688 41.9669 61.7139 41.1814 62.777 42.1165L67.1785 47.9702L67.1598 47.9889ZM64.9591 47.0351C64.2131 46.4553 62.1242 43.1451 61.602 42.9768C61.0985 42.8085 58.4501 43.276 58.3569 43.7436L59.6624 46.3805L62.2734 45.4454L63.4484 47.3156L64.9777 47.0351H64.9591ZM62.7397 47.9702L61.9191 46.7359L59.4759 47.6335C58.9723 47.4278 56.9767 42.6028 56.4359 44.6787C56.2867 45.2397 59.0096 49.7842 59.4572 49.8591L62.721 47.9702H62.7397ZM55.8204 45.7821L55.0371 46.1C54.7387 46.5488 56.8648 50.177 57.3311 50.7567C58.1704 51.7666 58.9164 51.4861 58.618 50.4201C58.3569 49.485 55.9696 47.1473 55.8204 45.7821Z" fill="#E31522"/>
<path d="M168.281 41.7424C168.617 41.5554 170.352 41.6302 170.874 41.705C172.795 41.9855 177.812 44.398 177.215 46.7358C176.972 47.7082 173 54.31 172.478 54.31C171.191 52.0471 169.605 50.0273 167.181 48.8865C166.584 48.6059 163.507 47.8579 163.507 47.5212C164.999 46.9415 167.629 42.1351 168.281 41.7424ZM172.291 43.5752C168.617 41.7798 168.076 44.5476 166.006 46.8854C167.796 47.9514 169.885 48.4376 171.191 50.1956L174.361 44.8282L173.559 44.3419L171.471 47.6895L167.908 46.2495C168.71 45.3518 169.997 46.9228 170.986 46.343C171.209 46.2121 172.552 44.0801 172.31 43.5752M175.76 45.782C175.051 44.9591 172.72 50.8689 171.676 50.5322L172.459 51.7665C172.869 51.9536 173.653 50.4013 173.876 50.046C174.287 49.3914 176.208 46.3056 175.76 45.782Z" fill="#E31522"/>
<path d="M66.2088 63.1376C65.1084 62.1464 58.9351 56.4236 59.0284 55.4699C59.905 52.197 64.9405 48.3071 68.2603 48.9429C69.4353 49.1673 73.9673 53.5997 75.3474 54.46C71.1511 56.2179 67.6635 58.593 66.2274 63.1376M72.8296 54.2916L67.6635 50.2146C65.6492 50.1211 60.651 53.3565 60.8561 55.395C60.9494 56.1992 65.2389 60.7438 65.7425 60.6128C67.5516 58.0507 69.715 55.2454 72.8296 54.2916Z" fill="#E31522"/>
<path d="M79.1146 84.2892L78.9281 85.2617L77.548 85.8602C78.7229 86.0285 79.3197 87.5433 80.2523 88.0296C81.3153 88.5719 82.9193 88.1044 82.9193 89.8062C82.9193 90.76 82.2851 91.4146 81.3153 91.0967C80.0098 90.6852 80.4574 88.6654 78.8162 88.3849L78.667 91.5455C80.7185 94.0328 88.1973 99.5125 89.1112 102.206C89.3909 103.047 90.0623 106.451 88.5703 105.217L88.104 102.897L77.2123 91.9382C76.317 90.5356 79.1892 86.7017 75.9813 86.4773L75.3845 90.7039L74.0977 90.8909L75.0488 84.2705H79.1332L79.1146 84.2892Z" fill="#E31522"/>
<path d="M155.263 84.3262L156.569 90.9092L155.469 90.5913L154.536 86.4769C154.126 85.8223 153.156 87.1501 153.119 87.599C153.007 88.7772 154.238 90.5726 153.585 91.8443L143.346 101.794C142.618 102.785 142.301 104.038 142.413 105.253C140.287 106.095 141.481 102.43 142.096 101.476C143.327 99.6616 152.149 92.237 152.447 91.0027C152.615 90.292 151.888 89.1512 151.869 88.3845C150.657 88.7024 150.806 90.1798 150.302 90.7596C149.258 91.9378 147.188 90.2359 148.064 88.9268C148.624 88.291 149.575 88.5528 150.284 88.2161C150.955 87.8982 152.242 86.1402 153.137 85.7101L151.552 85.4109L151.589 84.3262H155.301H155.263Z" fill="#E31522"/>
<path d="M163.097 171.477C164.29 171.234 165.316 171.945 165.391 173.179C165.447 174.282 164.328 174.376 164.141 175.367C163.712 177.649 164.701 186.289 163.973 187.505L149.184 197.921C148.549 197.473 148.494 196.706 149.034 196.182L162.724 186.551C163.022 185.934 163.003 175.591 162.724 174.881C162.425 174.133 161.269 173.441 162.108 172.019C162.369 171.739 162.761 171.533 163.134 171.458" fill="#E31522"/>
<path d="M75.3477 163.529V178.209C76.3361 179.799 79.6932 180.678 78.798 182.791L74.0794 178.845V163.846C72.8672 163.903 71.2446 166.914 70.1442 166.689C69.8085 166.614 69.6034 166.165 69.8272 165.735C70.1069 165.193 74.3778 160.948 74.8254 161.022C75.7766 162.313 78.9845 164.538 79.5999 165.735C79.8797 166.296 79.6559 166.334 79.2642 166.689C78.2011 166.97 76.3734 163.959 75.329 163.529" fill="#E31522"/>
<path d="M156.868 163.528V178.845C156.103 179.443 153.026 182.623 152.317 182.473C151.982 182.398 151.777 181.949 151.982 181.519C152.448 180.622 154.761 178.957 155.618 178.209V163.846C154.332 163.865 152.877 166.988 151.683 166.689L151.366 165.735L156.141 161.06C156.644 161.06 160.747 165.193 161.027 165.847C161.195 166.24 161.307 166.577 160.803 166.689C159.684 166.932 157.931 163.977 156.868 163.528Z" fill="#E31522"/>
<path d="M61.4897 40.7135C57.9275 40.4517 54.9062 42.0039 52.836 44.8092C52.3697 44.8092 50.0944 36.4682 50.3182 35.9633C51.9035 34.4297 56.4728 33.0832 58.3378 34.2427C58.86 34.5606 60.7251 39.8158 61.4897 40.7135ZM59.289 39.4605C57.7597 36.3747 57.685 33.7751 53.4328 35.664L54.8689 40.7322L59.2703 39.4605H59.289ZM52.6681 36.2999C52.1459 36.2251 51.7916 36.4869 51.7729 37.0293C51.7729 37.7025 52.6868 40.3582 52.9479 41.2372C53.0784 41.6486 52.7241 42.1161 53.4328 41.9665C53.6752 41.9104 54.4212 41.6299 54.2347 41.1998L52.6495 36.2999H52.6681Z" fill="#E31522"/>
<path d="M68.1666 174.638C67.5884 175.573 68.409 184.961 68.1666 186.812L78.9838 194.443L78.8159 195.397L77.6969 195.097L67.0103 187.504C66.171 185.784 67.346 177.948 66.8424 175.348C66.6559 174.357 65.5369 174.282 65.5928 173.16C65.7047 171.028 68.9313 170.71 69.0991 173.123C69.1924 174.619 68.409 174.282 68.2039 174.619" fill="#E31522"/>
<path d="M97.6906 135.102L89.8016 134.017L86.9854 128.163C88.5893 128.406 90.4916 127.359 92.0209 128.014C92.4499 128.201 94.9863 131.174 95.4712 131.81C95.8069 132.221 97.9704 134.84 97.6906 135.12" fill="#E31522"/>
<path d="M143.645 128.164L140.81 133.999L132.939 135.102C134.152 133.475 135.345 131.717 136.725 130.221C139.281 127.453 139.728 127.509 143.645 128.164Z" fill="#E31522"/>
<path d="M180.46 35.702L178.278 44.8284C177.905 45.1651 176.413 43.0144 175.91 42.6216C174.045 41.1255 171.49 40.5457 169.14 40.7141L172.366 34.1684C175.35 33.1398 177.868 34.3367 180.46 35.702ZM178.875 36.3378C177.066 35.515 175.294 34.7108 173.317 35.4214L171.676 39.779C174.063 39.3862 175.63 41.2377 177.663 41.9858L178.894 36.3378H178.875Z" fill="#E31522"/>
<path d="M49.8341 26.669C50.2257 25.4721 55.4105 25.7526 56.4549 26.669L58.0216 32.9902C56.0446 32.9154 54.3661 32.5601 52.4451 33.4016C51.6805 33.7383 51.1396 34.505 50.3003 34.7295C50.1698 34.7295 49.8154 33.9814 49.8154 33.9253V26.669H49.8341ZM51.1023 27.6228V32.5227L56.1379 31.4193L55.1867 27.6415L51.6245 27.2113L51.1023 27.6415V27.6228Z" fill="#E31522"/>
<path d="M111.846 145.837C112.574 147.202 111.697 148.567 112.089 149.839C112.947 152.663 118.337 152.588 118.766 149.764C118.859 149.091 118.393 146.211 119.568 146.472C120.015 146.79 120.052 147.015 120.034 147.538C119.996 148.137 119.717 150.886 119.568 151.204C118.542 153.504 112.984 153.392 111.548 151.372C110.634 150.101 110.597 144.939 111.865 145.837" fill="#E31522"/>
<path d="M120.033 153.43C119.716 157.002 111.79 156.908 110.913 153.897C110.484 152.438 113.002 154.626 113.282 154.683C114.009 154.813 116.602 154.813 117.385 154.701C118.728 154.533 118.709 153.299 120.052 153.43" fill="#E31522"/>
<path d="M119.418 157.207C119.847 160.181 111.51 158.909 111.23 157.993C111.193 157.843 111.137 157.207 111.398 157.207C114.047 158.067 116.807 158.198 119.418 157.207Z" fill="#E31522"/>
<path d="M111.548 138.262C111.921 138.132 112.798 138.412 112.798 138.73V143.462L112.014 143.929L111.529 143.462V138.244L111.548 138.262Z" fill="#E31522"/>
<path d="M118.149 138.749L118.784 138.431C119.101 138.655 119.287 142.433 119.306 143.237C119.306 144.153 119.082 144.453 118.168 144.284V138.767L118.149 138.749Z" fill="#E31522"/>
<path d="M102.764 163.809C102.055 162.705 103.864 161.49 104.479 162.892C104.871 163.771 103.211 164.538 102.764 163.809Z" fill="#E31522"/>
<path d="M111.548 195.097V208.207C111.548 208.394 112.741 209.03 112.816 209.796C112.984 211.367 110.988 212.527 109.832 211.199C108.489 209.665 110.391 208.992 110.596 207.889C110.839 206.636 110.839 198.108 110.596 196.855C110.522 196.499 110.485 196.219 110.074 196.107L108.079 196.069V203.643C107.706 203.774 106.81 203.512 106.81 203.176V196.069H105.244V201.755C104.871 201.885 103.976 201.605 103.976 201.287V195.134H111.529L111.548 195.097Z" fill="#E31522"/>
<path d="M100.824 184.681C101.085 186.364 102.857 188.571 103.211 190.029C103.36 190.59 103.36 190.609 102.875 190.983C101.943 191.189 100.208 185.952 99.5742 185.148L100.805 184.681H100.824Z" fill="#E31522"/>
<path d="M84.7839 187.036C84.8585 186.831 85.5113 186.7 85.6419 186.475C86.0895 185.783 85.7911 184.231 86.6676 183.24C87.7493 182.024 90.2298 182.174 91.2556 183.389C92.2627 184.568 91.7405 185.877 92.0949 186.513C92.1881 186.681 92.9714 186.868 92.9714 187.055V192.104C92.9714 192.104 92.2441 192.89 92.1881 192.89H85.2689L84.8026 192.422C84.8026 191.338 84.5788 187.728 84.8026 187.055M90.379 184.119C88.1969 182.959 86.7609 184.25 86.9847 186.569H90.7707L90.379 184.119ZM89.5025 191.618C89.3346 190.571 90.6401 187.448 88.4394 188.177C88.1037 188.289 87.9358 188.588 87.9172 188.925L88.2529 191.618H89.5025Z" fill="#E31522"/>
<path d="M88.8687 177.723H92.6547V178.677L89.3909 178.714L88.8314 179.892L87.6191 179.93V172.842L88.4025 172.355L88.8687 172.842V177.723Z" fill="#E31522"/>
<path d="M126.654 202.035H125.703V196.032L124.174 196.088C124.193 196.425 123.82 196.986 123.82 197.154V203.625H122.868V196.518L122.346 196.088L120.351 196.032C120.724 199.623 119.866 204.111 120.351 207.571C120.5 208.637 121.283 208.768 121.339 209.759C121.47 212.115 118.299 212.171 118.169 210.058C118.113 209.067 118.989 208.618 119.12 207.571C119.344 205.738 118.653 195.508 119.12 195.078C121.488 195.078 124.51 194.087 126.673 195.228V202.016L126.654 202.035Z" fill="#E31522"/>
<path d="M130.589 184.363C131.186 184.344 131.018 185.503 130.906 185.933C130.701 186.794 129.526 189.244 129.022 190.048C128.799 190.403 128.668 191.076 128.071 190.983C127.307 190.871 127.959 189.767 128.071 189.412C128.332 188.664 130.141 184.381 130.57 184.363" fill="#E31522"/>
<path d="M136.725 187.991C136.8 187.729 140.493 184.363 140.828 184.176C141.127 184.026 141.145 184.026 141.463 184.176C141.873 184.381 145.379 187.953 145.472 188.384C145.715 189.356 145.584 194.78 144.447 194.78H137.527C137.527 194.78 136.744 194.05 136.744 193.994C136.744 192.666 136.483 188.945 136.744 187.991M143.328 189.73C143.682 189.3 140.996 186.139 140.81 186.252L138.609 189.562L140.176 189.393V193.508H142.059V189.393L143.309 189.711L143.328 189.73Z" fill="#E31522"/>
<path d="M143.346 173.627V180.416C143.346 181.052 147.561 183.202 145.435 183.689C145.1 183.651 142.582 181.725 142.377 181.37C141.985 180.659 142.134 179.686 142.078 179.612C141.78 179.275 137.751 180.416 138.777 178.34H142.078V173.608H143.346V173.627Z" fill="#E31522"/>
<path d="M105.468 177.143C107.948 176.414 108.097 179.986 105.99 180.173C104.293 180.341 104.106 177.554 105.468 177.143Z" fill="#E31522"/>
<path d="M123.745 182.38C122.849 183.297 120.891 181.913 121.04 180.809C121.898 177.892 125.274 180.809 123.745 182.38Z" fill="#E31522"/>
<path d="M124.043 177.144C125.684 176.695 127.307 178.977 125.703 179.781C123.707 180.772 122.253 177.63 124.043 177.144Z" fill="#E31522"/>
<path d="M107.668 179.668C110.093 178.864 110.503 182.829 107.948 182.474C106.381 182.249 106.642 180.005 107.668 179.668Z" fill="#E31522"/>
<path d="M106.046 111.126C106.494 111.033 112.909 116.793 112.816 117.279C112.779 117.503 112.145 118.008 111.865 117.597C110.336 115.989 108.433 114.698 106.829 113.183C106.55 112.922 104.778 111.388 106.046 111.126Z" fill="#E31522"/>
<path d="M111.864 102.28H112.815C112.834 103.477 112.778 104.693 112.815 105.908C112.834 106.75 113.599 107.648 112.648 108.284L111.864 107.816V102.299V102.28Z" fill="#E31522"/>
<path d="M125.386 111.444C125.666 111.78 124.827 112.491 124.603 112.715C123.894 113.407 119.512 117.279 118.989 117.503C118.598 117.671 118.262 117.783 118.15 117.279C118.057 116.755 118.318 116.512 118.598 116.156C118.896 115.801 123.95 111.575 124.286 111.425C124.64 111.257 125.256 111.313 125.386 111.444Z" fill="#E31522"/>
<path d="M117.833 102.28C118.43 102.056 119.083 102.486 119.083 103.066V107.797L118.598 108.265L117.814 107.797V102.28H117.833Z" fill="#E31522"/>
<path d="M127.289 126.91H126.039C126.3 126.255 126.188 124.535 126.431 124.142C126.524 123.974 128.725 122.421 129.21 121.711C129.769 120.888 129.377 119.616 130.925 119.616C132.492 119.616 132.884 121.991 131.485 122.421C130.981 122.571 130.403 122.421 129.825 122.646C128.949 123.02 126.655 125.676 127.307 126.91" fill="#E31522"/>
<path d="M135.196 117.709C134.152 116.026 137.36 114.567 137.378 116.961C137.397 118.532 135.457 118.121 135.196 117.709Z" fill="#E31522"/>
<path d="M104.609 126.891L103.658 126.686C103.733 125.508 101.923 123.301 101.01 122.777C99.9652 122.179 98.0629 122.702 98.3799 120.813C98.5478 119.766 99.3684 119.429 100.357 119.616C101.476 119.841 100.935 120.795 101.439 121.692C101.923 122.553 103.807 123.338 104.124 124.049C104.441 124.741 104.385 126.069 104.609 126.873" fill="#E31522"/>
<path d="M94.1283 115.577C95.7695 115.035 96.5155 117.579 94.9489 118.027C93.2144 118.514 92.8973 115.989 94.1283 115.577Z" fill="#E31522"/>
<path d="M134.599 146.547C136.091 145.07 138.478 147.744 136.912 149.034C135.494 150.194 133.349 147.8 134.599 146.547Z" fill="#E31522"/>
<path d="M137.266 143.368C139.579 142.807 140.101 147.389 137.453 146.248C136.073 145.668 136.054 143.667 137.266 143.368Z" fill="#E31522"/>
<path d="M131.597 151.896C133.368 151.372 134.916 153.673 132.846 154.458C131.112 155.113 129.769 152.438 131.597 151.896Z" fill="#E31522"/>
<path d="M133.163 149.035C134.357 148.642 136.446 150.905 134.842 151.69C132.958 152.625 131.466 149.596 133.163 149.035Z" fill="#E31522"/>
<path d="M96.9439 148.754C98.3426 148.623 98.9021 150.381 97.6712 151.354C95.3586 153.186 94.5007 148.978 96.9439 148.754Z" fill="#E31522"/>
<path d="M96.03 146.548L96.3843 147.838C93.2324 151.859 91.6472 145.725 96.03 146.548Z" fill="#E31522"/>
<path d="M99.854 151.896C100.731 152.457 100.134 154.645 98.4739 154.57C95.6577 154.439 97.8957 150.662 99.854 151.896Z" fill="#E31522"/>
<path d="M94.1471 143.723C95.2475 144.864 93.6435 146.996 92.338 146.342C90.6595 145.481 92.5618 142.508 94.1471 143.723Z" fill="#E31522"/>
<path d="M120.667 188.776C120.406 189.244 120.518 189.674 119.903 189.749C118.579 189.917 112.592 189.955 111.398 189.711C110.895 189.618 110.447 189.263 110.298 188.776H120.686H120.667Z" fill="#E31522"/>
<path d="M137.584 77.0889C138.423 76.8271 140.195 76.8645 140.475 77.8931C140.642 78.5102 140.288 79.0339 140.344 79.4079C140.512 80.5487 141.239 81.2968 140.456 82.8116C139.747 84.1769 137.006 83.4475 136.558 82.101C136.185 80.9789 136.129 77.5377 137.584 77.0889ZM138.516 77.7248L137.509 78.2858V79.5762L139.579 79.7259L139.729 78.2858L138.516 77.7248Z" fill="#E31522"/>
<path d="M92.972 79.2393H95.8068C96.2917 81.1095 93.9791 80.7542 92.972 81.9324L93.5875 82.7179C92.17 83.4659 90.3423 83.84 89.0368 82.7179C87.1531 79.3889 91.1629 77.8367 93.7553 77.3691L92.972 79.258V79.2393Z" fill="#E31522"/>
<path d="M66.8427 51.4482C67.4209 52.1776 64.7539 54.2535 64.1571 54.6088C63.7654 54.8333 63.4856 55.0203 63.3737 54.4592C63.2245 53.7112 66.1153 51.7288 66.824 51.4669" fill="#E31522"/>
<path d="M67.6817 53.7114C69.7519 53.5244 65.7421 56.5728 65.4437 56.5167C63.9703 55.9556 67.3833 53.7488 67.6817 53.7114Z" fill="#E31522"/>
<path d="M175.35 36.0761C178.26 35.9452 178.129 40.4149 174.735 39.3863C173.504 39.0122 173.224 36.1696 175.35 36.0761ZM175.35 36.9738C173.951 37.3478 174.679 39.1058 175.854 38.8065C177.252 38.4325 176.525 36.6745 175.35 36.9738Z" fill="#E31522"/>
<path d="M52.0342 30.9323L52.1834 28.3889L54.2722 28.2393L54.4214 30.6331L52.0342 30.9323Z" fill="#E31522"/>
<path d="M100.842 139.366C100.786 139.16 99.8909 137.945 99.7417 137.945C99.2194 138.655 96.6457 140.507 96.9068 141.405L102.409 149.465L103.957 143.424C103.117 139.908 104.628 136.486 102.39 133.382C99.5925 129.492 94.2585 125.246 91.8712 121.525C91.1998 120.496 91.0693 119.224 90.7522 118.065C90.2673 117.934 90.23 118.196 89.9689 118.383C89.5026 118.701 87.2832 120.982 87.0221 121.431C86.1083 123.077 86.6678 124.947 86.071 126.481C85.9404 126.799 86.2202 127.042 85.5674 126.929C84.4298 126.742 81.2965 122.983 79.8418 122.254C76.7085 120.702 71.7662 120.44 68.5583 118.719C63.616 116.082 59.7741 111.257 57.2376 106.414C54.6266 101.42 52.8921 96.2772 51.7917 90.7227C51.6798 90.1991 51.6985 90.2926 52.2207 90.2926C54.0484 90.2926 61.9375 92.967 64.2688 93.6963C67.7564 94.781 71.2626 95.9219 74.7129 97.1188L86.2761 109.219C86.5745 109.275 89.5959 107.199 90.7149 107.106C91.3304 107.049 91.8899 107.405 92.524 107.367C98.4548 106.975 102.203 106.9 106.866 102.785C108.19 101.626 109.887 98.8206 110.783 98.1848C111.79 97.4367 118.131 97.9978 119.772 98.0539C123.558 102.524 127.27 106.526 133.48 107.031C135.476 107.199 137.807 106.788 139.747 107.068C140.959 107.236 144.129 109.051 144.745 108.901C148.904 105.142 152.261 100.279 156.718 96.8943L179.285 90.33C178.278 94.22 177.42 98.2035 175.872 101.906C173.298 108.041 168.244 116.045 162.034 118.962C158.807 120.477 153.417 120.851 150.526 122.572C149.128 123.395 146.573 126.836 145.118 127.266C144.484 127.341 144.708 127.247 144.652 126.799C144.446 125.078 144.652 123.189 143.887 121.562C143.57 120.907 140.716 117.766 140.25 118.102C139.858 119.224 139.635 120.758 138.982 121.73C137.527 123.975 133.256 127.677 131.261 130.09C130.347 131.193 127.643 134.204 127.4 135.383C127.064 137.066 126.878 141.76 127.008 143.518C127.158 145.388 127.904 147.501 128.258 149.353C128.631 149.652 133.648 142.097 133.797 141.461C133.984 140.694 131.82 138.749 131.223 138.001C130.794 137.851 130.142 138.955 130.142 139.104V144.154L129.657 144.621L128.873 144.154V138.786C128.873 138.599 130.962 136.318 131.484 136.449C132.324 136.673 134.002 140.002 135.308 140.189L143.029 136.879C143.906 134.709 142.395 131.605 144.913 130.09V141.292C144.913 142.078 141.612 146.772 141.537 148.175L151.757 189.674V191.432L115.483 224.796L78.8533 191.095L89.1669 148.811C89.7637 147.109 86.0337 142.489 86.0337 141.592V130.071C87.6563 131.474 87.8055 134.578 87.3392 136.523L95.6572 140.152L99.7417 136.449C100.04 136.748 101.793 138.3 101.793 138.45V144.285H100.842C100.637 142.863 101.122 140.713 100.842 139.385M173.243 93.4345L156.569 98.6523L145.677 110.154L147.113 113.632C147.636 113.745 147.748 113.464 148.046 113.146C150.899 110.21 153.287 104.899 156.252 101.813L173.224 93.4345H173.243ZM73.6685 103.01L54.2536 93.7524C54.0857 93.9208 55.2234 97.792 55.4285 98.4092C57.7412 105.553 62.6462 113.932 69.5655 117.392C70.7777 118.009 78.5176 120.533 79.6366 120.571C80.737 120.608 81.0167 119.636 81.0167 118.682C77.7529 117.597 73.6126 116.587 70.5353 115.147C65.5556 112.81 60.2776 102.299 58.338 97.231C61.9934 99.0077 65.8354 100.485 69.4722 102.337C70.4047 102.804 71.8408 103.365 72.6055 103.926C74.1161 105.011 78.7414 111.631 79.991 113.558C80.4759 114.306 80.9608 115.035 81.3152 115.858C80.8675 115.914 80.4572 115.821 80.0469 115.727C78.5922 115.39 73.0344 113.52 71.8967 112.847C70.442 111.987 68.8754 108.92 67.6072 108.62C67.2715 108.546 65.91 108.377 66.2084 109.088C67.9242 110.36 69.0619 112.903 70.9269 113.838C73.855 115.297 78.1446 115.989 81.2033 117.466C81.9306 117.691 82.6766 116.494 82.7512 115.914C82.8631 115.129 74.5264 104.749 73.6685 103.047M58.338 94.0704L74.5451 101.963C77.697 105.366 80.0469 110.21 83.0496 113.632C83.3667 113.988 83.3294 114.081 83.6651 113.632C84.206 112.959 84.2992 111.538 84.952 110.79V110.173L73.911 98.4653C69.1925 97.0627 64.1196 94.8558 59.3451 93.8085C59.028 93.7337 58.2447 93.4906 58.3193 94.0517M176.711 93.7524L157.166 103.047L148.121 115.746L148.885 117.466C151.347 116.718 153.828 115.951 156.233 115.054C157.39 114.624 159.926 113.913 160.765 113.296C161.922 112.417 163.656 109.911 164.738 108.751C162.09 107.928 161.194 111.482 158.975 112.772C156.327 114.306 152.13 114.792 149.314 116.176C149.109 115.951 150.974 113.352 151.254 112.922C152.653 110.902 156.122 105.628 157.67 104.207C158.471 103.477 170.613 97.8668 172.049 97.4741C172.329 97.3993 172.851 96.9318 172.59 97.6985C171.825 99.9427 169.028 104.861 167.685 106.993C166.472 108.92 162.519 114.119 160.635 115.072C157.595 116.587 152.895 117.41 149.613 118.701L150.284 120.533C150.638 120.758 151.403 120.533 151.832 120.44C163.675 117.859 169.531 112.641 174.231 101.532C175.294 99.0077 175.947 96.3707 176.693 93.7524M114.699 99.4378C113.935 99.5874 112.163 99.176 111.622 99.5126C111.454 99.6061 109.403 102.224 109.365 102.449C109.085 103.964 109.141 108.751 110.13 109.873C110.484 110.266 113.319 112.08 112.816 112.697C112.741 112.791 112.051 112.94 111.715 112.735C111.379 112.529 108.097 109.63 108.097 109.387V103.552L103.117 107.068V113.109L112.368 121.207L112.816 122.796L102.11 113.801V108.115C101.868 107.816 101.849 107.741 101.457 107.76C101.029 107.76 96.6644 108.602 96.4405 108.751C96.0302 109.013 95.4521 110.64 95.6386 111.108L113.58 126.294L114.699 126.593V99.4378ZM116.266 99.4378V126.892L135.326 111.108C134.842 107.517 131.466 108.658 128.855 107.629V113.464C125.796 116.12 122.644 119.617 119.418 122.011C118.989 122.329 118.784 122.609 118.15 122.46L118.448 121.02L127.531 113.09L127.437 106.993L122.551 103.533V109.368C122.551 109.649 118.728 113.296 118.15 112.679C117.907 110.921 120.854 110.266 121.227 108.976L121.283 102.411C119.921 100.317 119.063 98.8206 116.247 99.4004M90.4538 110.004C90.2113 111.557 90.6217 113.595 90.4538 115.222C92.2629 113.502 93.5311 110.996 94.5569 108.751C93.1768 108.471 90.7336 108.209 90.4538 110.004ZM140.511 115.54V110.958C140.511 110.565 139.989 108.957 139.579 108.751H136.11C137.229 111.201 138.683 113.595 140.511 115.54ZM88.8685 116.961V109.537L86.5186 111.126L81.6695 121.637L84.7655 124.049C84.8028 122.909 85.0825 121.674 85.642 120.664C86.1829 119.711 88.6634 117.616 88.8499 116.943M142.078 110.322C142.19 112.585 142.078 114.979 142.078 117.261C142.078 117.485 144.633 119.729 145.174 120.795C145.715 121.861 145.994 122.852 145.864 124.049C146.237 124.479 148.997 122.104 148.997 121.375C147.188 118.476 145.472 110.846 142.227 109.537C141.295 109.163 142.078 110.266 142.078 110.322ZM104.945 134.803L113.431 128.332L94.7061 112.398C94.4636 112.398 92.151 116.195 92.095 116.419C91.9645 116.943 92.5799 119.411 92.8224 119.972C93.2887 121.076 99.7044 128.052 101.01 129.435C101.327 129.772 102.11 130.745 102.539 130.67C103.658 129.791 104.74 128.874 105.859 127.977C106.12 127.771 106.213 127.378 106.381 127.229C107.556 126.275 108.377 127.229 107.575 128.182C107.071 128.8 103.117 131.081 103.117 131.792L104.964 134.803H104.945ZM124.397 126.967C124.491 127.023 124.696 127.715 125.05 128.033C125.591 128.5 128.109 130.745 128.538 130.558L137.658 120.44C138.031 119.804 138.963 117.298 138.907 116.662C138.814 115.69 136.445 113.408 135.923 112.398L117.198 128.332L126.001 134.803L127.605 131.511L122.868 127.696C122.719 127.004 123.875 126.668 124.397 126.967ZM114.699 129.735C112.648 130.52 110.876 132.409 109.085 133.737L109.048 159.508L105.728 161.939C104.236 161.135 107.463 159.433 107.463 158.947V135.121L105.318 136.916L105.374 143.911L100.227 168.896L109.03 162.089C110.708 161.565 113.45 163.286 115.501 163.248C117.609 163.211 120.555 161.341 122.383 162.313L130.757 168.896L125.442 144.079C124.901 142.433 126.206 137.571 125.442 136.505C125.162 136.112 123.968 135.57 123.539 135.102C123.446 141.367 123.651 147.632 123.539 153.897C123.521 155.487 122.7 157.6 123.539 159.171C123.801 159.658 125.889 160.686 125.74 161.472C125.666 161.808 125.218 162.014 124.789 161.79C124.64 161.715 122.159 159.77 122.047 159.639C121.022 158.348 121.954 154.889 121.973 153.28C122.066 147.389 121.693 141.498 121.637 135.57C121.637 135.046 121.861 134.56 121.898 134.036L116.303 129.735V149.11L114.718 149.615V129.735H114.699ZM99.2567 164.464C99.3873 161.341 102.521 153.879 101.607 151.223C101.402 150.643 95.9183 142.321 95.4707 141.928C95.0604 141.573 87.8987 138.281 87.619 138.599L87.8614 141.666L99.2567 164.483V164.464ZM143.346 138.581C142.898 138.487 142.581 138.693 142.171 138.824C140.94 139.273 136.24 141.199 135.457 141.872C133.387 143.593 131.037 149.297 129.004 151.504L128.873 152.57L131.373 164.445L143.085 141.311L143.327 138.562L143.346 138.581ZM114.699 221.598V192.554L107.855 191.843C107.015 190.254 105.99 188.758 105.094 187.187C104.479 186.102 104.124 184.662 103.509 183.727C102.632 182.38 99.7417 180.51 99.2008 179.22C98.8651 178.415 98.3429 173.048 98.3242 171.889C98.2869 170.205 98.6786 168.896 98.8278 167.288L91.2558 152.139L91.0879 152.626C94.6128 165.567 95.3775 181.052 99.2754 193.676C101.625 201.288 106.624 209.255 109.085 216.979C109.57 217.465 114.345 222.028 114.699 221.598ZM116.266 192.573V221.935C117.702 220.289 120.518 218.493 121.674 216.792C125.777 210.695 127.717 199.923 131.708 193.396L139.877 152.345C139.299 151.672 139.392 152.252 139.206 152.626C137.788 155.712 132.492 164.875 132.044 167.251C131.802 168.504 132.641 169.7 132.641 170.953C132.641 172.076 131.857 178.846 131.503 179.631C131 180.753 128.109 182.268 127.251 183.577C126.673 184.475 126.449 185.821 125.852 186.906C125.46 187.617 123.334 191.413 123.036 191.656C121.768 192.61 117.944 192.199 116.247 192.591M105.878 213.706L97.5409 193.508L89.5213 154.683L80.737 190.759L91.2371 200.446L95.3029 196.014L96.739 195.715C97.6528 196.594 92.0391 200.259 92.3561 201.493L105.859 213.706H105.878ZM125.087 213.407L150.228 190.459L141.462 154.702C140.959 154.664 140.977 155.487 140.884 155.842C137.788 167.961 136.483 181.015 133.443 193.209L125.106 213.407H125.087ZM116.266 185.616H122.719L129.937 178.958C130.291 178.359 131.074 172.805 131.074 171.851C131.074 171.384 131.018 171.271 130.738 170.935C130.365 170.467 124.677 166.353 124.285 166.353C121.525 168.578 117.441 171.664 113.767 170.598C111.025 169.813 108.638 168.055 106.4 166.372C105.243 167.793 101.066 169.7 100.189 170.897C99.4246 171.963 100.767 177.05 100.693 178.64L108.414 185.728L108.88 185.578H114.382L113.897 181.183C111.958 179.893 110.316 177.836 108.563 176.433C107.724 175.76 104.143 173.946 104.05 173.684C103.901 173.254 103.901 171.066 104.05 170.636C104.236 170.093 106.176 169.102 106.68 168.597C108.899 170.411 113.487 172.973 116.359 172.562C118.653 172.225 122.122 170.018 123.987 168.616L126.598 170.168V173.834C122.551 175.143 120.033 178.696 116.751 181.165L116.266 185.578V185.616ZM123.353 187.205C117.963 187.448 112.517 187.018 107.146 187.205C108.097 190.908 110.242 190.871 113.58 191.002C116.359 191.133 119.119 190.815 121.861 190.459C122.122 190.347 123.707 187.71 123.819 187.355C124.099 186.439 123.372 187.205 123.353 187.205Z" fill="#E31522"/>
</g>
<defs>
<clipPath id="clip0_375_933">
<rect width="228" height="274" fill="white"/>
</clipPath>
</defs>
</svg>