<svg width="166" height="227" viewBox="0 0 166 227" fill="none" xmlns="http://www.w3.org/2000/svg">
<path d="M2.24786 194.648H5.8187V204.705H13.288L20.6917 194.648H24.4919L16.4657 205.918L25.4747 217.58H21.6418L13.5828 207.523H5.8187V217.58H2.24786V194.648ZM28.2255 194.648H31.7964V217.58H28.2255V194.648ZM35.0718 217.58V194.648H38.0202L53.5812 211.847V194.648H57.1521V217.58H54.2037L38.6427 200.381V217.58H35.0718ZM60.4416 198.284L64.078 194.648H81.3753V196.909L80.589 197.728H65.2574L64.0125 198.972V213.256L65.2574 214.501H78.7217V207.523H72.0387V204.705H82.0305V217.58H64.078L60.4416 213.944V198.284ZM85.2996 194.648H103.743L107.38 198.284V213.944L103.743 217.58H85.2996V194.648ZM102.564 214.501L103.809 213.256V198.972L102.564 197.728H88.8704V214.501H102.564ZM110.349 213.944V198.284L113.986 194.648H128.793L132.43 198.284V213.944L128.793 217.58H113.986L110.349 213.944ZM115.165 214.501H127.614L128.859 213.256V198.972L127.614 197.728H115.165L113.92 198.972V213.256L115.165 214.501ZM135.719 217.58V194.648H139.159L149.347 211.519H149.38L159.601 194.648H163.041V217.58H159.47V200.709L149.544 216.925H149.216L139.29 200.709V217.58H135.719Z" fill="white"/>
<path d="M126.55 91.8293C126.75 91.9993 126.77 94.8193 126.7 95.2793C126.14 99.3693 114.42 108.989 110.93 111.739C102.34 118.519 93.2299 124.669 83.9299 130.429C72.9099 123.629 62.2099 116.269 52.2899 107.939L41.0899 116.289C37.9299 113.559 34.8499 110.339 32.2999 107.009C31.8499 106.419 30.4499 104.059 30.0999 103.799C29.8199 103.599 28.2499 103.579 27.6099 103.419C19.7699 101.569 19.3799 90.0293 27.0899 87.4693C36.1499 84.4593 42.3099 96.4593 34.7599 101.969L34.7299 102.189C36.4799 105.129 38.9099 107.579 41.3199 109.969L52.5099 101.789C54.9699 103.779 57.3399 105.869 59.8099 107.839C67.4999 113.949 75.6399 119.489 83.9399 124.729C92.7299 119.189 101.52 113.219 109.59 106.669C111.35 105.239 121.83 96.1493 121.83 94.6093V91.8193H126.56L126.55 91.8293ZM28.9399 91.8693C26.9399 92.2193 25.7599 94.5893 26.3299 96.4193C27.0499 98.7493 29.8499 99.7093 31.8399 98.3093C34.9599 96.1193 33.1199 91.1393 28.9399 91.8593" fill="#E31522"/>
<path d="M126.55 81.3591H140.22V97.3091C140.22 97.7591 139.52 99.3591 139.58 99.6491C139.61 99.7991 140.86 101.349 141.09 101.839C145.41 110.879 133.52 118.379 127.22 111.149C121.9 105.039 127.41 95.6591 135.31 97.3991C135.23 97.1891 135.48 96.8991 135.48 96.8091V86.2591H121.81V48.1091L105.69 40.0091C105.43 39.6491 108.68 37.0391 108.99 36.5391L126.54 45.1491V81.3591H126.55ZM133.43 101.999C132.32 102.039 130.66 102.769 130.23 103.859C129.22 106.419 131.27 109.089 133.7 109.849C136.01 108.919 137.88 106.129 136.77 103.639C136.33 102.649 134.46 101.959 133.44 101.999" fill="#E31522"/>
<path d="M44.8597 119.84C44.7897 119.56 44.9497 119.5 45.1097 119.34C45.4097 119.04 48.4597 116.86 48.6797 116.84L49.0197 116.93C59.9897 125.87 71.7397 133.86 83.9297 141.06C97.1997 132.99 110.09 124.2 121.88 114.07C122.13 113.92 122.28 114.07 122.49 114.21C122.85 114.44 125.66 116.72 125.7 116.93C125.68 117.22 125.4 117.4 125.21 117.58C123.2 119.51 120.42 121.64 118.2 123.4C107.47 131.93 95.7697 139.63 83.9297 146.53L83.3997 146.4C71.9597 139.54 60.6697 132.33 50.1897 124.07C48.4197 122.67 46.6997 121.12 44.8697 119.85" fill="#E31522"/>
<path d="M61.5697 40.5095L45.8997 48.5595L45.9597 94.6895L48.5797 97.9895L44.9397 100.939C44.5597 100.939 41.0897 96.3695 41.1397 95.4595L41.1697 45.3495L57.8097 36.9895C57.9497 36.9395 58.0597 36.9895 58.1797 37.0395C58.2797 37.0895 59.6397 38.3395 59.8797 38.5595C60.1397 38.7995 61.7297 40.2795 61.5697 40.4995" fill="#E31522"/>
<path d="M27.47 36.4601L49.58 27.0801C49.9 27.5201 50.06 28.0501 50.35 28.5101C50.63 28.9401 52.12 30.7801 51.93 31.0501L32.19 39.7501V81.5301H27.46V36.4601H27.47Z" fill="#E31522"/>
<path d="M86.55 31.2299L72.94 36.1199L72.45 35.9599L69 32.4899L81.8 27.9899L81.76 13.1399L84.06 12.1699L98.66 18.5299C99.25 18.6299 99.39 17.9399 99.73 17.6499C103.51 14.3499 109.12 14.4699 112.18 18.6099C111.38 20.3099 110.44 21.9699 109.08 23.2799C107.84 17.1099 99.01 20.8899 102.85 26.1299L104.61 27.2399L100.62 30.3499C98.53 29.2399 97.51 26.7699 97.19 24.5399C97.12 24.0799 97.35 23.3299 97.02 23.0199L86.55 18.5499V31.2099V31.2299Z" fill="#E31522"/>
<path d="M140.22 76.4601H135.5V39.3301L115.07 30.3801L117.45 26.3301L140.22 36.3801V76.4601Z" fill="#E31522"/>
<path d="M76.7601 15.3594V20.5894L61.9701 27.0094C61.2601 27.0494 58.2901 24.2694 57.8501 23.4594L76.7601 15.3594Z" fill="#E31522"/>
<path d="M33.94 84.6805C33.09 83.9005 33.54 82.0905 34.65 81.7005L34.77 68.3205L38.44 64.7405L38.47 43.4205L56.05 34.9805L56.51 35.3805L39.15 44.1805L39.12 65.2505C38.61 66.3705 35.72 67.8605 35.57 68.9605V81.4605C35.66 81.9105 36.38 82.0805 36.66 82.5705C37.66 84.3005 35.28 85.9205 33.94 84.7005M35.02 82.4005C33.84 82.5805 34.07 84.5905 35.31 84.4005C36.49 84.2305 36.28 82.2105 35.02 82.4005Z" fill="#E31522"/>
<path d="M25.4399 46.5891V84.5691H32.1899L32.1699 85.2191C31.9599 85.4791 28.6899 85.2491 28.0599 85.2391C27.7499 85.2391 27.3999 85.4191 27.0499 85.4191C26.3199 85.4191 25.4099 85.0691 24.5999 85.2391V46.5891C24.5999 46.5391 24.0399 46.4791 23.7799 45.9791C23.0299 44.5291 24.6999 43.0791 25.9499 43.9791C26.8699 44.6391 26.5999 46.3991 25.4499 46.5891M25.5699 44.5991C24.8099 43.8391 23.7999 45.3391 24.5999 45.8291C25.4099 46.3191 26.2099 45.2491 25.5699 44.5991Z" fill="#E31522"/>
<path d="M51.2199 110.26C52.3699 110.02 53.4199 110.71 53.5599 111.91C53.6199 112.41 53.2799 112.83 53.6299 113.18L76.3299 129.41C77.2799 128.68 78.6799 128.85 79.1999 129.98C80.5299 132.81 76.1799 134.07 75.6699 131.3C75.5799 130.81 75.8299 130.25 75.6599 129.98C75.5899 129.87 74.3599 129.02 74.0999 128.83C67.1399 123.63 59.8799 118.77 52.8699 113.67C50.2099 115.57 48.3699 110.86 51.2199 110.27M51.2199 111.1C50.3499 111.36 50.3499 112.97 51.2199 113.22C53.2899 113.83 53.3599 110.47 51.2199 111.1ZM77.2199 129.84C75.8899 130.14 76.2499 132.48 77.9899 131.96C79.0199 131.65 78.9099 129.46 77.2199 129.84Z" fill="#E31522"/>
<path d="M35.6001 56.8609C35.6001 56.8609 36.1301 57.0509 36.3301 57.2209C38.2201 58.8009 36.3701 61.5309 34.3401 60.5609C32.6201 59.7409 33.0201 57.3609 34.7301 56.7709L34.8101 41.5209L49.4801 34.2509C51.2101 30.7809 53.7501 35.8109 49.8701 34.9809L35.6501 42.0309L35.6001 56.8609ZM35.0201 57.5909C33.6501 57.8109 33.7001 60.0809 35.3101 59.9209C36.9401 59.7609 36.5501 57.3509 35.0201 57.5909Z" fill="#E31522"/>
<path d="M110.99 115.08C110.82 113.61 111.3 111.87 113.12 112.08C115.37 112.35 115.24 116 112.79 115.97C112.26 115.97 111.89 115.42 111.37 115.71C105.8 119.9 100.07 123.87 94.4995 128.05C93.9295 128.48 91.6795 130 91.4195 130.39C91.1395 130.81 91.8895 132.28 90.4895 132.99C87.0095 134.75 86.4895 127.84 90.7095 129.77L110.98 115.09L110.99 115.08ZM113.68 113.13C113.01 112.46 111.21 113.19 111.78 114.44C112.58 116.2 114.87 114.33 113.68 113.13ZM89.3695 130.17C87.9595 130.42 88.2495 132.59 89.6495 132.5C91.0895 132.41 90.9795 129.88 89.3695 130.17Z" fill="#E31522"/>
<path d="M132.8 45.5799V76.2999L132.11 76.2299L131.94 75.7199V45.6899C128.95 44.6099 131.11 40.3499 133.55 42.1999C134.88 43.2099 134.38 45.2499 132.79 45.5799M132.08 42.5699C130.83 42.9399 131.13 44.9899 132.51 44.8699C134.09 44.7399 133.7 42.0899 132.08 42.5699Z" fill="#E31522"/>
<path d="M122.78 110.25L128.33 114.44C128.53 114.75 128.12 115.26 127.65 114.96C126.19 114.05 124.69 112.25 123.23 111.43C123.05 111.33 122.9 111.19 122.68 111.32L95.1502 131.42L94.4902 131.07L122.79 110.26L122.78 110.25Z" fill="#E31522"/>
<path d="M128.75 63.3004C128.61 63.0704 127.52 62.9604 127.64 61.7704C127.83 59.8504 130.53 59.9704 130.62 61.8704C130.67 62.9504 129.59 63.2704 129.59 63.3804V78.5704L129.84 78.8204H140.64C140.76 78.8204 141.18 77.5804 142.32 77.6304C144 77.7004 144.29 80.2404 142.65 80.5004C141.19 80.7304 140.88 79.5004 140.63 79.5004H128.73V63.3004H128.75ZM129.72 62.4104C130.46 61.6704 129.03 60.5604 128.5 61.4404C128.01 62.2504 129.08 63.0504 129.72 62.4104ZM142.19 78.3604C140.99 78.4604 141.68 80.5704 142.76 79.5904C143.32 79.0804 142.79 78.3004 142.19 78.3604Z" fill="#E31522"/>
<path d="M38.3899 72.6207C40.9799 72.0207 41.8499 75.6907 39.3599 76.4607V101.451C40.5899 101.911 40.8399 103.681 39.5799 104.191C37.6499 104.981 36.6399 102.271 38.5299 101.451V76.4707C36.7099 75.9807 36.5699 73.0507 38.3999 72.6307M39.7399 75.4007C40.9299 74.4407 39.2699 72.5107 38.1499 73.6407C37.0899 74.7107 38.5699 76.3507 39.7399 75.4007ZM38.8899 102.161C37.9499 102.241 38.0999 103.731 39.0199 103.651C39.8799 103.571 39.8399 102.081 38.8899 102.161Z" fill="#E31522"/>
<path d="M129.419 55.0291H128.579V42.7891L111.189 34.4291L111.639 33.7891L129.419 42.4491V55.0291Z" fill="#E31522"/>
<path d="M79.6301 14.5195V24.8195L71.4701 28.3495C71.3301 29.2295 70.8501 30.2795 69.8001 30.1895C67.7301 30.0095 68.1601 26.9995 69.9101 27.1795C70.3001 27.2195 70.5601 27.5395 70.8501 27.6195C71.4901 27.7795 77.5601 24.6795 78.7001 24.3195L78.9401 14.5995L79.6301 14.5295V14.5195ZM69.6201 28.0495C69.0001 28.2395 69.0101 29.1595 69.6201 29.3395C70.9001 29.7195 70.9001 27.6695 69.6201 28.0495Z" fill="#E31522"/>
<path d="M70.5101 129.97L69.9101 129.82L55.9401 120.06C53.0801 121.38 52.9001 116.77 55.5401 117.35C56.9001 117.65 56.2601 118.88 56.6601 119.44L70.6601 129.41L70.5101 129.98V129.97ZM55.0901 118.03C54.3201 118.09 54.1701 119.4 54.9001 119.52C56.1001 119.72 56.1401 117.94 55.0901 118.03Z" fill="#E31522"/>
<path d="M130.1 88.9604C130.57 86.7804 133.7 86.9704 133.82 89.2104C133.9 90.6504 133.07 91.2804 131.69 91.1704C130.31 91.0604 130.49 89.9304 129.84 89.8104L116.66 89.6504L116.59 88.9604H130.09H130.1ZM131.74 88.1404C130.42 88.3404 130.58 90.5604 132.03 90.4704C133.6 90.3704 133.36 87.8904 131.74 88.1404Z" fill="#E31522"/>
<path d="M51.2101 98.9302C51.4301 98.8902 51.9301 99.3402 51.7001 99.6002L41.0801 107.5L40.6401 107.1L51.2101 98.9302Z" fill="#E31522"/>
<path d="M106.3 23.1197L106.89 22.6197C107.98 23.9997 107.5 25.8397 105.63 25.9897C105.56 25.9397 106.61 25.0697 106.27 24.5097C106.24 24.4497 105.95 24.3897 105.81 24.2097C105.66 24.0197 105.57 23.1497 105.25 23.8497C105.07 24.2297 105.29 24.5997 104.62 24.4797C104.58 25.0997 104.94 25.5497 105.29 25.9897C103.75 25.8297 103.39 24.8397 103.64 23.4097C103.65 23.3297 103.91 22.6397 103.94 22.6097C104.36 22.2097 104.17 23.2197 104.44 23.1197C104.64 22.3397 105.23 21.7897 104.95 20.9297C105.85 21.2097 106.47 22.1597 106.3 23.1197Z" fill="#E31522"/>
<path d="M127.89 96.0191C128 95.8291 127.17 94.2391 128.52 93.3691C130.75 91.9291 132.7 95.2991 130.67 96.5291C129.39 97.2991 128.84 96.4491 128.37 96.5791C127.96 96.6791 127.46 97.7591 126.84 97.7091L126.4 97.3191C126.53 96.9391 127.85 96.1191 127.9 96.0291M130.39 95.8291C131.31 94.9691 130.22 93.2691 128.99 94.0091C127.44 94.9391 129.3 96.8691 130.39 95.8291Z" fill="#E31522"/>
<path d="M48.5701 113.26L48.7201 113.83L42.1501 118.75L41.9201 118.82C41.5701 118.59 41.2601 118.3 41.7301 117.99L48.5601 113.26H48.5701Z" fill="#E31522"/>
<path d="M27.8097 94.9508C27.8497 94.8308 28.2297 94.7508 28.2797 94.6608C28.4497 94.3608 28.2197 93.5908 28.7097 93.0608C29.3897 92.3108 31.0697 92.6608 31.3097 93.6408C31.3997 93.9808 31.2797 94.4608 31.3897 94.6708C31.4397 94.7508 31.8597 94.8508 31.8597 94.9508V97.4808C31.8597 97.4808 31.3297 97.9008 31.2697 97.9008H28.2297C28.1697 97.9008 27.9697 97.6808 27.8097 97.7308C27.8097 97.1608 27.6897 95.3008 27.8097 94.9408M30.6797 94.6908L30.4397 93.4908C29.3697 92.9608 28.8797 93.6408 28.9897 94.6908H30.6797ZM29.9997 97.2308C30.5997 94.7108 28.9197 94.6608 29.4897 97.2308H29.9997Z" fill="#E31522"/>
<path d="M131.3 104L133.56 102.98L135.77 103.97C136.25 105.44 135.38 107.96 133.94 108.58C132.97 109 131.44 106.96 131.3 106.08C131.26 105.81 131.24 104.11 131.31 104" fill="#E31522"/>
<path d="M118.449 14.0101V18.3101L118.109 18.4901C116.979 17.6001 115.629 17.3701 114.229 17.6301L114.899 14.2501C115.999 13.7001 117.269 13.7501 118.449 14.0001M117.769 17.3901V14.7701C117.549 14.2901 115.539 14.5601 115.429 14.7001L115.069 16.8701C115.999 16.8201 116.949 16.9001 117.769 17.3801" fill="#E31522"/>
<path d="M79.4599 49.4608C79.4599 50.2108 80.1099 50.9608 79.9299 51.6908C79.7599 52.3908 77.7299 54.3008 77.0799 54.7608C75.0899 56.1408 73.2199 56.1208 70.8699 56.1908L70.1699 53.6808C72.6199 53.5708 75.1399 52.6808 77.1399 51.2808C77.8499 50.7908 78.4399 50.0208 79.0299 49.6208C79.1699 49.5208 79.1999 49.3908 79.4499 49.4508" fill="#E31522"/>
<path d="M96.5103 53.6807L95.7303 56.1907C92.4703 56.3207 89.9503 55.5107 87.8203 53.0107C86.6103 51.5907 86.4603 51.1907 87.4903 49.4707C89.8003 52.0307 93.0903 53.4507 96.5203 53.6907" fill="#E31522"/>
<path d="M96.8396 53.1696C93.4796 52.7096 90.1496 51.2896 87.8096 48.7796L89.9196 44.2996C90.1896 44.1296 93.8696 46.0596 94.4296 46.3896C94.8796 46.6496 97.8296 48.5896 97.9496 48.7796C98.2696 49.2996 96.8096 52.3196 96.8396 53.1596M91.9496 45.9196L90.2596 45.3096C89.9596 46.0496 88.5096 48.1096 88.8296 48.7796C88.8996 48.9296 89.9796 49.7696 90.2096 49.9396C91.0396 50.5296 93.8196 51.9496 94.7596 51.9896C95.8396 52.0396 95.3096 49.4896 96.5096 49.6296C96.8196 49.9196 95.1196 52.2896 96.3396 52.3296L97.1096 49.1296C96.5396 48.6996 92.6496 45.9396 92.2896 46.2596L91.6296 48.0396C92.5896 48.7096 93.6296 49.2496 94.7996 49.3196C94.9396 49.8896 94.7696 50.5296 94.0796 50.2996C93.8596 50.2196 93.7696 49.8296 93.5296 49.6696C92.9496 49.2796 92.1196 49.0696 91.5196 48.6496L91.0196 49.3096L90.5996 49.0496L91.9496 45.9296V45.9196Z" fill="#E31522"/>
<path d="M68.6797 48.8095C71.2197 47.0795 73.7997 45.3895 76.6797 44.2695C77.0597 44.2995 78.7897 48.0695 78.9697 48.6995C76.7297 51.1395 73.4297 52.6795 70.1097 53.1495L68.6897 48.8095H68.6797ZM71.5397 51.9795C73.9697 51.7495 76.2497 50.2195 78.0297 48.6095C78.1197 48.3795 76.8297 45.4695 76.5897 45.3095C76.2397 45.0795 75.2397 45.6995 74.9397 45.9895L76.0797 49.2895C75.4897 49.4195 75.4797 48.9495 75.1597 48.6295L72.3597 50.2195C71.9797 50.0795 71.7297 49.8795 71.9497 49.4495C72.1997 48.9595 72.5997 49.2995 72.8897 49.1995C73.6597 48.9295 74.2897 48.2995 75.0797 48.0895L74.3097 46.2295L69.5797 49.1095L70.4397 52.1395L71.0297 52.2295C70.9297 51.4295 70.4897 50.6795 70.2997 49.9095C70.2497 49.7095 70.0897 49.3395 70.4397 49.2695C70.9297 49.1695 71.4197 51.5395 71.5497 51.9595" fill="#E31522"/>
<path d="M72.2001 37.9809C69.4401 38.8109 67.1901 40.5809 65.7001 43.0509L62.1001 38.7209C63.0601 36.2609 65.2801 34.4609 67.7601 33.6309C69.4901 34.8109 70.7801 36.4809 72.2001 37.9809ZM66.9701 36.4609C67.2801 36.1109 68.8601 38.4309 69.1001 38.4709L70.8401 37.5609L67.6801 34.4609C67.0901 34.3109 64.1701 36.3109 64.2601 36.8609C64.5101 37.3409 64.9301 37.2909 65.4101 37.3309L65.7901 38.6409C66.5101 38.6409 66.9801 38.5909 67.1201 39.4209C66.1301 40.2509 65.6601 37.9309 64.4401 38.3109L64.0001 37.1509C61.6701 38.6409 64.9301 40.2009 65.6901 41.7009L68.4601 38.8909C68.2201 37.9009 66.8401 37.5309 66.9601 36.4709" fill="#E31522"/>
<path d="M98.9495 33.6604C101.439 34.3704 103.599 36.2404 104.729 38.5704L101.129 42.8604C100.229 42.1704 99.6795 41.1404 98.7795 40.3404C97.5595 39.2604 96.0895 38.6104 94.6495 37.8904C94.6295 37.5904 98.5995 33.6804 98.9495 33.6504M100.899 41.8604L103.689 38.6504C103.949 38.0804 102.319 36.3704 101.819 35.9604C101.439 35.6504 99.5095 34.4204 99.1495 34.4704C98.6295 34.7004 95.7095 37.4204 95.9995 37.8104L97.5795 38.4604L99.7995 36.2904C100.709 36.6404 101.149 37.5104 102.179 37.4504C102.649 38.0104 102.549 38.7904 101.669 38.6604C101.139 38.5804 100.699 37.1004 99.7995 37.0104L98.0295 38.7504L99.9695 40.5104L100.899 41.8604Z" fill="#E31522"/>
<path d="M90.4302 43.7193C90.2602 43.5393 92.0702 40.9593 92.3202 40.6293C92.6502 40.1893 93.6202 38.6993 94.0602 38.6593C94.7902 38.5893 96.7602 39.7593 97.4002 40.2093C98.6302 41.0693 99.8202 42.2793 100.7 43.4993L98.2802 48.2793C95.8402 46.4993 93.4002 44.5193 90.4302 43.7193ZM97.0102 46.2493C97.1202 45.8393 97.7902 44.1393 98.2802 44.2293C98.6602 44.2993 98.4202 44.6093 98.3302 44.7793C98.0402 45.3593 97.6102 45.9093 97.3802 46.5393L97.6002 46.9393L98.0302 47.0193L99.8102 43.5393C99.2202 42.4093 95.3402 39.2393 94.2702 39.5293C93.9202 39.6293 91.6202 42.8893 91.6402 43.1393L97.0202 46.2593L97.0102 46.2493Z" fill="#E31522"/>
<path d="M105.12 38.1501C104.11 35.8701 102.19 33.8801 99.72 33.2501C99.65 32.9901 99.79 32.9701 99.89 32.8301C100.13 32.4901 103.72 29.7501 104.04 29.7101C105.9 29.4601 108.85 32.4401 109.3 34.1901L105.13 38.1501H105.12ZM104.06 30.5801C103.83 30.6301 101.07 32.6401 101.07 32.8301L102.5 33.7201C102.89 33.5101 104.22 31.7601 104.61 31.9901C105.13 32.4401 104.04 32.7401 104.12 33.1501L105.78 34.8801L104.81 36.0601L105.37 36.9601C105.83 36.2801 108.41 34.6101 108.3 33.8801C108.1 32.5501 105.42 30.2901 104.06 30.5801ZM103.53 33.6001L103.1 34.1601L104.5 35.4401L104.93 34.8901L103.53 33.6101V33.6001Z" fill="#E31522"/>
<path d="M51.9399 13.67C50.6899 13.46 49.6799 13.16 48.3999 13.5C48.7399 8.19 52.0299 3.63 55.6599 0C53.6099 4.27 51.6699 8.81 51.9499 13.67M51.0999 12.83C51.2299 9.81 51.8799 7.03 52.9599 4.22L51.8099 5.85C50.6599 7.98 49.4899 10.2 49.2399 12.65L51.0999 12.82V12.83Z" fill="#E31522"/>
<path d="M118.28 13.6698C117.15 13.0198 116.06 13.4598 114.91 13.6698C115.07 8.92984 113.18 4.57984 111.37 0.339844C115 3.76984 118.1 8.52984 118.29 13.6698M117.61 12.6598C116.92 9.62984 115.76 6.61984 113.73 4.21984C114.78 6.95984 115.68 9.85984 115.59 12.8298L117.61 12.6598Z" fill="#E31522"/>
<path d="M61.7299 38.1509C61.4699 38.2209 61.4499 38.0809 61.3099 37.9809C60.6799 37.5509 58.7499 35.5909 58.1099 34.9409C57.0999 33.9109 57.8399 33.0709 58.6299 32.0909C59.3799 31.1609 61.4599 29.6609 62.6799 29.7309C62.9599 29.7409 67.1399 32.7309 67.1399 33.0109C64.8199 34.0309 62.6199 35.7109 61.7399 38.1609M65.6199 33.0809C65.8599 32.7609 63.7699 31.2709 63.4799 31.0909C63.2599 30.9509 62.9799 30.7009 62.7599 30.6309C61.2499 30.1609 58.5599 32.6409 58.3799 34.1609L61.3199 36.9709L62.2499 35.5309L61.2399 34.3509C61.8299 33.5509 62.3299 34.8709 62.6899 34.9209L63.4299 34.6009C63.5199 34.4809 62.5799 33.2909 62.4299 33.1609C61.9599 32.7409 61.3499 33.0009 61.5699 31.9109C62.8499 31.7509 62.2999 32.2309 62.5599 32.6709C62.6399 32.8009 63.7799 33.8909 63.8799 33.9209L65.6199 33.0909V33.0809Z" fill="#E31522"/>
<path d="M76.2499 43.7209C73.2699 44.5409 70.8899 46.5709 68.3999 48.2809L66.1099 43.4809C67.2099 41.8109 68.8299 40.2809 70.6399 39.3809C71.3299 39.0409 72.3899 38.4009 73.0499 38.9009C73.4899 39.2409 75.9299 42.6709 76.1599 43.2209C76.2299 43.3909 76.2899 43.5309 76.2499 43.7209ZM68.6599 47.0909L75.0699 43.1109C75.1199 42.9009 72.7999 39.5809 72.5999 39.5109C71.4299 39.1309 67.5799 42.3309 66.9899 43.4909L68.6599 47.0809V47.0909Z" fill="#E31522"/>
<path d="M109.67 33.7595C108.92 31.4495 107.11 29.8095 104.77 29.1995L108.6 26.0195C110.82 26.2795 112.72 27.5095 113.55 29.6295C113.53 30.2595 110.31 33.1495 109.67 33.7595ZM111.7 28.0195C110.96 27.6595 109.65 26.7095 108.79 26.8595C108.65 26.8895 106.62 28.4295 106.47 28.5995C106.34 28.7495 106.25 28.7895 106.31 29.0195L107.55 29.4995C108.15 29.0395 108.62 28.3995 109.23 27.9495C109.38 27.8395 109.35 27.5795 109.77 27.6695C110.09 27.7395 109.96 28.1195 109.8 28.2895C109.42 28.6995 108.49 29.4295 108 29.6895L108.84 30.7895L110.11 32.5595L112.69 29.5795L112.13 28.6895C111.75 28.9695 110.31 30.8395 109.85 30.3695L109.88 29.7195C110.34 29.7995 111.87 28.2395 111.71 28.0095" fill="#E31522"/>
<path d="M57.5098 25.6605C55.4698 25.9105 53.6498 27.0305 52.7998 28.9305L52.4498 29.0305L50.0898 24.7205C50.0998 24.3005 51.7398 22.9505 52.1698 22.7505C52.8498 22.4405 54.5898 22.0205 55.1598 22.5205L57.5198 25.6505L57.5098 25.6605ZM56.3298 25.1505C55.9298 24.8405 54.8098 23.0705 54.5298 22.9805C54.2598 22.8905 52.8398 23.1405 52.7898 23.3905L53.4898 24.8005L54.8898 24.3005L55.5198 25.3005L56.3398 25.1505H56.3298ZM55.1498 25.6505L54.7098 24.9905L53.3998 25.4705C53.1298 25.3605 52.0598 22.7805 51.7698 23.8905C51.6898 24.1905 53.1498 26.6205 53.3898 26.6605L55.1398 25.6505H55.1498ZM51.4298 24.4805L51.0098 24.6505C50.8498 24.8905 51.9898 26.8305 52.2398 27.1405C52.6898 27.6805 53.0798 27.5305 52.9298 26.9605C52.7898 26.4605 51.5098 25.2105 51.4298 24.4805Z" fill="#E31522"/>
<path d="M111.73 22.3206C111.91 22.2206 112.84 22.2606 113.12 22.3006C114.15 22.4506 116.84 23.7406 116.52 24.9906C116.39 25.5106 114.26 29.0406 113.97 29.0406C113.28 27.8306 112.43 26.7506 111.13 26.1406C110.81 25.9906 109.16 25.5906 109.16 25.4106C109.96 25.1006 111.37 22.5306 111.72 22.3206M113.89 23.3006C111.92 22.3406 111.63 23.8206 110.52 25.0706C111.48 25.6406 112.6 25.9006 113.3 26.8406L115 23.9706L114.57 23.7106L113.45 25.5006L111.54 24.7306C111.97 24.2506 112.66 25.0906 113.19 24.7806C113.31 24.7106 114.03 23.5706 113.9 23.3006M115.75 24.4806C115.37 24.0406 114.12 27.2006 113.56 27.0206L113.98 27.6806C114.2 27.7806 114.62 26.9506 114.74 26.7606C114.96 26.4106 115.99 24.7606 115.75 24.4806Z" fill="#E31522"/>
<path d="M57.0097 33.7597C56.4197 33.2297 53.1097 30.1697 53.1597 29.6597C53.6297 27.9097 56.3297 25.8297 58.1097 26.1697C58.7397 26.2897 61.1697 28.6597 61.9097 29.1197C59.6597 30.0597 57.7897 31.3297 57.0197 33.7597M60.5497 29.0297L57.7797 26.8497C56.6997 26.7997 54.0197 28.5297 54.1297 29.6197C54.1797 30.0497 56.4797 32.4797 56.7497 32.4097C57.7197 31.0397 58.8797 29.5397 60.5497 29.0297Z" fill="#E31522"/>
<path d="M63.9297 45.0705L63.8297 45.5905L63.0897 45.9105C63.7297 46.0005 64.0397 46.8105 64.5397 47.0705C65.1097 47.3605 65.9697 47.1105 65.9697 48.0205C65.9697 48.5305 65.6297 48.8805 65.1097 48.7105C64.4097 48.4905 64.6497 47.4105 63.7697 47.2605L63.6897 48.9505C64.7897 50.2805 68.7997 53.2105 69.2897 54.6505C69.4397 55.1005 69.7997 56.9205 68.9997 56.2605L68.7497 55.0205L62.9097 49.1605C62.4297 48.4105 63.9697 46.3605 62.2497 46.2405L61.9297 48.5005L61.2397 48.6005L61.7497 45.0605H63.9397L63.9297 45.0705Z" fill="#E31522"/>
<path d="M104.75 45.0898L105.45 48.6098L104.86 48.4398L104.36 46.2398C104.14 45.8898 103.62 46.5998 103.6 46.8398C103.54 47.4698 104.2 48.4298 103.85 49.1098L98.3701 54.4298C97.9801 54.9598 97.8101 55.6298 97.8701 56.2798C96.7301 56.7298 97.3701 54.7698 97.7001 54.2598C98.3601 53.2898 103.09 49.3198 103.25 48.6598C103.34 48.2798 102.95 47.6698 102.94 47.2598C102.29 47.4298 102.37 48.2198 102.1 48.5298C101.54 49.1598 100.43 48.2498 100.9 47.5498C101.2 47.2098 101.71 47.3498 102.09 47.1698C102.45 46.9998 103.14 46.0598 103.62 45.8298L102.77 45.6698L102.79 45.0898H104.78H104.75Z" fill="#E31522"/>
<path d="M108.95 91.6894C109.59 91.5594 110.14 91.9394 110.18 92.5994C110.21 93.1894 109.61 93.2394 109.51 93.7694C109.28 94.9894 109.81 99.6094 109.42 100.259L101.49 105.829C101.15 105.589 101.12 105.179 101.4 104.899L108.74 99.7494C108.9 99.4194 108.89 93.8894 108.74 93.5094C108.58 93.1094 107.96 92.7394 108.41 91.9794C108.55 91.8294 108.76 91.7194 108.96 91.6794" fill="#E31522"/>
<path d="M61.8999 87.4401V95.2901C62.4299 96.1401 64.2299 96.6101 63.7499 97.7401L61.2199 95.6301V87.6101C60.5699 87.6401 59.6999 89.2501 59.1099 89.1301C58.9299 89.0901 58.8199 88.8501 58.9399 88.6201C59.0899 88.3301 61.3799 86.0601 61.6199 86.1001C62.1299 86.7901 63.8499 87.9801 64.1799 88.6201C64.3299 88.9201 64.2099 88.9401 64.0099 89.1301C63.4399 89.2801 62.4599 87.6701 61.8999 87.4401Z" fill="#E31522"/>
<path d="M105.62 87.4391V95.6291C105.21 95.9491 103.56 97.6491 103.18 97.5691C103 97.5291 102.89 97.2891 103 97.0591C103.25 96.5791 104.49 95.6891 104.95 95.2891V87.6091C104.26 87.6191 103.48 89.2891 102.84 89.1291L102.67 88.6191L105.23 86.1191C105.5 86.1191 107.7 88.3291 107.85 88.6791C107.94 88.8891 108 89.0691 107.73 89.1291C107.13 89.2591 106.19 87.6791 105.62 87.4391Z" fill="#E31522"/>
<path d="M54.4797 21.7699C52.5697 21.6299 50.9497 22.4599 49.8397 23.9599C49.5897 23.9599 48.3697 19.4999 48.4897 19.2299C49.3397 18.4099 51.7897 17.6899 52.7897 18.3099C53.0697 18.4799 54.0697 21.2899 54.4797 21.7699ZM53.2897 21.0999C52.4697 19.4499 52.4297 18.0599 50.1497 19.0699L50.9197 21.7799L53.2797 21.0999H53.2897ZM49.7497 19.4099C49.4697 19.3699 49.2797 19.5099 49.2697 19.7999C49.2697 20.1599 49.7597 21.5799 49.8997 22.0499C49.9697 22.2699 49.7797 22.5199 50.1697 22.4399C50.2997 22.4099 50.6997 22.2599 50.5997 22.0299L49.7497 19.4099Z" fill="#E31522"/>
<path d="M58.0598 93.3806C57.7498 93.8806 58.1898 98.9006 58.0598 99.8906L63.8598 103.971L63.7698 104.481L63.1698 104.321L57.4398 100.261C56.9898 99.3406 57.6198 95.1506 57.3498 93.7606C57.2498 93.2306 56.6498 93.1906 56.6798 92.5906C56.7398 91.4506 58.4698 91.2806 58.5598 92.5706C58.6098 93.3706 58.1898 93.1906 58.0798 93.3706" fill="#E31522"/>
<path d="M73.8899 72.2409L69.6599 71.6609L68.1499 68.5309C69.0099 68.6609 70.0299 68.1009 70.8499 68.4509C71.0799 68.5509 72.4399 70.1409 72.6999 70.4809C72.8799 70.7009 74.0399 72.1009 73.8899 72.2509" fill="#E31522"/>
<path d="M98.53 68.5294L97.01 71.6494L92.79 72.2394C93.44 71.3694 94.08 70.4294 94.82 69.6294C96.19 68.1494 96.43 68.1794 98.53 68.5294Z" fill="#E31522"/>
<path d="M118.27 19.0895L117.1 23.9695C116.9 24.1495 116.1 22.9995 115.83 22.7895C114.83 21.9895 113.46 21.6795 112.2 21.7695L113.93 18.2695C115.53 17.7195 116.88 18.3595 118.27 19.0895ZM117.42 19.4295C116.45 18.9895 115.5 18.5595 114.44 18.9395L113.56 21.2695C114.84 21.0595 115.68 22.0495 116.77 22.4495L117.43 19.4295H117.42Z" fill="#E31522"/>
<path d="M48.2297 14.2596C48.4397 13.6196 51.2197 13.7696 51.7797 14.2596L52.6197 17.6396C51.5597 17.5996 50.6597 17.4096 49.6297 17.8596C49.2197 18.0396 48.9297 18.4496 48.4797 18.5696C48.4097 18.5696 48.2197 18.1696 48.2197 18.1396V14.2596H48.2297ZM48.9097 14.7696V17.3896L51.6097 16.7996L51.0997 14.7796L49.1897 14.5496L48.9097 14.7796V14.7696Z" fill="#E31522"/>
<path d="M81.4799 77.9795C81.8699 78.7095 81.3999 79.4395 81.6099 80.1195C82.0699 81.6295 84.9599 81.5895 85.1899 80.0795C85.2399 79.7195 84.9899 78.1795 85.6199 78.3195C85.8599 78.4895 85.8799 78.6095 85.8699 78.8895C85.8499 79.2095 85.6999 80.6795 85.6199 80.8495C85.0699 82.0795 82.0899 82.0195 81.3199 80.9395C80.8299 80.2595 80.8099 77.4995 81.4899 77.9795" fill="#E31522"/>
<path d="M85.8699 82.0391C85.6999 83.9491 81.4499 83.8991 80.9799 82.2891C80.7499 81.5091 82.0999 82.6791 82.2499 82.7091C82.6399 82.7791 84.0299 82.7791 84.4499 82.7191C85.1799 82.6291 85.1599 81.9691 85.8799 82.0391" fill="#E31522"/>
<path d="M85.5298 84.0605C85.7598 85.6505 81.2898 84.9706 81.1398 84.4806C81.1098 84.4006 81.0898 84.0605 81.2298 84.0605C82.6498 84.5205 84.1298 84.5905 85.5298 84.0605Z" fill="#E31522"/>
<path d="M81.3098 73.9297C81.5098 73.8597 81.9798 74.0097 81.9798 74.1797V76.7097L81.5598 76.9597L81.2998 76.7097V73.9197L81.3098 73.9297Z" fill="#E31522"/>
<path d="M84.8599 74.1895L85.1999 74.0195C85.3699 74.1395 85.4699 76.1595 85.4799 76.5895C85.4799 77.0795 85.3599 77.2395 84.8699 77.1495V74.1995L84.8599 74.1895Z" fill="#E31522"/>
<path d="M76.6001 87.5895C76.2201 86.9995 77.1901 86.3495 77.5201 87.0995C77.7301 87.5695 76.8501 87.9795 76.6001 87.5895Z" fill="#E31522"/>
<path d="M81.31 104.32V111.33C81.31 111.43 81.95 111.77 81.99 112.18C82.08 113.02 81.01 113.64 80.39 112.93C79.67 112.11 80.69 111.75 80.8 111.16C80.93 110.49 80.93 105.93 80.8 105.26C80.76 105.07 80.74 104.92 80.52 104.86L79.45 104.84V108.89C79.25 108.96 78.78 108.82 78.78 108.64V104.84H77.94V107.88C77.74 107.95 77.27 107.8 77.27 107.63V104.34H81.32L81.31 104.32Z" fill="#E31522"/>
<path d="M75.5699 98.75C75.7099 99.65 76.6599 100.83 76.8499 101.61C76.9299 101.91 76.9299 101.92 76.6699 102.12C76.1699 102.23 75.2399 99.43 74.8999 99L75.5599 98.75H75.5699Z" fill="#E31522"/>
<path d="M66.9701 100.011C67.0101 99.9006 67.3601 99.8306 67.4301 99.7106C67.6601 99.3406 67.5101 98.5106 67.9801 97.9806C68.5601 97.3306 69.8901 97.4106 70.4401 98.0606C70.9801 98.6906 70.7001 99.3906 70.8901 99.7306C70.9401 99.8206 71.3601 99.9206 71.3601 100.021V102.721C71.3601 102.721 70.9701 103.141 70.9401 103.141H67.2301L66.9801 102.891C66.9801 102.311 66.8601 100.381 66.9801 100.021M69.9701 98.4506C68.8101 97.8306 68.0301 98.5206 68.1501 99.7606H70.1801L69.9701 98.4506ZM69.5001 102.461C69.4101 101.901 70.1101 100.231 68.9301 100.621C68.7501 100.681 68.6601 100.841 68.6501 101.021L68.8301 102.461H69.5001Z" fill="#E31522"/>
<path d="M69.1598 95.0302H71.1898V95.5402L69.4297 95.5602L69.1397 96.1902L68.4897 96.2102V92.4202L68.9098 92.1602L69.1598 92.4202V95.0302Z" fill="#E31522"/>
<path d="M89.42 108.029H88.91V104.819L88.09 104.849C88.1 105.029 87.9 105.329 87.9 105.419V108.879H87.39V105.079L87.11 104.849L86.04 104.819C86.24 106.739 85.78 109.139 86.04 110.989C86.12 111.559 86.54 111.629 86.57 112.159C86.64 113.419 84.94 113.449 84.87 112.319C84.84 111.789 85.31 111.549 85.38 110.989C85.5 110.009 85.13 104.539 85.38 104.309C86.65 104.309 88.27 103.779 89.43 104.389V108.019L89.42 108.029Z" fill="#E31522"/>
<path d="M91.5297 98.5802C91.8497 98.5702 91.7597 99.1902 91.6997 99.4202C91.5897 99.8802 90.9597 101.19 90.6897 101.62C90.5697 101.81 90.4997 102.17 90.1797 102.12C89.7697 102.06 90.1197 101.47 90.1797 101.28C90.3197 100.88 91.2897 98.5902 91.5197 98.5802" fill="#E31522"/>
<path d="M94.8198 100.52C94.8598 100.38 96.8398 98.5799 97.0198 98.4799C97.1798 98.3999 97.1898 98.3999 97.3598 98.4799C97.5798 98.5899 99.4598 100.5 99.5098 100.73C99.6398 101.25 99.5698 104.15 98.9598 104.15H95.2498C95.2498 104.15 94.8298 103.76 94.8298 103.73C94.8298 103.02 94.6898 101.03 94.8298 100.52M98.3598 101.45C98.5498 101.22 97.1098 99.5299 97.0098 99.5899L95.8298 101.36L96.6698 101.27V103.47H97.6798V101.27L98.3498 101.44L98.3598 101.45Z" fill="#E31522"/>
<path d="M98.3597 92.8401V96.4701C98.3597 96.8101 100.62 97.9601 99.4797 98.2201C99.2997 98.2001 97.9497 97.1701 97.8397 96.9801C97.6297 96.6001 97.7097 96.0801 97.6797 96.0401C97.5197 95.8601 95.3597 96.4701 95.9097 95.3601H97.6797V92.8301H98.3597V92.8401Z" fill="#E31522"/>
<path d="M78.0599 94.7204C79.3899 94.3304 79.4699 96.2404 78.3399 96.3404C77.4299 96.4304 77.3299 94.9404 78.0599 94.7204Z" fill="#E31522"/>
<path d="M87.8498 97.5194C87.3698 98.0094 86.3198 97.2694 86.3998 96.6794C86.8598 95.1194 88.6698 96.6794 87.8498 97.5194Z" fill="#E31522"/>
<path d="M88.0196 94.7204C88.8996 94.4804 89.7696 95.7004 88.9096 96.1304C87.8396 96.6604 87.0596 94.9804 88.0196 94.7204Z" fill="#E31522"/>
<path d="M79.23 96.0694C80.53 95.6394 80.7499 97.7594 79.3799 97.5694C78.5399 97.4494 78.68 96.2494 79.23 96.0694Z" fill="#E31522"/>
<path d="M78.3597 59.4205C78.5997 59.3705 82.0397 62.4505 81.9897 62.7105C81.9597 62.8305 81.6297 63.1005 81.4797 62.8805C80.6597 62.0205 79.6397 61.3305 78.7797 60.5205C78.6297 60.3805 77.6797 59.5605 78.3597 59.4205Z" fill="#E31522"/>
<path d="M81.48 54.6895H81.99C82.01 55.3295 81.97 55.9795 81.99 56.6295C82.01 57.0795 82.41 57.5595 81.9 57.8995L81.48 57.6495V54.6995V54.6895Z" fill="#E31522"/>
<path d="M88.7399 59.5894C88.8899 59.7694 88.4399 60.1494 88.3199 60.2694C87.9399 60.6394 85.5899 62.7094 85.3099 62.8294C85.0999 62.9194 84.9199 62.9794 84.8599 62.7094C84.8099 62.4294 84.9499 62.2994 85.0999 62.1094C85.2599 61.9194 87.9699 59.6594 88.1499 59.5794C88.3399 59.4894 88.6699 59.5194 88.7399 59.5894Z" fill="#E31522"/>
<path d="M84.6897 54.6906C85.0097 54.5706 85.3597 54.8006 85.3597 55.1106V57.6406L85.0997 57.8906L84.6797 57.6406V54.6906H84.6897Z" fill="#E31522"/>
<path d="M89.7501 67.8609H89.0801C89.2201 67.5109 89.1601 66.5909 89.2801 66.3809C89.3301 66.2909 90.5101 65.4609 90.7701 65.0809C91.0701 64.6409 90.8601 63.9609 91.6901 63.9609C92.5301 63.9609 92.7401 65.2309 91.9901 65.4609C91.7201 65.5409 91.4101 65.4609 91.1001 65.5809C90.6301 65.7809 89.4001 67.2009 89.7501 67.8609Z" fill="#E31522"/>
<path d="M93.9998 62.9405C93.4398 62.0405 95.1598 61.2605 95.1698 62.5405C95.1798 63.3805 94.1398 63.1605 93.9998 62.9405Z" fill="#E31522"/>
<path d="M77.6001 67.8498L77.0901 67.7398C77.1301 67.1098 76.1601 65.9298 75.6701 65.6498C75.1101 65.3298 74.0901 65.6098 74.2601 64.5998C74.3501 64.0398 74.7901 63.8598 75.3201 63.9598C75.9201 64.0798 75.6301 64.5898 75.9001 65.0698C76.1601 65.5298 77.1701 65.9498 77.3401 66.3298C77.5101 66.6998 77.4801 67.4098 77.6001 67.8398" fill="#E31522"/>
<path d="M71.9699 61.8001C72.8499 61.5101 73.2499 62.8701 72.4099 63.1101C71.4799 63.3701 71.3099 62.0201 71.9699 61.8001Z" fill="#E31522"/>
<path d="M93.6803 78.3604C94.4803 77.5704 95.7603 79.0004 94.9203 79.6904C94.1603 80.3104 93.0103 79.0304 93.6803 78.3604Z" fill="#E31522"/>
<path d="M95.1098 76.6603C96.3498 76.3603 96.6298 78.8103 95.2098 78.2003C94.4698 77.8903 94.4598 76.8203 95.1098 76.6603Z" fill="#E31522"/>
<path d="M92.0702 81.2207C93.0202 80.9407 93.8502 82.1707 92.7402 82.5907C91.8102 82.9407 91.0902 81.5107 92.0702 81.2207Z" fill="#E31522"/>
<path d="M92.9 79.6903C93.54 79.4803 94.66 80.6903 93.8 81.1103C92.79 81.6103 91.99 79.9903 92.9 79.6903Z" fill="#E31522"/>
<path d="M73.4899 79.5408C74.2399 79.4708 74.5399 80.4108 73.8799 80.9308C72.6399 81.9108 72.1799 79.6608 73.4899 79.5408Z" fill="#E31522"/>
<path d="M73 78.3595L73.19 79.0495C71.49 81.1995 70.65 77.9195 73 78.3595Z" fill="#E31522"/>
<path d="M75.0397 81.2202C75.5097 81.5202 75.1897 82.6902 74.2997 82.6502C72.7897 82.5802 73.9897 80.5602 75.0397 81.2202Z" fill="#E31522"/>
<path d="M71.9898 76.8493C72.5798 77.4593 71.7198 78.5993 71.0198 78.2493C70.1198 77.7893 71.1398 76.1993 71.9898 76.8493Z" fill="#E31522"/>
<path d="M86.2099 100.939C86.0699 101.189 86.1299 101.419 85.7999 101.459C85.0899 101.549 81.8799 101.569 81.2399 101.439C80.9699 101.389 80.7299 101.199 80.6499 100.939H86.2199H86.2099Z" fill="#E31522"/>
<path d="M95.2697 41.2196C95.7197 41.0796 96.6697 41.0996 96.8197 41.6496C96.9097 41.9796 96.7197 42.2596 96.7497 42.4596C96.8397 43.0696 97.2297 43.4696 96.8097 44.2796C96.4297 45.0096 94.9597 44.6196 94.7197 43.8996C94.5197 43.2996 94.4897 41.4596 95.2697 41.2196ZM95.7697 41.5596L95.2297 41.8596V42.5496L96.3397 42.6296L96.4197 41.8596L95.7697 41.5596Z" fill="#E31522"/>
<path d="M71.3601 42.3691H72.8801C73.1401 43.3691 71.9001 43.1791 71.3601 43.8091L71.7001 44.2291C70.9401 44.6291 69.9601 44.8291 69.2601 44.2291C68.2501 42.4491 70.4001 41.6191 71.7901 41.3691L71.3701 42.3791L71.3601 42.3691Z" fill="#E31522"/>
<path d="M57.34 27.5098C57.65 27.8998 56.22 29.0098 55.9 29.1998C55.69 29.3198 55.54 29.4198 55.48 29.1198C55.4 28.7198 56.95 27.6598 57.33 27.5198" fill="#E31522"/>
<path d="M57.7901 28.7193C58.9001 28.6193 56.7501 30.2493 56.5901 30.2193C55.8001 29.9193 57.6301 28.7393 57.7901 28.7193Z" fill="#E31522"/>
<path d="M115.519 19.2906C117.079 19.2206 117.009 21.6106 115.189 21.0606C114.529 20.8606 114.379 19.3406 115.519 19.2906ZM115.529 19.7706C114.779 19.9706 115.169 20.9106 115.799 20.7506C116.549 20.5506 116.159 19.6106 115.529 19.7706Z" fill="#E31522"/>
<path d="M49.4102 16.5396L49.4902 15.1796L50.6002 15.0996L50.6902 16.3796L49.4102 16.5396Z" fill="#E31522"/>
<path d="M75.5797 74.5208C75.5497 74.4108 75.0697 73.7608 74.9897 73.7608C74.7097 74.1408 73.3297 75.1308 73.4697 75.6108L76.4197 79.9208L77.2497 76.6908C76.7997 74.8108 77.6097 72.9808 76.4097 71.3208C74.9097 69.2408 72.0497 66.9708 70.7697 64.9808C70.4097 64.4308 70.3397 63.7508 70.1697 63.1308C69.9097 63.0608 69.8897 63.2008 69.7497 63.3008C69.4997 63.4708 68.3097 64.6908 68.1697 64.9308C67.6797 65.8108 67.9797 66.8108 67.6597 67.6308C67.5897 67.8008 67.7397 67.9308 67.3897 67.8708C66.7797 67.7708 65.0997 65.7608 64.3197 65.3708C62.6397 64.5408 59.9897 64.4008 58.2697 63.4808C55.6197 62.0708 53.5497 59.4908 52.1997 56.9008C50.7997 54.2308 49.8697 51.4808 49.2797 48.5108C49.2197 48.2308 49.2297 48.2808 49.5097 48.2808C50.4897 48.2808 54.7197 49.7108 55.9697 50.1008C57.8397 50.6808 59.7097 51.2908 61.5697 51.9308L67.7697 58.4008C67.9297 58.4308 69.5497 57.3208 70.1497 57.2708C70.4797 57.2408 70.7797 57.4308 71.1197 57.4108C74.2997 57.2008 76.3097 57.1608 78.8097 54.9608C79.5197 54.3408 80.4297 52.8408 80.9097 52.5008C81.4497 52.1008 84.8497 52.4008 85.7297 52.4308C87.7597 54.8208 89.7497 56.9608 93.0797 57.2308C94.1497 57.3208 95.3997 57.1008 96.4397 57.2508C97.0897 57.3408 98.7897 58.3108 99.1197 58.2308C101.35 56.2208 103.15 53.6208 105.54 51.8108L117.64 48.3008C117.1 50.3808 116.64 52.5108 115.81 54.4908C114.43 57.7708 111.72 62.0508 108.39 63.6108C106.66 64.4208 103.77 64.6208 102.22 65.5408C101.47 65.9808 100.1 67.8208 99.3197 68.0508C98.9797 68.0908 99.0997 68.0408 99.0697 67.8008C98.9597 66.8808 99.0697 65.8708 98.6597 65.0008C98.4897 64.6508 96.9597 62.9708 96.7097 63.1508C96.4997 63.7508 96.3797 64.5708 96.0297 65.0908C95.2497 66.2908 92.9597 68.2708 91.8897 69.5608C91.3997 70.1508 89.9497 71.7608 89.8197 72.3908C89.6397 73.2908 89.5397 75.8008 89.6097 76.7408C89.6897 77.7408 90.0897 78.8708 90.2797 79.8608C90.4797 80.0208 93.1697 75.9808 93.2497 75.6408C93.3497 75.2308 92.1897 74.1908 91.8697 73.7908C91.6397 73.7108 91.2897 74.3008 91.2897 74.3808V77.0808L91.0297 77.3308L90.6097 77.0808V74.2108C90.6097 74.1108 91.7297 72.8908 92.0097 72.9608C92.4597 73.0808 93.3597 74.8608 94.0597 74.9608L98.1997 73.1908C98.6697 72.0308 97.8597 70.3708 99.2097 69.5608V75.5508C99.2097 75.9708 97.4397 78.4808 97.3997 79.2308L102.88 101.421V102.361L83.4197 120.201L63.7797 102.181L69.3097 79.5708C69.6297 78.6608 67.6297 76.1908 67.6297 75.7108V69.5508C68.4997 70.3008 68.5797 71.9608 68.3297 73.0008L72.7897 74.9408L74.9797 72.9608C75.1397 73.1208 76.0697 73.9508 76.0697 74.0308V77.1508H75.5597C75.4497 76.3908 75.7097 75.2408 75.5597 74.5308M114.4 49.9608L105.46 52.7508L99.6197 58.9008L100.39 60.7608C100.67 60.8208 100.73 60.6708 100.89 60.5008C102.42 58.9308 103.7 56.0908 105.29 54.4408L114.39 49.9608H114.4ZM61.0097 55.0808L50.5997 50.1308C50.5097 50.2208 51.1197 52.2908 51.2297 52.6208C52.4697 56.4408 55.0997 60.9208 58.8097 62.7708C59.4597 63.1008 63.6097 64.4508 64.2197 64.4708C64.8097 64.4908 64.9597 63.9708 64.9597 63.4608C63.2097 62.8808 60.9897 62.3408 59.3397 61.5708C56.6697 60.3208 53.8397 54.7008 52.7997 51.9908C54.7597 52.9408 56.8197 53.7308 58.7697 54.7208C59.2697 54.9708 60.0397 55.2708 60.4497 55.5708C61.2597 56.1508 63.7397 59.6908 64.4097 60.7208C64.6697 61.1208 64.9297 61.5108 65.1197 61.9508C64.8797 61.9808 64.6697 61.9308 64.4397 61.8808C63.6597 61.7008 60.6797 60.7008 60.0697 60.3408C59.2897 59.8808 58.4497 58.2408 57.7697 58.0808C57.5897 58.0408 56.8597 57.9508 57.0197 58.3308C57.9397 59.0108 58.5497 60.3708 59.5497 60.8708C61.1197 61.6508 63.4197 62.0208 65.0597 62.8108C65.4497 62.9308 65.8497 62.2908 65.8897 61.9808C65.9497 61.5608 61.4797 56.0108 61.0197 55.1008M52.7897 50.3008L61.4897 54.5208C63.1797 56.3408 64.4397 58.9308 66.0497 60.7608C66.2197 60.9508 66.1997 61.0008 66.3797 60.7608C66.6697 60.4008 66.7197 59.6408 67.0697 59.2408V58.9108L61.1497 52.6508C58.6197 51.9008 55.8997 50.7208 53.3397 50.1608C53.1697 50.1208 52.7497 49.9908 52.7897 50.2908M116.25 50.1308L105.77 55.1008L100.92 61.8908L101.33 62.8108C102.65 62.4108 103.98 62.0008 105.27 61.5208C105.89 61.2908 107.25 60.9108 107.7 60.5808C108.32 60.1108 109.25 58.7708 109.83 58.1508C108.41 57.7108 107.93 59.6108 106.74 60.3008C105.32 61.1208 103.07 61.3808 101.56 62.1208C101.45 62.0008 102.45 60.6108 102.6 60.3808C103.35 59.3008 105.21 56.4808 106.04 55.7208C106.47 55.3308 112.98 52.3308 113.75 52.1208C113.89 52.0808 114.18 51.8308 114.04 52.2408C113.63 53.4408 112.13 56.0708 111.41 57.2108C110.76 58.2408 108.64 61.0208 107.63 61.5308C106 62.3408 103.48 62.7808 101.72 63.4708L102.08 64.4508C102.27 64.5708 102.68 64.4508 102.91 64.4008C109.26 63.0208 112.4 60.2308 114.92 54.2908C115.49 52.9408 115.84 51.5308 116.24 50.1308M82.9997 53.1708C82.5897 53.2508 81.6397 53.0308 81.3497 53.2108C81.2597 53.2608 80.1597 54.6608 80.1397 54.7808C79.9897 55.5908 80.0197 58.1508 80.5497 58.7508C80.7397 58.9608 82.2697 59.9308 81.9897 60.2608C81.9497 60.3108 81.5797 60.3908 81.3997 60.2808C81.2197 60.1708 79.4597 58.6208 79.4597 58.4908V55.3708L76.7897 57.2508V60.4808L81.7497 64.8108L81.9897 65.6608L76.2497 60.8508V57.8108C76.1197 57.6508 76.1097 57.6108 75.8997 57.6208C75.6697 57.6208 73.3297 58.0708 73.2097 58.1508C72.9897 58.2908 72.6797 59.1608 72.7797 59.4108L82.3997 67.5308L82.9997 67.6908V53.1708ZM83.8497 53.1708V67.8508L94.0697 59.4108C93.8097 57.4908 91.9997 58.1008 90.5997 57.5508V60.6708C88.9597 62.0908 87.2697 63.9608 85.5397 65.2408C85.3097 65.4108 85.1997 65.5608 84.8597 65.4808L85.0197 64.7108L89.8897 60.4708L89.8397 57.2108L87.2197 55.3608V58.4808C87.2197 58.6308 85.1697 60.5808 84.8597 60.2508C84.7297 59.3108 86.3097 58.9608 86.5097 58.2708L86.5397 54.7608C85.8097 53.6408 85.3497 52.8408 83.8397 53.1508M70.0097 58.8208C69.8797 59.6508 70.0997 60.7408 70.0097 61.6108C70.9797 60.6908 71.6597 59.3508 72.2097 58.1508C71.4697 58.0008 70.1597 57.8608 70.0097 58.8208ZM96.8397 61.7808V59.3308C96.8397 59.1208 96.5597 58.2608 96.3397 58.1508H94.4797C95.0797 59.4608 95.8597 60.7408 96.8397 61.7808ZM69.1597 62.5408V58.5708L67.8997 59.4208L65.2997 65.0408L66.9597 66.3308C66.9797 65.7208 67.1297 65.0608 67.4297 64.5208C67.7197 64.0108 69.0497 62.8908 69.1497 62.5308M97.6897 58.9908C97.7497 60.2008 97.6897 61.4808 97.6897 62.7008C97.6897 62.8208 99.0597 64.0208 99.3497 64.5908C99.6397 65.1608 99.7897 65.6908 99.7197 66.3308C99.9197 66.5608 101.4 65.2908 101.4 64.9008C100.43 63.3508 99.5097 59.2708 97.7697 58.5708C97.2697 58.3708 97.6897 58.9608 97.6897 58.9908ZM77.7697 72.0808L82.3197 68.6208L72.2797 60.1008C72.1497 60.1008 70.9097 62.1308 70.8797 62.2508C70.8097 62.5308 71.1397 63.8508 71.2697 64.1508C71.5297 64.7408 74.9597 68.4708 75.6597 69.2108C75.8297 69.3908 76.2497 69.9108 76.4797 69.8708C77.0797 69.4008 77.6597 68.9108 78.2597 68.4308C78.3997 68.3208 78.4497 68.1108 78.5397 68.0308C79.1697 67.5208 79.6097 68.0308 79.1797 68.5408C78.9097 68.8708 76.7897 70.0908 76.7897 70.4708L77.7797 72.0808H77.7697ZM88.2097 67.8908C88.2597 67.9208 88.3797 68.2908 88.5697 68.4608C88.8597 68.7108 90.2097 69.9108 90.4397 69.8108L95.3297 64.4008C95.5297 64.0608 96.0397 62.7208 95.9997 62.3808C95.9497 61.8608 94.6797 60.6408 94.3997 60.1008L84.3597 68.6208L89.0797 72.0808L89.9397 70.3208L87.3997 68.2808C87.3197 67.9108 87.9397 67.7308 88.2197 67.8908M82.9997 69.3708C81.8997 69.7908 80.9497 70.8008 79.9897 71.5108L79.9697 85.2908L78.1897 86.5908C77.3897 86.1608 79.1197 85.2508 79.1197 84.9908V72.2508L77.9697 73.2108L77.9997 76.9508L75.2397 90.3108L79.9597 86.6708C80.8597 86.3908 82.3297 87.3108 83.4297 87.2908C84.5597 87.2708 86.1397 86.2708 87.1197 86.7908L91.6097 90.3108L88.7597 77.0408C88.4697 76.1608 89.1697 73.5608 88.7597 72.9908C88.6097 72.7808 87.9697 72.4908 87.7397 72.2408C87.6897 75.5908 87.7997 78.9408 87.7397 82.2908C87.7297 83.1408 87.2897 84.2708 87.7397 85.1108C87.8797 85.3708 88.9997 85.9208 88.9197 86.3408C88.8797 86.5208 88.6397 86.6308 88.4097 86.5108C88.3297 86.4708 86.9997 85.4308 86.9397 85.3608C86.3897 84.6708 86.8897 82.8208 86.8997 81.9608C86.9497 78.8108 86.7497 75.6608 86.7197 72.4908C86.7197 72.2108 86.8397 71.9508 86.8597 71.6708L83.8597 69.3708V79.7308L83.0097 80.0008V69.3708H82.9997ZM74.7297 87.9408C74.7997 86.2708 76.4797 82.2808 75.9897 80.8608C75.8797 80.5508 72.9397 76.1008 72.6997 75.8908C72.4797 75.7008 68.6397 73.9408 68.4897 74.1108L68.6197 75.7508L74.7297 87.9508V87.9408ZM98.3597 74.1008C98.1197 74.0508 97.9497 74.1608 97.7297 74.2308C97.0697 74.4708 94.5497 75.5008 94.1297 75.8608C93.0197 76.7808 91.7597 79.8308 90.6697 81.0108L90.5997 81.5808L91.9397 87.9308L98.2197 75.5608L98.3497 74.0908L98.3597 74.1008ZM82.9997 118.491V102.961L79.3297 102.581C78.8797 101.731 78.3297 100.931 77.8497 100.091C77.5197 99.5108 77.3297 98.7408 76.9997 98.2408C76.5297 97.5208 74.9797 96.5208 74.6897 95.8308C74.5097 95.4008 74.2297 92.5308 74.2197 91.9108C74.1997 91.0108 74.4197 90.3108 74.4897 89.4508L70.4297 81.3508L70.3397 81.6108C72.2297 88.5308 72.6397 96.8108 74.7297 103.561C75.9897 107.631 78.6697 111.891 79.9997 116.021C80.2597 116.281 82.8197 118.721 83.0097 118.491M83.8497 102.971V118.671C84.6197 117.791 86.1297 116.831 86.7497 115.921C88.9497 112.661 89.9897 106.901 92.1297 103.411L96.5097 81.4608C96.2097 81.1008 96.2497 81.4108 96.1597 81.6108C95.3997 83.2608 92.5597 88.1608 92.3197 89.4308C92.1897 90.1008 92.6397 90.7408 92.6397 91.4108C92.6397 92.0108 92.2197 95.6308 92.0297 96.0508C91.7597 96.6508 90.2097 97.4608 89.7497 98.1608C89.4397 98.6408 89.3197 99.3608 88.9997 99.9408C88.7897 100.321 87.6497 102.351 87.4897 102.481C86.8197 102.991 84.7597 102.771 83.8497 102.981M78.2697 114.271L73.7997 103.471L69.4997 82.7108L64.7897 102.001L70.4197 107.181L72.5997 104.811L73.3697 104.651C73.8597 105.121 70.8497 107.081 71.0197 107.741L78.2597 114.271H78.2697ZM88.5697 114.111L102.04 101.841L97.3397 82.7208C97.0697 82.7008 97.0797 83.1408 97.0297 83.3308C95.3697 89.8108 94.6697 96.7908 93.0397 103.311L88.5697 114.111ZM83.8497 99.2508H87.3097L91.1797 95.6908C91.3697 95.3708 91.7897 92.4008 91.7897 91.8908C91.7897 91.6408 91.7597 91.5808 91.6097 91.4008C91.4097 91.1508 88.3597 88.9508 88.1497 88.9508C86.6697 90.1408 84.4797 91.7908 82.5097 91.2208C81.0397 90.8008 79.7597 89.8608 78.5597 88.9608C77.9397 89.7208 75.6997 90.7408 75.2297 91.3808C74.8197 91.9508 75.5397 94.6708 75.4997 95.5208L79.6397 99.3108L79.8897 99.2308H82.8397L82.5697 96.8808C81.5297 96.1908 80.6597 95.0908 79.7097 94.3408C79.2597 93.9808 77.3397 93.0108 77.2897 92.8708C77.2097 92.6408 77.2097 91.4708 77.2897 91.2408C77.3897 90.9508 78.4297 90.4208 78.6997 90.1508C79.8897 91.1208 82.3497 92.4908 83.8897 92.2708C85.1197 92.0908 86.9797 90.9108 87.9797 90.1608L89.3797 90.9908V92.9508C87.2097 93.6508 85.8597 95.5508 84.0997 96.8708L83.8397 99.2308L83.8497 99.2508ZM87.6397 100.101C84.7497 100.231 81.8297 100.001 78.9497 100.101C79.4597 102.081 80.6097 102.061 82.3997 102.131C83.8897 102.201 85.3697 102.031 86.8397 101.841C86.9797 101.781 87.8297 100.371 87.8897 100.181C88.0397 99.6908 87.6497 100.101 87.6397 100.101Z" fill="#E31522"/>
<path d="M2.043 183.859V155.257H5.7204L25.1289 176.709V155.257H29.5826V183.859H25.9052L6.49674 162.408V183.859H2.043ZM33.6856 179.324V159.793L38.221 155.257H56.6897L61.2252 159.793V179.324L56.6897 183.859H38.221L33.6856 179.324ZM39.692 180.019H55.2188L56.7715 178.466V160.651L55.2188 159.098H39.692L38.1393 160.651V178.466L39.692 180.019ZM65.3281 183.859V155.257H69.6184L82.3259 176.3H82.3667L95.1151 155.257H99.4054V183.859H94.9516V162.816L82.571 183.042H82.1624L69.7819 162.816V183.859H65.3281ZM110.258 155.257H124.845L132.649 183.859H128.277L126.07 175.81H109.032L106.825 183.859H102.453L110.258 155.257ZM125.253 172.296L121.535 159.098H113.567L109.849 172.296H125.253ZM135.716 155.257H158.72L163.255 159.793V179.324L158.72 183.859H135.716V155.257ZM157.249 180.019L158.802 178.466V160.651L157.249 159.098H140.17V180.019H157.249Z" fill="white"/>
<path d="M126.55 91.8293C126.75 91.9993 126.77 94.8193 126.7 95.2793C126.14 99.3693 114.42 108.989 110.93 111.739C102.34 118.519 93.2299 124.669 83.9299 130.429C72.9099 123.629 62.2099 116.269 52.2899 107.939L41.0899 116.289C37.9299 113.559 34.8499 110.339 32.2999 107.009C31.8499 106.419 30.4499 104.059 30.0999 103.799C29.8199 103.599 28.2499 103.579 27.6099 103.419C19.7699 101.569 19.3799 90.0293 27.0899 87.4693C36.1499 84.4593 42.3099 96.4593 34.7599 101.969L34.7299 102.189C36.4799 105.129 38.9099 107.579 41.3199 109.969L52.5099 101.789C54.9699 103.779 57.3399 105.869 59.8099 107.839C67.4999 113.949 75.6399 119.489 83.9399 124.729C92.7299 119.189 101.52 113.219 109.59 106.669C111.35 105.239 121.83 96.1493 121.83 94.6093V91.8193H126.56L126.55 91.8293ZM28.9399 91.8693C26.9399 92.2193 25.7599 94.5893 26.3299 96.4193C27.0499 98.7493 29.8499 99.7093 31.8399 98.3093C34.9599 96.1193 33.1199 91.1393 28.9399 91.8593" fill="#E31522"/>
<path d="M126.55 81.3591H140.22V97.3091C140.22 97.7591 139.52 99.3591 139.58 99.6491C139.61 99.7991 140.86 101.349 141.09 101.839C145.41 110.879 133.52 118.379 127.22 111.149C121.9 105.039 127.41 95.6591 135.31 97.3991C135.23 97.1891 135.48 96.8991 135.48 96.8091V86.2591H121.81V48.1091L105.69 40.0091C105.43 39.6491 108.68 37.0391 108.99 36.5391L126.54 45.1491V81.3591H126.55ZM133.43 101.999C132.32 102.039 130.66 102.769 130.23 103.859C129.22 106.419 131.27 109.089 133.7 109.849C136.01 108.919 137.88 106.129 136.77 103.639C136.33 102.649 134.46 101.959 133.44 101.999" fill="#E31522"/>
<path d="M44.8597 119.84C44.7897 119.56 44.9497 119.5 45.1097 119.34C45.4097 119.04 48.4597 116.86 48.6797 116.84L49.0197 116.93C59.9897 125.87 71.7397 133.86 83.9297 141.06C97.1997 132.99 110.09 124.2 121.88 114.07C122.13 113.92 122.28 114.07 122.49 114.21C122.85 114.44 125.66 116.72 125.7 116.93C125.68 117.22 125.4 117.4 125.21 117.58C123.2 119.51 120.42 121.64 118.2 123.4C107.47 131.93 95.7697 139.63 83.9297 146.53L83.3997 146.4C71.9597 139.54 60.6697 132.33 50.1897 124.07C48.4197 122.67 46.6997 121.12 44.8697 119.85" fill="#E31522"/>
<path d="M61.5697 40.5095L45.8997 48.5595L45.9597 94.6895L48.5797 97.9895L44.9397 100.939C44.5597 100.939 41.0897 96.3695 41.1397 95.4595L41.1697 45.3495L57.8097 36.9895C57.9497 36.9395 58.0597 36.9895 58.1797 37.0395C58.2797 37.0895 59.6397 38.3395 59.8797 38.5595C60.1397 38.7995 61.7297 40.2795 61.5697 40.4995" fill="#E31522"/>
<path d="M27.47 36.4601L49.58 27.0801C49.9 27.5201 50.06 28.0501 50.35 28.5101C50.63 28.9401 52.12 30.7801 51.93 31.0501L32.19 39.7501V81.5301H27.46V36.4601H27.47Z" fill="#E31522"/>
<path d="M86.55 31.2299L72.94 36.1199L72.45 35.9599L69 32.4899L81.8 27.9899L81.76 13.1399L84.06 12.1699L98.66 18.5299C99.25 18.6299 99.39 17.9399 99.73 17.6499C103.51 14.3499 109.12 14.4699 112.18 18.6099C111.38 20.3099 110.44 21.9699 109.08 23.2799C107.84 17.1099 99.01 20.8899 102.85 26.1299L104.61 27.2399L100.62 30.3499C98.53 29.2399 97.51 26.7699 97.19 24.5399C97.12 24.0799 97.35 23.3299 97.02 23.0199L86.55 18.5499V31.2099V31.2299Z" fill="#E31522"/>
<path d="M140.22 76.4601H135.5V39.3301L115.07 30.3801L117.45 26.3301L140.22 36.3801V76.4601Z" fill="#E31522"/>
<path d="M76.7601 15.3594V20.5894L61.9701 27.0094C61.2601 27.0494 58.2901 24.2694 57.8501 23.4594L76.7601 15.3594Z" fill="#E31522"/>
<path d="M33.94 84.6805C33.09 83.9005 33.54 82.0905 34.65 81.7005L34.77 68.3205L38.44 64.7405L38.47 43.4205L56.05 34.9805L56.51 35.3805L39.15 44.1805L39.12 65.2505C38.61 66.3705 35.72 67.8605 35.57 68.9605V81.4605C35.66 81.9105 36.38 82.0805 36.66 82.5705C37.66 84.3005 35.28 85.9205 33.94 84.7005M35.02 82.4005C33.84 82.5805 34.07 84.5905 35.31 84.4005C36.49 84.2305 36.28 82.2105 35.02 82.4005Z" fill="#E31522"/>
<path d="M25.4399 46.5891V84.5691H32.1899L32.1699 85.2191C31.9599 85.4791 28.6899 85.2491 28.0599 85.2391C27.7499 85.2391 27.3999 85.4191 27.0499 85.4191C26.3199 85.4191 25.4099 85.0691 24.5999 85.2391V46.5891C24.5999 46.5391 24.0399 46.4791 23.7799 45.9791C23.0299 44.5291 24.6999 43.0791 25.9499 43.9791C26.8699 44.6391 26.5999 46.3991 25.4499 46.5891M25.5699 44.5991C24.8099 43.8391 23.7999 45.3391 24.5999 45.8291C25.4099 46.3191 26.2099 45.2491 25.5699 44.5991Z" fill="#E31522"/>
<path d="M51.2199 110.26C52.3699 110.02 53.4199 110.71 53.5599 111.91C53.6199 112.41 53.2799 112.83 53.6299 113.18L76.3299 129.41C77.2799 128.68 78.6799 128.85 79.1999 129.98C80.5299 132.81 76.1799 134.07 75.6699 131.3C75.5799 130.81 75.8299 130.25 75.6599 129.98C75.5899 129.87 74.3599 129.02 74.0999 128.83C67.1399 123.63 59.8799 118.77 52.8699 113.67C50.2099 115.57 48.3699 110.86 51.2199 110.27M51.2199 111.1C50.3499 111.36 50.3499 112.97 51.2199 113.22C53.2899 113.83 53.3599 110.47 51.2199 111.1ZM77.2199 129.84C75.8899 130.14 76.2499 132.48 77.9899 131.96C79.0199 131.65 78.9099 129.46 77.2199 129.84Z" fill="#E31522"/>
<path d="M35.6001 56.8609C35.6001 56.8609 36.1301 57.0509 36.3301 57.2209C38.2201 58.8009 36.3701 61.5309 34.3401 60.5609C32.6201 59.7409 33.0201 57.3609 34.7301 56.7709L34.8101 41.5209L49.4801 34.2509C51.2101 30.7809 53.7501 35.8109 49.8701 34.9809L35.6501 42.0309L35.6001 56.8609ZM35.0201 57.5909C33.6501 57.8109 33.7001 60.0809 35.3101 59.9209C36.9401 59.7609 36.5501 57.3509 35.0201 57.5909Z" fill="#E31522"/>
<path d="M110.99 115.08C110.82 113.61 111.3 111.87 113.12 112.08C115.37 112.35 115.24 116 112.79 115.97C112.26 115.97 111.89 115.42 111.37 115.71C105.8 119.9 100.07 123.87 94.4995 128.05C93.9295 128.48 91.6795 130 91.4195 130.39C91.1395 130.81 91.8895 132.28 90.4895 132.99C87.0095 134.75 86.4895 127.84 90.7095 129.77L110.98 115.09L110.99 115.08ZM113.68 113.13C113.01 112.46 111.21 113.19 111.78 114.44C112.58 116.2 114.87 114.33 113.68 113.13ZM89.3695 130.17C87.9595 130.42 88.2495 132.59 89.6495 132.5C91.0895 132.41 90.9795 129.88 89.3695 130.17Z" fill="#E31522"/>
<path d="M132.8 45.5799V76.2999L132.11 76.2299L131.94 75.7199V45.6899C128.95 44.6099 131.11 40.3499 133.55 42.1999C134.88 43.2099 134.38 45.2499 132.79 45.5799M132.08 42.5699C130.83 42.9399 131.13 44.9899 132.51 44.8699C134.09 44.7399 133.7 42.0899 132.08 42.5699Z" fill="#E31522"/>
<path d="M122.78 110.25L128.33 114.44C128.53 114.75 128.12 115.26 127.65 114.96C126.19 114.05 124.69 112.25 123.23 111.43C123.05 111.33 122.9 111.19 122.68 111.32L95.1502 131.42L94.4902 131.07L122.79 110.26L122.78 110.25Z" fill="#E31522"/>
<path d="M128.75 63.3004C128.61 63.0704 127.52 62.9604 127.64 61.7704C127.83 59.8504 130.53 59.9704 130.62 61.8704C130.67 62.9504 129.59 63.2704 129.59 63.3804V78.5704L129.84 78.8204H140.64C140.76 78.8204 141.18 77.5804 142.32 77.6304C144 77.7004 144.29 80.2404 142.65 80.5004C141.19 80.7304 140.88 79.5004 140.63 79.5004H128.73V63.3004H128.75ZM129.72 62.4104C130.46 61.6704 129.03 60.5604 128.5 61.4404C128.01 62.2504 129.08 63.0504 129.72 62.4104ZM142.19 78.3604C140.99 78.4604 141.68 80.5704 142.76 79.5904C143.32 79.0804 142.79 78.3004 142.19 78.3604Z" fill="#E31522"/>
<path d="M38.3899 72.6207C40.9799 72.0207 41.8499 75.6907 39.3599 76.4607V101.451C40.5899 101.911 40.8399 103.681 39.5799 104.191C37.6499 104.981 36.6399 102.271 38.5299 101.451V76.4707C36.7099 75.9807 36.5699 73.0507 38.3999 72.6307M39.7399 75.4007C40.9299 74.4407 39.2699 72.5107 38.1499 73.6407C37.0899 74.7107 38.5699 76.3507 39.7399 75.4007ZM38.8899 102.161C37.9499 102.241 38.0999 103.731 39.0199 103.651C39.8799 103.571 39.8399 102.081 38.8899 102.161Z" fill="#E31522"/>
<path d="M129.419 55.0291H128.579V42.7891L111.189 34.4291L111.639 33.7891L129.419 42.4491V55.0291Z" fill="#E31522"/>
<path d="M79.6301 14.5195V24.8195L71.4701 28.3495C71.3301 29.2295 70.8501 30.2795 69.8001 30.1895C67.7301 30.0095 68.1601 26.9995 69.9101 27.1795C70.3001 27.2195 70.5601 27.5395 70.8501 27.6195C71.4901 27.7795 77.5601 24.6795 78.7001 24.3195L78.9401 14.5995L79.6301 14.5295V14.5195ZM69.6201 28.0495C69.0001 28.2395 69.0101 29.1595 69.6201 29.3395C70.9001 29.7195 70.9001 27.6695 69.6201 28.0495Z" fill="#E31522"/>
<path d="M70.5101 129.97L69.9101 129.82L55.9401 120.06C53.0801 121.38 52.9001 116.77 55.5401 117.35C56.9001 117.65 56.2601 118.88 56.6601 119.44L70.6601 129.41L70.5101 129.98V129.97ZM55.0901 118.03C54.3201 118.09 54.1701 119.4 54.9001 119.52C56.1001 119.72 56.1401 117.94 55.0901 118.03Z" fill="#E31522"/>
<path d="M130.1 88.9604C130.57 86.7804 133.7 86.9704 133.82 89.2104C133.9 90.6504 133.07 91.2804 131.69 91.1704C130.31 91.0604 130.49 89.9304 129.84 89.8104L116.66 89.6504L116.59 88.9604H130.09H130.1ZM131.74 88.1404C130.42 88.3404 130.58 90.5604 132.03 90.4704C133.6 90.3704 133.36 87.8904 131.74 88.1404Z" fill="#E31522"/>
<path d="M51.2101 98.9302C51.4301 98.8902 51.9301 99.3402 51.7001 99.6002L41.0801 107.5L40.6401 107.1L51.2101 98.9302Z" fill="#E31522"/>
<path d="M106.3 23.1197L106.89 22.6197C107.98 23.9997 107.5 25.8397 105.63 25.9897C105.56 25.9397 106.61 25.0697 106.27 24.5097C106.24 24.4497 105.95 24.3897 105.81 24.2097C105.66 24.0197 105.57 23.1497 105.25 23.8497C105.07 24.2297 105.29 24.5997 104.62 24.4797C104.58 25.0997 104.94 25.5497 105.29 25.9897C103.75 25.8297 103.39 24.8397 103.64 23.4097C103.65 23.3297 103.91 22.6397 103.94 22.6097C104.36 22.2097 104.17 23.2197 104.44 23.1197C104.64 22.3397 105.23 21.7897 104.95 20.9297C105.85 21.2097 106.47 22.1597 106.3 23.1197Z" fill="#E31522"/>
<path d="M127.89 96.0191C128 95.8291 127.17 94.2391 128.52 93.3691C130.75 91.9291 132.7 95.2991 130.67 96.5291C129.39 97.2991 128.84 96.4491 128.37 96.5791C127.96 96.6791 127.46 97.7591 126.84 97.7091L126.4 97.3191C126.53 96.9391 127.85 96.1191 127.9 96.0291M130.39 95.8291C131.31 94.9691 130.22 93.2691 128.99 94.0091C127.44 94.9391 129.3 96.8691 130.39 95.8291Z" fill="#E31522"/>
<path d="M48.5701 113.26L48.7201 113.83L42.1501 118.75L41.9201 118.82C41.5701 118.59 41.2601 118.3 41.7301 117.99L48.5601 113.26H48.5701Z" fill="#E31522"/>
<path d="M27.8097 94.9508C27.8497 94.8308 28.2297 94.7508 28.2797 94.6608C28.4497 94.3608 28.2197 93.5908 28.7097 93.0608C29.3897 92.3108 31.0697 92.6608 31.3097 93.6408C31.3997 93.9808 31.2797 94.4608 31.3897 94.6708C31.4397 94.7508 31.8597 94.8508 31.8597 94.9508V97.4808C31.8597 97.4808 31.3297 97.9008 31.2697 97.9008H28.2297C28.1697 97.9008 27.9697 97.6808 27.8097 97.7308C27.8097 97.1608 27.6897 95.3008 27.8097 94.9408M30.6797 94.6908L30.4397 93.4908C29.3697 92.9608 28.8797 93.6408 28.9897 94.6908H30.6797ZM29.9997 97.2308C30.5997 94.7108 28.9197 94.6608 29.4897 97.2308H29.9997Z" fill="#E31522"/>
<path d="M131.3 104L133.56 102.98L135.77 103.97C136.25 105.44 135.38 107.96 133.94 108.58C132.97 109 131.44 106.96 131.3 106.08C131.26 105.81 131.24 104.11 131.31 104" fill="#E31522"/>
<path d="M118.449 14.0101V18.3101L118.109 18.4901C116.979 17.6001 115.629 17.3701 114.229 17.6301L114.899 14.2501C115.999 13.7001 117.269 13.7501 118.449 14.0001M117.769 17.3901V14.7701C117.549 14.2901 115.539 14.5601 115.429 14.7001L115.069 16.8701C115.999 16.8201 116.949 16.9001 117.769 17.3801" fill="#E31522"/>
<path d="M79.4599 49.4608C79.4599 50.2108 80.1099 50.9608 79.9299 51.6908C79.7599 52.3908 77.7299 54.3008 77.0799 54.7608C75.0899 56.1408 73.2199 56.1208 70.8699 56.1908L70.1699 53.6808C72.6199 53.5708 75.1399 52.6808 77.1399 51.2808C77.8499 50.7908 78.4399 50.0208 79.0299 49.6208C79.1699 49.5208 79.1999 49.3908 79.4499 49.4508" fill="#E31522"/>
<path d="M96.5103 53.6807L95.7303 56.1907C92.4703 56.3207 89.9503 55.5107 87.8203 53.0107C86.6103 51.5907 86.4603 51.1907 87.4903 49.4707C89.8003 52.0307 93.0903 53.4507 96.5203 53.6907" fill="#E31522"/>
<path d="M96.8396 53.1696C93.4796 52.7096 90.1496 51.2896 87.8096 48.7796L89.9196 44.2996C90.1896 44.1296 93.8696 46.0596 94.4296 46.3896C94.8796 46.6496 97.8296 48.5896 97.9496 48.7796C98.2696 49.2996 96.8096 52.3196 96.8396 53.1596M91.9496 45.9196L90.2596 45.3096C89.9596 46.0496 88.5096 48.1096 88.8296 48.7796C88.8996 48.9296 89.9796 49.7696 90.2096 49.9396C91.0396 50.5296 93.8196 51.9496 94.7596 51.9896C95.8396 52.0396 95.3096 49.4896 96.5096 49.6296C96.8196 49.9196 95.1196 52.2896 96.3396 52.3296L97.1096 49.1296C96.5396 48.6996 92.6496 45.9396 92.2896 46.2596L91.6296 48.0396C92.5896 48.7096 93.6296 49.2496 94.7996 49.3196C94.9396 49.8896 94.7696 50.5296 94.0796 50.2996C93.8596 50.2196 93.7696 49.8296 93.5296 49.6696C92.9496 49.2796 92.1196 49.0696 91.5196 48.6496L91.0196 49.3096L90.5996 49.0496L91.9496 45.9296V45.9196Z" fill="#E31522"/>
<path d="M68.6797 48.8095C71.2197 47.0795 73.7997 45.3895 76.6797 44.2695C77.0597 44.2995 78.7897 48.0695 78.9697 48.6995C76.7297 51.1395 73.4297 52.6795 70.1097 53.1495L68.6897 48.8095H68.6797ZM71.5397 51.9795C73.9697 51.7495 76.2497 50.2195 78.0297 48.6095C78.1197 48.3795 76.8297 45.4695 76.5897 45.3095C76.2397 45.0795 75.2397 45.6995 74.9397 45.9895L76.0797 49.2895C75.4897 49.4195 75.4797 48.9495 75.1597 48.6295L72.3597 50.2195C71.9797 50.0795 71.7297 49.8795 71.9497 49.4495C72.1997 48.9595 72.5997 49.2995 72.8897 49.1995C73.6597 48.9295 74.2897 48.2995 75.0797 48.0895L74.3097 46.2295L69.5797 49.1095L70.4397 52.1395L71.0297 52.2295C70.9297 51.4295 70.4897 50.6795 70.2997 49.9095C70.2497 49.7095 70.0897 49.3395 70.4397 49.2695C70.9297 49.1695 71.4197 51.5395 71.5497 51.9595" fill="#E31522"/>
<path d="M72.2001 37.9809C69.4401 38.8109 67.1901 40.5809 65.7001 43.0509L62.1001 38.7209C63.0601 36.2609 65.2801 34.4609 67.7601 33.6309C69.4901 34.8109 70.7801 36.4809 72.2001 37.9809ZM66.9701 36.4609C67.2801 36.1109 68.8601 38.4309 69.1001 38.4709L70.8401 37.5609L67.6801 34.4609C67.0901 34.3109 64.1701 36.3109 64.2601 36.8609C64.5101 37.3409 64.9301 37.2909 65.4101 37.3309L65.7901 38.6409C66.5101 38.6409 66.9801 38.5909 67.1201 39.4209C66.1301 40.2509 65.6601 37.9309 64.4401 38.3109L64.0001 37.1509C61.6701 38.6409 64.9301 40.2009 65.6901 41.7009L68.4601 38.8909C68.2201 37.9009 66.8401 37.5309 66.9601 36.4709" fill="#E31522"/>
<path d="M98.9495 33.6604C101.439 34.3704 103.599 36.2404 104.729 38.5704L101.129 42.8604C100.229 42.1704 99.6795 41.1404 98.7795 40.3404C97.5595 39.2604 96.0895 38.6104 94.6495 37.8904C94.6295 37.5904 98.5995 33.6804 98.9495 33.6504M100.899 41.8604L103.689 38.6504C103.949 38.0804 102.319 36.3704 101.819 35.9604C101.439 35.6504 99.5095 34.4204 99.1495 34.4704C98.6295 34.7004 95.7095 37.4204 95.9995 37.8104L97.5795 38.4604L99.7995 36.2904C100.709 36.6404 101.149 37.5104 102.179 37.4504C102.649 38.0104 102.549 38.7904 101.669 38.6604C101.139 38.5804 100.699 37.1004 99.7995 37.0104L98.0295 38.7504L99.9695 40.5104L100.899 41.8604Z" fill="#E31522"/>
<path d="M90.4302 43.7193C90.2602 43.5393 92.0702 40.9593 92.3202 40.6293C92.6502 40.1893 93.6202 38.6993 94.0602 38.6593C94.7902 38.5893 96.7602 39.7593 97.4002 40.2093C98.6302 41.0693 99.8202 42.2793 100.7 43.4993L98.2802 48.2793C95.8402 46.4993 93.4002 44.5193 90.4302 43.7193ZM97.0102 46.2493C97.1202 45.8393 97.7902 44.1393 98.2802 44.2293C98.6602 44.2993 98.4202 44.6093 98.3302 44.7793C98.0402 45.3593 97.6102 45.9093 97.3802 46.5393L97.6002 46.9393L98.0302 47.0193L99.8102 43.5393C99.2202 42.4093 95.3402 39.2393 94.2702 39.5293C93.9202 39.6293 91.6202 42.8893 91.6402 43.1393L97.0202 46.2593L97.0102 46.2493Z" fill="#E31522"/>
<path d="M105.12 38.1501C104.11 35.8701 102.19 33.8801 99.72 33.2501C99.65 32.9901 99.79 32.9701 99.89 32.8301C100.13 32.4901 103.72 29.7501 104.04 29.7101C105.9 29.4601 108.85 32.4401 109.3 34.1901L105.13 38.1501H105.12ZM104.06 30.5801C103.83 30.6301 101.07 32.6401 101.07 32.8301L102.5 33.7201C102.89 33.5101 104.22 31.7601 104.61 31.9901C105.13 32.4401 104.04 32.7401 104.12 33.1501L105.78 34.8801L104.81 36.0601L105.37 36.9601C105.83 36.2801 108.41 34.6101 108.3 33.8801C108.1 32.5501 105.42 30.2901 104.06 30.5801ZM103.53 33.6001L103.1 34.1601L104.5 35.4401L104.93 34.8901L103.53 33.6101V33.6001Z" fill="#E31522"/>
<path d="M51.9399 13.67C50.6899 13.46 49.6799 13.16 48.3999 13.5C48.7399 8.19 52.0299 3.63 55.6599 0C53.6099 4.27 51.6699 8.81 51.9499 13.67M51.0999 12.83C51.2299 9.81 51.8799 7.03 52.9599 4.22L51.8099 5.85C50.6599 7.98 49.4899 10.2 49.2399 12.65L51.0999 12.82V12.83Z" fill="#E31522"/>
<path d="M118.28 13.6698C117.15 13.0198 116.06 13.4598 114.91 13.6698C115.07 8.92984 113.18 4.57984 111.37 0.339844C115 3.76984 118.1 8.52984 118.29 13.6698M117.61 12.6598C116.92 9.62984 115.76 6.61984 113.73 4.21984C114.78 6.95984 115.68 9.85984 115.59 12.8298L117.61 12.6598Z" fill="#E31522"/>
<path d="M61.7299 38.1509C61.4699 38.2209 61.4499 38.0809 61.3099 37.9809C60.6799 37.5509 58.7499 35.5909 58.1099 34.9409C57.0999 33.9109 57.8399 33.0709 58.6299 32.0909C59.3799 31.1609 61.4599 29.6609 62.6799 29.7309C62.9599 29.7409 67.1399 32.7309 67.1399 33.0109C64.8199 34.0309 62.6199 35.7109 61.7399 38.1609M65.6199 33.0809C65.8599 32.7609 63.7699 31.2709 63.4799 31.0909C63.2599 30.9509 62.9799 30.7009 62.7599 30.6309C61.2499 30.1609 58.5599 32.6409 58.3799 34.1609L61.3199 36.9709L62.2499 35.5309L61.2399 34.3509C61.8299 33.5509 62.3299 34.8709 62.6899 34.9209L63.4299 34.6009C63.5199 34.4809 62.5799 33.2909 62.4299 33.1609C61.9599 32.7409 61.3499 33.0009 61.5699 31.9109C62.8499 31.7509 62.2999 32.2309 62.5599 32.6709C62.6399 32.8009 63.7799 33.8909 63.8799 33.9209L65.6199 33.0909V33.0809Z" fill="#E31522"/>
<path d="M76.2499 43.7209C73.2699 44.5409 70.8899 46.5709 68.3999 48.2809L66.1099 43.4809C67.2099 41.8109 68.8299 40.2809 70.6399 39.3809C71.3299 39.0409 72.3899 38.4009 73.0499 38.9009C73.4899 39.2409 75.9299 42.6709 76.1599 43.2209C76.2299 43.3909 76.2899 43.5309 76.2499 43.7209ZM68.6599 47.0909L75.0699 43.1109C75.1199 42.9009 72.7999 39.5809 72.5999 39.5109C71.4299 39.1309 67.5799 42.3309 66.9899 43.4909L68.6599 47.0809V47.0909Z" fill="#E31522"/>
<path d="M109.67 33.7595C108.92 31.4495 107.11 29.8095 104.77 29.1995L108.6 26.0195C110.82 26.2795 112.72 27.5095 113.55 29.6295C113.53 30.2595 110.31 33.1495 109.67 33.7595ZM111.7 28.0195C110.96 27.6595 109.65 26.7095 108.79 26.8595C108.65 26.8895 106.62 28.4295 106.47 28.5995C106.34 28.7495 106.25 28.7895 106.31 29.0195L107.55 29.4995C108.15 29.0395 108.62 28.3995 109.23 27.9495C109.38 27.8395 109.35 27.5795 109.77 27.6695C110.09 27.7395 109.96 28.1195 109.8 28.2895C109.42 28.6995 108.49 29.4295 108 29.6895L108.84 30.7895L110.11 32.5595L112.69 29.5795L112.13 28.6895C111.75 28.9695 110.31 30.8395 109.85 30.3695L109.88 29.7195C110.34 29.7995 111.87 28.2395 111.71 28.0095" fill="#E31522"/>
<path d="M57.5098 25.6605C55.4698 25.9105 53.6498 27.0305 52.7998 28.9305L52.4498 29.0305L50.0898 24.7205C50.0998 24.3005 51.7398 22.9505 52.1698 22.7505C52.8498 22.4405 54.5898 22.0205 55.1598 22.5205L57.5198 25.6505L57.5098 25.6605ZM56.3298 25.1505C55.9298 24.8405 54.8098 23.0705 54.5298 22.9805C54.2598 22.8905 52.8398 23.1405 52.7898 23.3905L53.4898 24.8005L54.8898 24.3005L55.5198 25.3005L56.3398 25.1505H56.3298ZM55.1498 25.6505L54.7098 24.9905L53.3998 25.4705C53.1298 25.3605 52.0598 22.7805 51.7698 23.8905C51.6898 24.1905 53.1498 26.6205 53.3898 26.6605L55.1398 25.6505H55.1498ZM51.4298 24.4805L51.0098 24.6505C50.8498 24.8905 51.9898 26.8305 52.2398 27.1405C52.6898 27.6805 53.0798 27.5305 52.9298 26.9605C52.7898 26.4605 51.5098 25.2105 51.4298 24.4805Z" fill="#E31522"/>
<path d="M111.73 22.3206C111.91 22.2206 112.84 22.2606 113.12 22.3006C114.15 22.4506 116.84 23.7406 116.52 24.9906C116.39 25.5106 114.26 29.0406 113.97 29.0406C113.28 27.8306 112.43 26.7506 111.13 26.1406C110.81 25.9906 109.16 25.5906 109.16 25.4106C109.96 25.1006 111.37 22.5306 111.72 22.3206M113.89 23.3006C111.92 22.3406 111.63 23.8206 110.52 25.0706C111.48 25.6406 112.6 25.9006 113.3 26.8406L115 23.9706L114.57 23.7106L113.45 25.5006L111.54 24.7306C111.97 24.2506 112.66 25.0906 113.19 24.7806C113.31 24.7106 114.03 23.5706 113.9 23.3006M115.75 24.4806C115.37 24.0406 114.12 27.2006 113.56 27.0206L113.98 27.6806C114.2 27.7806 114.62 26.9506 114.74 26.7606C114.96 26.4106 115.99 24.7606 115.75 24.4806Z" fill="#E31522"/>
<path d="M57.0097 33.7597C56.4197 33.2297 53.1097 30.1697 53.1597 29.6597C53.6297 27.9097 56.3297 25.8297 58.1097 26.1697C58.7397 26.2897 61.1697 28.6597 61.9097 29.1197C59.6597 30.0597 57.7897 31.3297 57.0197 33.7597M60.5497 29.0297L57.7797 26.8497C56.6997 26.7997 54.0197 28.5297 54.1297 29.6197C54.1797 30.0497 56.4797 32.4797 56.7497 32.4097C57.7197 31.0397 58.8797 29.5397 60.5497 29.0297Z" fill="#E31522"/>
<path d="M63.9297 45.0705L63.8297 45.5905L63.0897 45.9105C63.7297 46.0005 64.0397 46.8105 64.5397 47.0705C65.1097 47.3605 65.9697 47.1105 65.9697 48.0205C65.9697 48.5305 65.6297 48.8805 65.1097 48.7105C64.4097 48.4905 64.6497 47.4105 63.7697 47.2605L63.6897 48.9505C64.7897 50.2805 68.7997 53.2105 69.2897 54.6505C69.4397 55.1005 69.7997 56.9205 68.9997 56.2605L68.7497 55.0205L62.9097 49.1605C62.4297 48.4105 63.9697 46.3605 62.2497 46.2405L61.9297 48.5005L61.2397 48.6005L61.7497 45.0605H63.9397L63.9297 45.0705Z" fill="#E31522"/>
<path d="M104.75 45.0898L105.45 48.6098L104.86 48.4398L104.36 46.2398C104.14 45.8898 103.62 46.5998 103.6 46.8398C103.54 47.4698 104.2 48.4298 103.85 49.1098L98.3701 54.4298C97.9801 54.9598 97.8101 55.6298 97.8701 56.2798C96.7301 56.7298 97.3701 54.7698 97.7001 54.2598C98.3601 53.2898 103.09 49.3198 103.25 48.6598C103.34 48.2798 102.95 47.6698 102.94 47.2598C102.29 47.4298 102.37 48.2198 102.1 48.5298C101.54 49.1598 100.43 48.2498 100.9 47.5498C101.2 47.2098 101.71 47.3498 102.09 47.1698C102.45 46.9998 103.14 46.0598 103.62 45.8298L102.77 45.6698L102.79 45.0898H104.78H104.75Z" fill="#E31522"/>
<path d="M108.95 91.6894C109.59 91.5594 110.14 91.9394 110.18 92.5994C110.21 93.1894 109.61 93.2394 109.51 93.7694C109.28 94.9894 109.81 99.6094 109.42 100.259L101.49 105.829C101.15 105.589 101.12 105.179 101.4 104.899L108.74 99.7494C108.9 99.4194 108.89 93.8894 108.74 93.5094C108.58 93.1094 107.96 92.7394 108.41 91.9794C108.55 91.8294 108.76 91.7194 108.96 91.6794" fill="#E31522"/>
<path d="M61.8999 87.4401V95.2901C62.4299 96.1401 64.2299 96.6101 63.7499 97.7401L61.2199 95.6301V87.6101C60.5699 87.6401 59.6999 89.2501 59.1099 89.1301C58.9299 89.0901 58.8199 88.8501 58.9399 88.6201C59.0899 88.3301 61.3799 86.0601 61.6199 86.1001C62.1299 86.7901 63.8499 87.9801 64.1799 88.6201C64.3299 88.9201 64.2099 88.9401 64.0099 89.1301C63.4399 89.2801 62.4599 87.6701 61.8999 87.4401Z" fill="#E31522"/>
<path d="M105.62 87.4391V95.6291C105.21 95.9491 103.56 97.6491 103.18 97.5691C103 97.5291 102.89 97.2891 103 97.0591C103.25 96.5791 104.49 95.6891 104.95 95.2891V87.6091C104.26 87.6191 103.48 89.2891 102.84 89.1291L102.67 88.6191L105.23 86.1191C105.5 86.1191 107.7 88.3291 107.85 88.6791C107.94 88.8891 108 89.0691 107.73 89.1291C107.13 89.2591 106.19 87.6791 105.62 87.4391Z" fill="#E31522"/>
<path d="M54.4797 21.7699C52.5697 21.6299 50.9497 22.4599 49.8397 23.9599C49.5897 23.9599 48.3697 19.4999 48.4897 19.2299C49.3397 18.4099 51.7897 17.6899 52.7897 18.3099C53.0697 18.4799 54.0697 21.2899 54.4797 21.7699ZM53.2897 21.0999C52.4697 19.4499 52.4297 18.0599 50.1497 19.0699L50.9197 21.7799L53.2797 21.0999H53.2897ZM49.7497 19.4099C49.4697 19.3699 49.2797 19.5099 49.2697 19.7999C49.2697 20.1599 49.7597 21.5799 49.8997 22.0499C49.9697 22.2699 49.7797 22.5199 50.1697 22.4399C50.2997 22.4099 50.6997 22.2599 50.5997 22.0299L49.7497 19.4099Z" fill="#E31522"/>
<path d="M58.0598 93.3806C57.7498 93.8806 58.1898 98.9006 58.0598 99.8906L63.8598 103.971L63.7698 104.481L63.1698 104.321L57.4398 100.261C56.9898 99.3406 57.6198 95.1506 57.3498 93.7606C57.2498 93.2306 56.6498 93.1906 56.6798 92.5906C56.7398 91.4506 58.4698 91.2806 58.5598 92.5706C58.6098 93.3706 58.1898 93.1906 58.0798 93.3706" fill="#E31522"/>
<path d="M73.8899 72.2409L69.6599 71.6609L68.1499 68.5309C69.0099 68.6609 70.0299 68.1009 70.8499 68.4509C71.0799 68.5509 72.4399 70.1409 72.6999 70.4809C72.8799 70.7009 74.0399 72.1009 73.8899 72.2509" fill="#E31522"/>
<path d="M98.53 68.5294L97.01 71.6494L92.79 72.2394C93.44 71.3694 94.08 70.4294 94.82 69.6294C96.19 68.1494 96.43 68.1794 98.53 68.5294Z" fill="#E31522"/>
<path d="M118.27 19.0895L117.1 23.9695C116.9 24.1495 116.1 22.9995 115.83 22.7895C114.83 21.9895 113.46 21.6795 112.2 21.7695L113.93 18.2695C115.53 17.7195 116.88 18.3595 118.27 19.0895ZM117.42 19.4295C116.45 18.9895 115.5 18.5595 114.44 18.9395L113.56 21.2695C114.84 21.0595 115.68 22.0495 116.77 22.4495L117.43 19.4295H117.42Z" fill="#E31522"/>
<path d="M48.2297 14.2596C48.4397 13.6196 51.2197 13.7696 51.7797 14.2596L52.6197 17.6396C51.5597 17.5996 50.6597 17.4096 49.6297 17.8596C49.2197 18.0396 48.9297 18.4496 48.4797 18.5696C48.4097 18.5696 48.2197 18.1696 48.2197 18.1396V14.2596H48.2297ZM48.9097 14.7696V17.3896L51.6097 16.7996L51.0997 14.7796L49.1897 14.5496L48.9097 14.7796V14.7696Z" fill="#E31522"/>
<path d="M81.4799 77.9795C81.8699 78.7095 81.3999 79.4395 81.6099 80.1195C82.0699 81.6295 84.9599 81.5895 85.1899 80.0795C85.2399 79.7195 84.9899 78.1795 85.6199 78.3195C85.8599 78.4895 85.8799 78.6095 85.8699 78.8895C85.8499 79.2095 85.6999 80.6795 85.6199 80.8495C85.0699 82.0795 82.0899 82.0195 81.3199 80.9395C80.8299 80.2595 80.8099 77.4995 81.4899 77.9795" fill="#E31522"/>
<path d="M85.8699 82.0391C85.6999 83.9491 81.4499 83.8991 80.9799 82.2891C80.7499 81.5091 82.0999 82.6791 82.2499 82.7091C82.6399 82.7791 84.0299 82.7791 84.4499 82.7191C85.1799 82.6291 85.1599 81.9691 85.8799 82.0391" fill="#E31522"/>
<path d="M85.5298 84.0605C85.7598 85.6505 81.2898 84.9706 81.1398 84.4806C81.1098 84.4006 81.0898 84.0605 81.2298 84.0605C82.6498 84.5205 84.1298 84.5905 85.5298 84.0605Z" fill="#E31522"/>
<path d="M81.3098 73.9297C81.5098 73.8597 81.9798 74.0097 81.9798 74.1797V76.7097L81.5598 76.9597L81.2998 76.7097V73.9197L81.3098 73.9297Z" fill="#E31522"/>
<path d="M84.8599 74.1895L85.1999 74.0195C85.3699 74.1395 85.4699 76.1595 85.4799 76.5895C85.4799 77.0795 85.3599 77.2395 84.8699 77.1495V74.1995L84.8599 74.1895Z" fill="#E31522"/>
<path d="M76.6001 87.5895C76.2201 86.9995 77.1901 86.3495 77.5201 87.0995C77.7301 87.5695 76.8501 87.9795 76.6001 87.5895Z" fill="#E31522"/>
<path d="M81.31 104.32V111.33C81.31 111.43 81.95 111.77 81.99 112.18C82.08 113.02 81.01 113.64 80.39 112.93C79.67 112.11 80.69 111.75 80.8 111.16C80.93 110.49 80.93 105.93 80.8 105.26C80.76 105.07 80.74 104.92 80.52 104.86L79.45 104.84V108.89C79.25 108.96 78.78 108.82 78.78 108.64V104.84H77.94V107.88C77.74 107.95 77.27 107.8 77.27 107.63V104.34H81.32L81.31 104.32Z" fill="#E31522"/>
<path d="M75.5699 98.75C75.7099 99.65 76.6599 100.83 76.8499 101.61C76.9299 101.91 76.9299 101.92 76.6699 102.12C76.1699 102.23 75.2399 99.43 74.8999 99L75.5599 98.75H75.5699Z" fill="#E31522"/>
<path d="M66.9701 100.011C67.0101 99.9006 67.3601 99.8306 67.4301 99.7106C67.6601 99.3406 67.5101 98.5106 67.9801 97.9806C68.5601 97.3306 69.8901 97.4106 70.4401 98.0606C70.9801 98.6906 70.7001 99.3906 70.8901 99.7306C70.9401 99.8206 71.3601 99.9206 71.3601 100.021V102.721C71.3601 102.721 70.9701 103.141 70.9401 103.141H67.2301L66.9801 102.891C66.9801 102.311 66.8601 100.381 66.9801 100.021M69.9701 98.4506C68.8101 97.8306 68.0301 98.5206 68.1501 99.7606H70.1801L69.9701 98.4506ZM69.5001 102.461C69.4101 101.901 70.1101 100.231 68.9301 100.621C68.7501 100.681 68.6601 100.841 68.6501 101.021L68.8301 102.461H69.5001Z" fill="#E31522"/>
<path d="M69.1598 95.0302H71.1898V95.5402L69.4297 95.5602L69.1397 96.1902L68.4897 96.2102V92.4202L68.9098 92.1602L69.1598 92.4202V95.0302Z" fill="#E31522"/>
<path d="M89.42 108.029H88.91V104.819L88.09 104.849C88.1 105.029 87.9 105.329 87.9 105.419V108.879H87.39V105.079L87.11 104.849L86.04 104.819C86.24 106.739 85.78 109.139 86.04 110.989C86.12 111.559 86.54 111.629 86.57 112.159C86.64 113.419 84.94 113.449 84.87 112.319C84.84 111.789 85.31 111.549 85.38 110.989C85.5 110.009 85.13 104.539 85.38 104.309C86.65 104.309 88.27 103.779 89.43 104.389V108.019L89.42 108.029Z" fill="#E31522"/>
<path d="M91.5297 98.5802C91.8497 98.5702 91.7597 99.1902 91.6997 99.4202C91.5897 99.8802 90.9597 101.19 90.6897 101.62C90.5697 101.81 90.4997 102.17 90.1797 102.12C89.7697 102.06 90.1197 101.47 90.1797 101.28C90.3197 100.88 91.2897 98.5902 91.5197 98.5802" fill="#E31522"/>
<path d="M94.8198 100.52C94.8598 100.38 96.8398 98.5799 97.0198 98.4799C97.1798 98.3999 97.1898 98.3999 97.3598 98.4799C97.5798 98.5899 99.4598 100.5 99.5098 100.73C99.6398 101.25 99.5698 104.15 98.9598 104.15H95.2498C95.2498 104.15 94.8298 103.76 94.8298 103.73C94.8298 103.02 94.6898 101.03 94.8298 100.52M98.3598 101.45C98.5498 101.22 97.1098 99.5299 97.0098 99.5899L95.8298 101.36L96.6698 101.27V103.47H97.6798V101.27L98.3498 101.44L98.3598 101.45Z" fill="#E31522"/>
<path d="M98.3597 92.8401V96.4701C98.3597 96.8101 100.62 97.9601 99.4797 98.2201C99.2997 98.2001 97.9497 97.1701 97.8397 96.9801C97.6297 96.6001 97.7097 96.0801 97.6797 96.0401C97.5197 95.8601 95.3597 96.4701 95.9097 95.3601H97.6797V92.8301H98.3597V92.8401Z" fill="#E31522"/>
<path d="M78.0599 94.7204C79.3899 94.3304 79.4699 96.2404 78.3399 96.3404C77.4299 96.4304 77.3299 94.9404 78.0599 94.7204Z" fill="#E31522"/>
<path d="M87.8498 97.5194C87.3698 98.0094 86.3198 97.2694 86.3998 96.6794C86.8598 95.1194 88.6698 96.6794 87.8498 97.5194Z" fill="#E31522"/>
<path d="M88.0196 94.7204C88.8996 94.4804 89.7696 95.7004 88.9096 96.1304C87.8396 96.6604 87.0596 94.9804 88.0196 94.7204Z" fill="#E31522"/>
<path d="M79.23 96.0694C80.53 95.6394 80.7499 97.7594 79.3799 97.5694C78.5399 97.4494 78.68 96.2494 79.23 96.0694Z" fill="#E31522"/>
<path d="M78.3597 59.4205C78.5997 59.3705 82.0397 62.4505 81.9897 62.7105C81.9597 62.8305 81.6297 63.1005 81.4797 62.8805C80.6597 62.0205 79.6397 61.3305 78.7797 60.5205C78.6297 60.3805 77.6797 59.5605 78.3597 59.4205Z" fill="#E31522"/>
<path d="M81.48 54.6895H81.99C82.01 55.3295 81.97 55.9795 81.99 56.6295C82.01 57.0795 82.41 57.5595 81.9 57.8995L81.48 57.6495V54.6995V54.6895Z" fill="#E31522"/>
<path d="M88.7399 59.5894C88.8899 59.7694 88.4399 60.1494 88.3199 60.2694C87.9399 60.6394 85.5899 62.7094 85.3099 62.8294C85.0999 62.9194 84.9199 62.9794 84.8599 62.7094C84.8099 62.4294 84.9499 62.2994 85.0999 62.1094C85.2599 61.9194 87.9699 59.6594 88.1499 59.5794C88.3399 59.4894 88.6699 59.5194 88.7399 59.5894Z" fill="#E31522"/>
<path d="M84.6897 54.6906C85.0097 54.5706 85.3597 54.8006 85.3597 55.1106V57.6406L85.0997 57.8906L84.6797 57.6406V54.6906H84.6897Z" fill="#E31522"/>
<path d="M89.7501 67.8609H89.0801C89.2201 67.5109 89.1601 66.5909 89.2801 66.3809C89.3301 66.2909 90.5101 65.4609 90.7701 65.0809C91.0701 64.6409 90.8601 63.9609 91.6901 63.9609C92.5301 63.9609 92.7401 65.2309 91.9901 65.4609C91.7201 65.5409 91.4101 65.4609 91.1001 65.5809C90.6301 65.7809 89.4001 67.2009 89.7501 67.8609Z" fill="#E31522"/>
<path d="M93.9998 62.9405C93.4398 62.0405 95.1598 61.2605 95.1698 62.5405C95.1798 63.3805 94.1398 63.1605 93.9998 62.9405Z" fill="#E31522"/>
<path d="M77.6001 67.8498L77.0901 67.7398C77.1301 67.1098 76.1601 65.9298 75.6701 65.6498C75.1101 65.3298 74.0901 65.6098 74.2601 64.5998C74.3501 64.0398 74.7901 63.8598 75.3201 63.9598C75.9201 64.0798 75.6301 64.5898 75.9001 65.0698C76.1601 65.5298 77.1701 65.9498 77.3401 66.3298C77.5101 66.6998 77.4801 67.4098 77.6001 67.8398" fill="#E31522"/>
<path d="M71.9699 61.8001C72.8499 61.5101 73.2499 62.8701 72.4099 63.1101C71.4799 63.3701 71.3099 62.0201 71.9699 61.8001Z" fill="#E31522"/>
<path d="M93.6803 78.3604C94.4803 77.5704 95.7603 79.0004 94.9203 79.6904C94.1603 80.3104 93.0103 79.0304 93.6803 78.3604Z" fill="#E31522"/>
<path d="M95.1098 76.6603C96.3498 76.3603 96.6298 78.8103 95.2098 78.2003C94.4698 77.8903 94.4598 76.8203 95.1098 76.6603Z" fill="#E31522"/>
<path d="M92.0702 81.2207C93.0202 80.9407 93.8502 82.1707 92.7402 82.5907C91.8102 82.9407 91.0902 81.5107 92.0702 81.2207Z" fill="#E31522"/>
<path d="M92.9 79.6903C93.54 79.4803 94.66 80.6903 93.8 81.1103C92.79 81.6103 91.99 79.9903 92.9 79.6903Z" fill="#E31522"/>
<path d="M73.4899 79.5408C74.2399 79.4708 74.5399 80.4108 73.8799 80.9308C72.6399 81.9108 72.1799 79.6608 73.4899 79.5408Z" fill="#E31522"/>
<path d="M73 78.3595L73.19 79.0495C71.49 81.1995 70.65 77.9195 73 78.3595Z" fill="#E31522"/>
<path d="M75.0397 81.2202C75.5097 81.5202 75.1897 82.6902 74.2997 82.6502C72.7897 82.5802 73.9897 80.5602 75.0397 81.2202Z" fill="#E31522"/>
<path d="M71.9898 76.8493C72.5798 77.4593 71.7198 78.5993 71.0198 78.2493C70.1198 77.7893 71.1398 76.1993 71.9898 76.8493Z" fill="#E31522"/>
<path d="M86.2099 100.939C86.0699 101.189 86.1299 101.419 85.7999 101.459C85.0899 101.549 81.8799 101.569 81.2399 101.439C80.9699 101.389 80.7299 101.199 80.6499 100.939H86.2199H86.2099Z" fill="#E31522"/>
<path d="M95.2697 41.2196C95.7197 41.0796 96.6697 41.0996 96.8197 41.6496C96.9097 41.9796 96.7197 42.2596 96.7497 42.4596C96.8397 43.0696 97.2297 43.4696 96.8097 44.2796C96.4297 45.0096 94.9597 44.6196 94.7197 43.8996C94.5197 43.2996 94.4897 41.4596 95.2697 41.2196ZM95.7697 41.5596L95.2297 41.8596V42.5496L96.3397 42.6296L96.4197 41.8596L95.7697 41.5596Z" fill="#E31522"/>
<path d="M71.3601 42.3691H72.8801C73.1401 43.3691 71.9001 43.1791 71.3601 43.8091L71.7001 44.2291C70.9401 44.6291 69.9601 44.8291 69.2601 44.2291C68.2501 42.4491 70.4001 41.6191 71.7901 41.3691L71.3701 42.3791L71.3601 42.3691Z" fill="#E31522"/>
<path d="M57.34 27.5098C57.65 27.8998 56.22 29.0098 55.9 29.1998C55.69 29.3198 55.54 29.4198 55.48 29.1198C55.4 28.7198 56.95 27.6598 57.33 27.5198" fill="#E31522"/>
<path d="M57.7901 28.7193C58.9001 28.6193 56.7501 30.2493 56.5901 30.2193C55.8001 29.9193 57.6301 28.7393 57.7901 28.7193Z" fill="#E31522"/>
<path d="M115.519 19.2906C117.079 19.2206 117.009 21.6106 115.189 21.0606C114.529 20.8606 114.379 19.3406 115.519 19.2906ZM115.529 19.7706C114.779 19.9706 115.169 20.9106 115.799 20.7506C116.549 20.5506 116.159 19.6106 115.529 19.7706Z" fill="#E31522"/>
<path d="M49.4102 16.5396L49.4902 15.1796L50.6002 15.0996L50.6902 16.3796L49.4102 16.5396Z" fill="#E31522"/>
<path d="M75.5797 74.5208C75.5497 74.4108 75.0697 73.7608 74.9897 73.7608C74.7097 74.1408 73.3297 75.1308 73.4697 75.6108L76.4197 79.9208L77.2497 76.6908C76.7997 74.8108 77.6097 72.9808 76.4097 71.3208C74.9097 69.2408 72.0497 66.9708 70.7697 64.9808C70.4097 64.4308 70.3397 63.7508 70.1697 63.1308C69.9097 63.0608 69.8897 63.2008 69.7497 63.3008C69.4997 63.4708 68.3097 64.6908 68.1697 64.9308C67.6797 65.8108 67.9797 66.8108 67.6597 67.6308C67.5897 67.8008 67.7397 67.9308 67.3897 67.8708C66.7797 67.7708 65.0997 65.7608 64.3197 65.3708C62.6397 64.5408 59.9897 64.4008 58.2697 63.4808C55.6197 62.0708 53.5497 59.4908 52.1997 56.9008C50.7997 54.2308 49.8697 51.4808 49.2797 48.5108C49.2197 48.2308 49.2297 48.2808 49.5097 48.2808C50.4897 48.2808 54.7197 49.7108 55.9697 50.1008C57.8397 50.6808 59.7097 51.2908 61.5697 51.9308L67.7697 58.4008C67.9297 58.4308 69.5497 57.3208 70.1497 57.2708C70.4797 57.2408 70.7797 57.4308 71.1197 57.4108C74.2997 57.2008 76.3097 57.1608 78.8097 54.9608C79.5197 54.3408 80.4297 52.8408 80.9097 52.5008C81.4497 52.1008 84.8497 52.4008 85.7297 52.4308C87.7597 54.8208 89.7497 56.9608 93.0797 57.2308C94.1497 57.3208 95.3997 57.1008 96.4397 57.2508C97.0897 57.3408 98.7897 58.3108 99.1197 58.2308C101.35 56.2208 103.15 53.6208 105.54 51.8108L117.64 48.3008C117.1 50.3808 116.64 52.5108 115.81 54.4908C114.43 57.7708 111.72 62.0508 108.39 63.6108C106.66 64.4208 103.77 64.6208 102.22 65.5408C101.47 65.9808 100.1 67.8208 99.3197 68.0508C98.9797 68.0908 99.0997 68.0408 99.0697 67.8008C98.9597 66.8808 99.0697 65.8708 98.6597 65.0008C98.4897 64.6508 96.9597 62.9708 96.7097 63.1508C96.4997 63.7508 96.3797 64.5708 96.0297 65.0908C95.2497 66.2908 92.9597 68.2708 91.8897 69.5608C91.3997 70.1508 89.9497 71.7608 89.8197 72.3908C89.6397 73.2908 89.5397 75.8008 89.6097 76.7408C89.6897 77.7408 90.0897 78.8708 90.2797 79.8608C90.4797 80.0208 93.1697 75.9808 93.2497 75.6408C93.3497 75.2308 92.1897 74.1908 91.8697 73.7908C91.6397 73.7108 91.2897 74.3008 91.2897 74.3808V77.0808L91.0297 77.3308L90.6097 77.0808V74.2108C90.6097 74.1108 91.7297 72.8908 92.0097 72.9608C92.4597 73.0808 93.3597 74.8608 94.0597 74.9608L98.1997 73.1908C98.6697 72.0308 97.8597 70.3708 99.2097 69.5608V75.5508C99.2097 75.9708 97.4397 78.4808 97.3997 79.2308L102.88 101.421V102.361L83.4197 120.201L63.7797 102.181L69.3097 79.5708C69.6297 78.6608 67.6297 76.1908 67.6297 75.7108V69.5508C68.4997 70.3008 68.5797 71.9608 68.3297 73.0008L72.7897 74.9408L74.9797 72.9608C75.1397 73.1208 76.0697 73.9508 76.0697 74.0308V77.1508H75.5597C75.4497 76.3908 75.7097 75.2408 75.5597 74.5308M114.4 49.9608L105.46 52.7508L99.6197 58.9008L100.39 60.7608C100.67 60.8208 100.73 60.6708 100.89 60.5008C102.42 58.9308 103.7 56.0908 105.29 54.4408L114.39 49.9608H114.4ZM61.0097 55.0808L50.5997 50.1308C50.5097 50.2208 51.1197 52.2908 51.2297 52.6208C52.4697 56.4408 55.0997 60.9208 58.8097 62.7708C59.4597 63.1008 63.6097 64.4508 64.2197 64.4708C64.8097 64.4908 64.9597 63.9708 64.9597 63.4608C63.2097 62.8808 60.9897 62.3408 59.3397 61.5708C56.6697 60.3208 53.8397 54.7008 52.7997 51.9908C54.7597 52.9408 56.8197 53.7308 58.7697 54.7208C59.2697 54.9708 60.0397 55.2708 60.4497 55.5708C61.2597 56.1508 63.7397 59.6908 64.4097 60.7208C64.6697 61.1208 64.9297 61.5108 65.1197 61.9508C64.8797 61.9808 64.6697 61.9308 64.4397 61.8808C63.6597 61.7008 60.6797 60.7008 60.0697 60.3408C59.2897 59.8808 58.4497 58.2408 57.7697 58.0808C57.5897 58.0408 56.8597 57.9508 57.0197 58.3308C57.9397 59.0108 58.5497 60.3708 59.5497 60.8708C61.1197 61.6508 63.4197 62.0208 65.0597 62.8108C65.4497 62.9308 65.8497 62.2908 65.8897 61.9808C65.9497 61.5608 61.4797 56.0108 61.0197 55.1008M52.7897 50.3008L61.4897 54.5208C63.1797 56.3408 64.4397 58.9308 66.0497 60.7608C66.2197 60.9508 66.1997 61.0008 66.3797 60.7608C66.6697 60.4008 66.7197 59.6408 67.0697 59.2408V58.9108L61.1497 52.6508C58.6197 51.9008 55.8997 50.7208 53.3397 50.1608C53.1697 50.1208 52.7497 49.9908 52.7897 50.2908M116.25 50.1308L105.77 55.1008L100.92 61.8908L101.33 62.8108C102.65 62.4108 103.98 62.0008 105.27 61.5208C105.89 61.2908 107.25 60.9108 107.7 60.5808C108.32 60.1108 109.25 58.7708 109.83 58.1508C108.41 57.7108 107.93 59.6108 106.74 60.3008C105.32 61.1208 103.07 61.3808 101.56 62.1208C101.45 62.0008 102.45 60.6108 102.6 60.3808C103.35 59.3008 105.21 56.4808 106.04 55.7208C106.47 55.3308 112.98 52.3308 113.75 52.1208C113.89 52.0808 114.18 51.8308 114.04 52.2408C113.63 53.4408 112.13 56.0708 111.41 57.2108C110.76 58.2408 108.64 61.0208 107.63 61.5308C106 62.3408 103.48 62.7808 101.72 63.4708L102.08 64.4508C102.27 64.5708 102.68 64.4508 102.91 64.4008C109.26 63.0208 112.4 60.2308 114.92 54.2908C115.49 52.9408 115.84 51.5308 116.24 50.1308M82.9997 53.1708C82.5897 53.2508 81.6397 53.0308 81.3497 53.2108C81.2597 53.2608 80.1597 54.6608 80.1397 54.7808C79.9897 55.5908 80.0197 58.1508 80.5497 58.7508C80.7397 58.9608 82.2697 59.9308 81.9897 60.2608C81.9497 60.3108 81.5797 60.3908 81.3997 60.2808C81.2197 60.1708 79.4597 58.6208 79.4597 58.4908V55.3708L76.7897 57.2508V60.4808L81.7497 64.8108L81.9897 65.6608L76.2497 60.8508V57.8108C76.1197 57.6508 76.1097 57.6108 75.8997 57.6208C75.6697 57.6208 73.3297 58.0708 73.2097 58.1508C72.9897 58.2908 72.6797 59.1608 72.7797 59.4108L82.3997 67.5308L82.9997 67.6908V53.1708ZM83.8497 53.1708V67.8508L94.0697 59.4108C93.8097 57.4908 91.9997 58.1008 90.5997 57.5508V60.6708C88.9597 62.0908 87.2697 63.9608 85.5397 65.2408C85.3097 65.4108 85.1997 65.5608 84.8597 65.4808L85.0197 64.7108L89.8897 60.4708L89.8397 57.2108L87.2197 55.3608V58.4808C87.2197 58.6308 85.1697 60.5808 84.8597 60.2508C84.7297 59.3108 86.3097 58.9608 86.5097 58.2708L86.5397 54.7608C85.8097 53.6408 85.3497 52.8408 83.8397 53.1508M70.0097 58.8208C69.8797 59.6508 70.0997 60.7408 70.0097 61.6108C70.9797 60.6908 71.6597 59.3508 72.2097 58.1508C71.4697 58.0008 70.1597 57.8608 70.0097 58.8208ZM96.8397 61.7808V59.3308C96.8397 59.1208 96.5597 58.2608 96.3397 58.1508H94.4797C95.0797 59.4608 95.8597 60.7408 96.8397 61.7808ZM69.1597 62.5408V58.5708L67.8997 59.4208L65.2997 65.0408L66.9597 66.3308C66.9797 65.7208 67.1297 65.0608 67.4297 64.5208C67.7197 64.0108 69.0497 62.8908 69.1497 62.5308M97.6897 58.9908C97.7497 60.2008 97.6897 61.4808 97.6897 62.7008C97.6897 62.8208 99.0597 64.0208 99.3497 64.5908C99.6397 65.1608 99.7897 65.6908 99.7197 66.3308C99.9197 66.5608 101.4 65.2908 101.4 64.9008C100.43 63.3508 99.5097 59.2708 97.7697 58.5708C97.2697 58.3708 97.6897 58.9608 97.6897 58.9908ZM77.7697 72.0808L82.3197 68.6208L72.2797 60.1008C72.1497 60.1008 70.9097 62.1308 70.8797 62.2508C70.8097 62.5308 71.1397 63.8508 71.2697 64.1508C71.5297 64.7408 74.9597 68.4708 75.6597 69.2108C75.8297 69.3908 76.2497 69.9108 76.4797 69.8708C77.0797 69.4008 77.6597 68.9108 78.2597 68.4308C78.3997 68.3208 78.4497 68.1108 78.5397 68.0308C79.1697 67.5208 79.6097 68.0308 79.1797 68.5408C78.9097 68.8708 76.7897 70.0908 76.7897 70.4708L77.7797 72.0808H77.7697ZM88.2097 67.8908C88.2597 67.9208 88.3797 68.2908 88.5697 68.4608C88.8597 68.7108 90.2097 69.9108 90.4397 69.8108L95.3297 64.4008C95.5297 64.0608 96.0397 62.7208 95.9997 62.3808C95.9497 61.8608 94.6797 60.6408 94.3997 60.1008L84.3597 68.6208L89.0797 72.0808L89.9397 70.3208L87.3997 68.2808C87.3197 67.9108 87.9397 67.7308 88.2197 67.8908M82.9997 69.3708C81.8997 69.7908 80.9497 70.8008 79.9897 71.5108L79.9697 85.2908L78.1897 86.5908C77.3897 86.1608 79.1197 85.2508 79.1197 84.9908V72.2508L77.9697 73.2108L77.9997 76.9508L75.2397 90.3108L79.9597 86.6708C80.8597 86.3908 82.3297 87.3108 83.4297 87.2908C84.5597 87.2708 86.1397 86.2708 87.1197 86.7908L91.6097 90.3108L88.7597 77.0408C88.4697 76.1608 89.1697 73.5608 88.7597 72.9908C88.6097 72.7808 87.9697 72.4908 87.7397 72.2408C87.6897 75.5908 87.7997 78.9408 87.7397 82.2908C87.7297 83.1408 87.2897 84.2708 87.7397 85.1108C87.8797 85.3708 88.9997 85.9208 88.9197 86.3408C88.8797 86.5208 88.6397 86.6308 88.4097 86.5108C88.3297 86.4708 86.9997 85.4308 86.9397 85.3608C86.3897 84.6708 86.8897 82.8208 86.8997 81.9608C86.9497 78.8108 86.7497 75.6608 86.7197 72.4908C86.7197 72.2108 86.8397 71.9508 86.8597 71.6708L83.8597 69.3708V79.7308L83.0097 80.0008V69.3708H82.9997ZM74.7297 87.9408C74.7997 86.2708 76.4797 82.2808 75.9897 80.8608C75.8797 80.5508 72.9397 76.1008 72.6997 75.8908C72.4797 75.7008 68.6397 73.9408 68.4897 74.1108L68.6197 75.7508L74.7297 87.9508V87.9408ZM98.3597 74.1008C98.1197 74.0508 97.9497 74.1608 97.7297 74.2308C97.0697 74.4708 94.5497 75.5008 94.1297 75.8608C93.0197 76.7808 91.7597 79.8308 90.6697 81.0108L90.5997 81.5808L91.9397 87.9308L98.2197 75.5608L98.3497 74.0908L98.3597 74.1008ZM82.9997 118.491V102.961L79.3297 102.581C78.8797 101.731 78.3297 100.931 77.8497 100.091C77.5197 99.5108 77.3297 98.7408 76.9997 98.2408C76.5297 97.5208 74.9797 96.5208 74.6897 95.8308C74.5097 95.4008 74.2297 92.5308 74.2197 91.9108C74.1997 91.0108 74.4197 90.3108 74.4897 89.4508L70.4297 81.3508L70.3397 81.6108C72.2297 88.5308 72.6397 96.8108 74.7297 103.561C75.9897 107.631 78.6697 111.891 79.9997 116.021C80.2597 116.281 82.8197 118.721 83.0097 118.491M83.8497 102.971V118.671C84.6197 117.791 86.1297 116.831 86.7497 115.921C88.9497 112.661 89.9897 106.901 92.1297 103.411L96.5097 81.4608C96.2097 81.1008 96.2497 81.4108 96.1597 81.6108C95.3997 83.2608 92.5597 88.1608 92.3197 89.4308C92.1897 90.1008 92.6397 90.7408 92.6397 91.4108C92.6397 92.0108 92.2197 95.6308 92.0297 96.0508C91.7597 96.6508 90.2097 97.4608 89.7497 98.1608C89.4397 98.6408 89.3197 99.3608 88.9997 99.9408C88.7897 100.321 87.6497 102.351 87.4897 102.481C86.8197 102.991 84.7597 102.771 83.8497 102.981M78.2697 114.271L73.7997 103.471L69.4997 82.7108L64.7897 102.001L70.4197 107.181L72.5997 104.811L73.3697 104.651C73.8597 105.121 70.8497 107.081 71.0197 107.741L78.2597 114.271H78.2697ZM88.5697 114.111L102.04 101.841L97.3397 82.7208C97.0697 82.7008 97.0797 83.1408 97.0297 83.3308C95.3697 89.8108 94.6697 96.7908 93.0397 103.311L88.5697 114.111ZM83.8497 99.2508H87.3097L91.1797 95.6908C91.3697 95.3708 91.7897 92.4008 91.7897 91.8908C91.7897 91.6408 91.7597 91.5808 91.6097 91.4008C91.4097 91.1508 88.3597 88.9508 88.1497 88.9508C86.6697 90.1408 84.4797 91.7908 82.5097 91.2208C81.0397 90.8008 79.7597 89.8608 78.5597 88.9608C77.9397 89.7208 75.6997 90.7408 75.2297 91.3808C74.8197 91.9508 75.5397 94.6708 75.4997 95.5208L79.6397 99.3108L79.8897 99.2308H82.8397L82.5697 96.8808C81.5297 96.1908 80.6597 95.0908 79.7097 94.3408C79.2597 93.9808 77.3397 93.0108 77.2897 92.8708C77.2097 92.6408 77.2097 91.4708 77.2897 91.2408C77.3897 90.9508 78.4297 90.4208 78.6997 90.1508C79.8897 91.1208 82.3497 92.4908 83.8897 92.2708C85.1197 92.0908 86.9797 90.9108 87.9797 90.1608L89.3797 90.9908V92.9508C87.2097 93.6508 85.8597 95.5508 84.0997 96.8708L83.8397 99.2308L83.8497 99.2508ZM87.6397 100.101C84.7497 100.231 81.8297 100.001 78.9497 100.101C79.4597 102.081 80.6097 102.061 82.3997 102.131C83.8897 102.201 85.3697 102.031 86.8397 101.841C86.9797 101.781 87.8297 100.371 87.8897 100.181C88.0397 99.6908 87.6497 100.101 87.6397 100.101Z" fill="#E31522"/>
<path d="M2.043 183.859V155.257H5.7204L25.1289 176.709V155.257H29.5826V183.859H25.9052L6.49674 162.408V183.859H2.043ZM33.6856 179.324V159.793L38.221 155.257H56.6897L61.2252 159.793V179.324L56.6897 183.859H38.221L33.6856 179.324ZM39.692 180.019H55.2188L56.7715 178.466V160.651L55.2188 159.098H39.692L38.1393 160.651V178.466L39.692 180.019ZM65.3281 183.859V155.257H69.6184L82.3259 176.3H82.3667L95.1151 155.257H99.4054V183.859H94.9516V162.816L82.571 183.042H82.1624L69.7819 162.816V183.859H65.3281ZM110.258 155.257H124.845L132.649 183.859H128.277L126.07 175.81H109.032L106.825 183.859H102.453L110.258 155.257ZM125.253 172.296L121.535 159.098H113.567L109.849 172.296H125.253ZM135.716 155.257H158.72L163.255 159.793V179.324L158.72 183.859H135.716V155.257ZM157.249 180.019L158.802 178.466V160.651L157.249 159.098H140.17V180.019H157.249Z" fill="white"/>
</svg>
